<svg width="210" height="92" viewBox="0 0 210 92" fill="none" xmlns="http://www.w3.org/2000/svg">
<path fill-rule="evenodd" clip-rule="evenodd" d="M105.006 8.95575C101.182 8.95575 98.0769 12.0237 98.0769 15.8018C98.0769 19.5799 101.182 22.6478 105.006 22.6478C108.83 22.6478 111.935 19.5799 111.935 15.8018C111.935 12.0237 108.83 8.95575 105.006 8.95575ZM105.006 20.9718C102.131 20.9718 99.8019 18.6709 99.8019 15.8302C99.8019 12.9895 102.131 10.6886 105.006 10.6886C107.881 10.6886 110.21 12.9895 110.21 15.8302C110.21 18.6425 107.881 20.9718 105.006 20.9718Z" fill="#FFBD4A"/>
<path fill-rule="evenodd" clip-rule="evenodd" d="M115.126 16.3132L114.35 15.7166L114.292 14.7224L114.982 14.0406L115.758 13.0748L115.212 11.5124L114.033 11.2283L113.056 11.0863L112.51 10.2625L112.768 9.32508L112.97 8.10359L111.733 7.02413L110.555 7.36501L109.635 7.7343L108.743 7.3082L108.485 6.37077L108.025 5.20609L106.386 4.89362L105.552 5.77423L104.948 6.54121L103.942 6.59803L103.252 5.91626L102.274 5.14928L100.693 5.68901L100.406 6.85369L100.262 7.81952L99.4282 8.35925L98.4794 8.10359L97.2431 7.90474L96.1506 9.15464L96.4956 10.3193L96.8694 11.2283L96.4381 12.1089L95.4893 12.3646L94.3106 12.8191L93.9943 14.4383L94.8856 15.2621L95.6619 15.8587L95.7194 16.8529L95.0293 17.5347L94.2531 18.5005L94.7993 20.0629L95.9781 20.3469L96.9556 20.489L97.5019 21.3128L97.2431 22.2502L97.0419 23.4717L98.2782 24.5511L99.4569 24.2103L100.377 23.841L101.268 24.2671L101.527 25.2045L101.987 26.3692L103.626 26.6817L104.46 25.801L105.063 25.0341L106.07 24.9772L106.76 25.659L107.737 26.426L109.318 25.8863L109.606 24.7216L109.75 23.7558L110.583 23.216L111.532 23.4717L112.768 23.6705L113.861 22.449L113.516 21.2844L113.142 20.3753L113.573 19.4947L114.522 19.2391L115.701 18.7846L116.017 17.1654L115.126 16.3132ZM105.006 23.1024C100.952 23.1024 97.6456 19.8356 97.6456 15.8302C97.6456 11.8249 100.952 8.5581 105.006 8.5581C109.06 8.5581 112.366 11.8249 112.366 15.8302C112.366 19.8356 109.06 23.1024 105.006 23.1024Z" fill="#FFBD4A"/>
<path fill-rule="evenodd" clip-rule="evenodd" d="M100.176 37.9877L99.3994 37.3911L99.3419 36.4253L100.032 35.7435L100.808 34.7777L100.291 33.2437L99.1119 32.9596L98.1344 32.8176L97.5881 31.9938L97.8468 31.0848L98.0481 29.8633L96.8118 28.7838L95.633 29.1247L94.713 29.494L93.8218 29.0679L93.563 28.1589L93.103 27.0226L91.493 26.7101L90.6592 27.5908L90.0554 28.3577L89.0779 28.4146L88.3879 27.7328L87.4104 26.9658L85.8579 27.4771L85.5704 28.6418L85.4266 29.6076L84.5928 30.1474L83.6728 29.8917L82.4365 29.6929L81.344 30.9144L81.689 32.079L82.0628 32.9881L81.6315 33.8687L80.7115 34.1243L79.5615 34.5788L79.2452 36.1696L80.1365 36.9934L80.9128 37.59L80.9703 38.5558L80.2803 39.2376L79.504 40.2034L80.0215 41.7374L81.2003 42.0214L82.1778 42.1635L82.7241 42.9873L82.4653 43.8963L82.264 45.1178L83.5003 46.1972L84.6791 45.8564L85.5991 45.4871L86.4904 45.9132L86.7491 46.8222L87.2091 47.9585L88.8192 48.2709L89.6529 47.3903L90.2567 46.6233L91.2342 46.5665L91.9242 47.2483L92.9017 48.0153L94.4543 47.504L94.7418 46.3393L94.8855 45.3734L95.7193 44.8337L96.6393 45.0894L97.8756 45.2882L98.9681 44.0667L98.6231 42.902L98.2494 41.993L98.6806 41.1124L99.6006 40.8568L100.751 40.4022L101.067 38.8115L100.176 37.9877ZM90.1129 44.7485C86.0879 44.7485 82.7816 41.5101 82.7816 37.5047C82.7816 33.5278 86.0591 30.261 90.1129 30.261C94.138 30.261 97.4443 33.4994 97.4443 37.5047C97.4443 41.4817 94.1668 44.7485 90.1129 44.7485ZM90.1129 30.6871C93.908 30.6871 97.0131 33.7266 97.0131 37.5047C97.0131 41.2544 93.9368 44.3224 90.1129 44.3224C86.3179 44.3224 83.2128 41.2829 83.2128 37.5047C83.2416 33.755 86.3179 30.6871 90.1129 30.6871ZM90.1129 42.618C87.2666 42.618 84.9378 40.317 84.9378 37.5047C84.9378 34.6925 87.2666 32.3915 90.1129 32.3915C92.9593 32.3915 95.288 34.6925 95.288 37.5047C95.288 40.317 92.9593 42.618 90.1129 42.618Z" fill="#FEFEFE"/>
<path fill-rule="evenodd" clip-rule="evenodd" d="M130.048 37.8456L129.271 37.249L129.214 36.2832L129.904 35.6014L130.68 34.6356L130.163 33.1016L128.984 32.8176L128.006 32.6755L127.46 31.8517L127.719 30.9427L127.92 29.7212L126.684 28.6418L125.505 28.9826L124.585 29.3519L123.694 28.9258L123.435 28.0168L122.975 26.8805L121.365 26.5681L120.531 27.4487L119.927 28.2157L118.95 28.2725L118.26 27.5907L117.282 26.8237L115.73 27.335L115.442 28.4997L115.298 29.4655L114.465 30.0053L113.545 29.7496L112.308 29.5508L111.216 30.7723L111.561 31.9369L111.935 32.846L111.503 33.7266L110.583 33.9822L109.433 34.4367L109.117 36.0275L110.008 36.8513L110.785 37.4479L110.842 38.4137L110.152 39.0955L109.376 40.0613L109.893 41.5953L111.072 41.8793L112.05 42.0214L112.596 42.8452L112.337 43.7542L112.136 44.9757L113.372 46.0551L114.551 45.7143L115.471 45.345L116.362 45.7711L116.621 46.6801L117.081 47.8164L118.691 48.1288L119.525 47.2482L120.129 46.4812L121.106 46.4244L121.796 47.1062L122.774 47.8732L124.326 47.3619L124.614 46.1972L124.757 45.2313L125.591 44.6916L126.511 44.9473L127.747 45.1461L128.84 43.9246L128.495 42.7599L128.121 41.8509L128.553 40.9703L129.473 40.7147L130.623 40.2601L130.939 38.6694L130.048 37.8456ZM119.985 44.6064C115.96 44.6064 112.653 41.368 112.653 37.3626C112.653 33.3857 115.931 30.1189 119.985 30.1189C124.01 30.1189 127.316 33.3573 127.316 37.3626C127.316 41.368 124.039 44.6064 119.985 44.6064ZM119.985 30.5734C123.78 30.5734 126.885 33.6129 126.885 37.3911C126.885 41.1408 123.809 44.2087 119.985 44.2087C116.19 44.2087 113.085 41.1692 113.085 37.3911C113.113 33.6129 116.19 30.5734 119.985 30.5734ZM119.985 42.4759C117.139 42.4759 114.81 40.1749 114.81 37.3626C114.81 34.5504 117.139 32.2494 119.985 32.2494C122.831 32.2494 125.16 34.5504 125.16 37.3626C125.189 40.1749 122.86 42.4759 119.985 42.4759Z" fill="#FEFEFE"/>
<path d="M53.4905 66.9741V54.0502H56.1316V59.1369H61.3066V54.0502H63.9477V66.9741H61.3066V61.3232H56.1316V66.9741H53.4905Z" fill="#FEFEFE"/>
<path d="M70.1221 66.9741V61.5348L65.3307 54.0502H68.4268L71.505 59.1633L74.5208 54.0502H77.5634L72.7542 61.5524V66.9741H70.1221Z" fill="#FEFEFE"/>
<path d="M78.8661 54.0502H83.6932C84.7817 54.0502 85.6115 54.1324 86.1825 54.297C86.9499 54.5203 87.6072 54.9171 88.1544 55.4871C88.7016 56.0572 89.118 56.7566 89.4035 57.5853C89.6891 58.4081 89.8318 59.4249 89.8318 60.6356C89.8318 61.6994 89.698 62.6162 89.4303 63.3861C89.1032 64.3265 88.6362 65.0876 88.0295 65.6694C87.5715 66.1102 86.9528 66.454 86.1736 66.7009C85.5907 66.883 84.8114 66.9741 83.8359 66.9741H78.8661V54.0502ZM81.5071 56.2365V64.7966H83.479C84.2166 64.7966 84.749 64.7555 85.0761 64.6732C85.5044 64.5674 85.8583 64.3882 86.1379 64.1355C86.4234 63.8827 86.6554 63.4684 86.8339 62.8924C87.0123 62.3106 87.1015 61.5201 87.1015 60.521C87.1015 59.5218 87.0123 58.7549 86.8339 58.22C86.6554 57.6852 86.4056 57.2679 86.0844 56.9682C85.7632 56.6685 85.3557 56.4657 84.862 56.3599C84.4932 56.2776 83.7705 56.2365 82.6938 56.2365H81.5071Z" fill="#FEFEFE"/>
<path d="M92.0892 66.9741V54.0502H97.6479C99.0458 54.0502 100.06 54.1677 100.69 54.4028C101.327 54.632 101.836 55.0434 102.216 55.637C102.597 56.2306 102.787 56.9094 102.787 57.6735C102.787 58.6432 102.499 59.4454 101.922 60.0802C101.345 60.709 100.482 61.1058 99.3343 61.2703C99.9053 61.5994 100.375 61.9609 100.744 62.3547C101.119 62.7484 101.621 63.4478 102.252 64.4528L103.849 66.9741H100.69L98.7811 64.1619C98.103 63.1569 97.639 62.5251 97.3892 62.2665C97.1393 62.002 96.8746 61.8228 96.5951 61.7287C96.3155 61.6288 95.8724 61.5789 95.2656 61.5789H94.7303V66.9741H92.0892ZM94.7303 59.516H96.6843C97.9513 59.516 98.7424 59.4631 99.0577 59.3573C99.3729 59.2515 99.6198 59.0693 99.7982 58.8107C99.9767 58.5521 100.066 58.2289 100.066 57.841C100.066 57.4061 99.947 57.0564 99.709 56.7919C99.477 56.5215 99.1469 56.3511 98.7186 56.2806C98.5045 56.2512 97.8621 56.2365 96.7914 56.2365H94.7303V59.516Z" fill="#FEFEFE"/>
<path d="M104.75 60.5915C104.75 59.275 104.949 58.1701 105.348 57.2768C105.645 56.6185 106.05 56.0278 106.561 55.5048C107.079 54.9817 107.644 54.5938 108.257 54.3411C109.072 54.0002 110.012 53.8298 111.076 53.8298C113.004 53.8298 114.544 54.4204 115.698 55.6018C116.858 56.7831 117.438 58.4257 117.438 60.5298C117.438 62.6162 116.864 64.2501 115.716 65.4314C114.568 66.6068 113.033 67.1945 111.112 67.1945C109.167 67.1945 107.62 66.6098 106.472 65.4402C105.324 64.2648 104.75 62.6485 104.75 60.5915ZM107.472 60.5033C107.472 61.9668 107.814 63.0776 108.498 63.8357C109.182 64.588 110.05 64.9641 111.103 64.9641C112.156 64.9641 113.018 64.5909 113.691 63.8445C114.369 63.0922 114.708 61.9668 114.708 60.4681C114.708 58.987 114.378 57.8821 113.717 57.1533C113.063 56.4246 112.192 56.0602 111.103 56.0602C110.014 56.0602 109.137 56.4304 108.471 57.171C107.805 57.9056 107.472 59.0164 107.472 60.5033Z" fill="#FEFEFE"/>
<path d="M119.517 66.9741V54.0502H125.076C126.474 54.0502 127.488 54.1677 128.118 54.4028C128.755 54.632 129.263 55.0434 129.644 55.637C130.025 56.2306 130.215 56.9094 130.215 57.6735C130.215 58.6432 129.927 59.4454 129.35 60.0802C128.773 60.709 127.91 61.1058 126.762 61.2703C127.333 61.5994 127.803 61.9609 128.172 62.3547C128.547 62.7484 129.049 63.4478 129.68 64.4528L131.277 66.9741H128.118L126.209 64.1619C125.531 63.1569 125.067 62.5251 124.817 62.2665C124.567 62.002 124.302 61.8228 124.023 61.7287C123.743 61.6288 123.3 61.5789 122.693 61.5789H122.158V66.9741H119.517ZM122.158 59.516H124.112C125.379 59.516 126.17 59.4631 126.485 59.3573C126.801 59.2515 127.048 59.0693 127.226 58.8107C127.404 58.5521 127.494 58.2289 127.494 57.841C127.494 57.4061 127.375 57.0564 127.137 56.7919C126.905 56.5215 126.575 56.3511 126.146 56.2806C125.932 56.2512 125.29 56.2365 124.219 56.2365H122.158V59.516Z" fill="#FEFEFE"/>
<path d="M132.713 66.9741V54.0502H142.412V56.2365H135.354V59.1016H141.921V61.2791H135.354V64.7966H142.662V66.9741H132.713Z" fill="#FEFEFE"/>
<path d="M144.866 66.9741V54.0502H148.818L151.192 62.866L153.538 54.0502H157.5V66.9741H155.046V56.8007L152.45 66.9741H149.907L147.319 56.8007V66.9741H144.866Z" fill="#FEFEFE"/>
<path d="M4.95282 85.7264V79.3848H6.90692C7.63511 79.3848 8.11111 79.415 8.33491 79.4756C8.69232 79.5737 8.98627 79.7827 9.21676 80.1028C9.45058 80.423 9.56749 80.8354 9.56749 81.34C9.56749 81.7986 9.46728 82.1836 9.26686 82.495C9.06644 82.8036 8.81592 83.0213 8.51529 83.1482C8.21466 83.2722 7.6969 83.3343 6.96203 83.3343H6.16536V85.7264H4.95282ZM6.16536 80.4576V82.2571H6.83677C7.28771 82.2571 7.59335 82.2297 7.75369 82.1749C7.91737 82.1201 8.05098 82.0221 8.15453 81.8808C8.25808 81.7366 8.30986 81.5607 8.30986 81.353C8.30986 81.1425 8.25641 80.9651 8.14952 80.8209C8.04263 80.6767 7.91069 80.5801 7.75369 80.5311C7.59669 80.4821 7.26433 80.4576 6.7566 80.4576H6.16536Z" fill="#FEFEFE"/>
<path d="M10.5696 85.7264V79.3848H15.039V80.4576H11.7821V81.8635H14.8085V82.9319H11.7821V84.658H15.1492V85.7264H10.5696Z" fill="#FEFEFE"/>
<path d="M16.1613 85.7264V79.3848H17.9801L19.0724 83.7106L20.1547 79.3848H21.9785V85.7264H20.8511V80.7344L19.6536 85.7264H18.4812L17.2937 80.7344V85.7264H16.1613Z" fill="#FEFEFE"/>
<path d="M22.9505 82.5945C22.9505 81.839 23.0791 81.2175 23.3363 80.7301C23.5969 80.2398 23.9359 79.875 24.3535 79.6357C24.771 79.3963 25.2771 79.2766 25.8717 79.2766C26.7335 79.2766 27.4349 79.5607 27.9761 80.1288C28.5205 80.6969 28.7928 81.5059 28.7928 82.5556C28.7928 83.6169 28.5055 84.446 27.931 85.043C27.4266 85.5707 26.7418 85.8346 25.8767 85.8346C25.0048 85.8346 24.3167 85.5736 23.8123 85.0516C23.2378 84.4546 22.9505 83.6356 22.9505 82.5945ZM24.2032 82.5513C24.2032 83.2809 24.3635 83.8288 24.6842 84.1951C25.0048 84.5585 25.4023 84.7401 25.8767 84.7401C26.3543 84.7401 26.7502 84.5599 27.0642 84.1994C27.3782 83.836 27.5351 83.2795 27.5351 82.5296C27.5351 81.7943 27.3815 81.2506 27.0742 80.8988C26.7702 80.547 26.371 80.371 25.8767 80.371C25.3823 80.371 24.9798 80.5484 24.6691 80.9031C24.3585 81.2578 24.2032 81.8072 24.2032 82.5513Z" fill="#FEFEFE"/>
<path d="M29.7498 85.7264V79.3848H30.9623V81.8808H33.3473V79.3848H34.5649V85.7264H33.3473V82.9536H30.9623V85.7264H29.7498Z" fill="#FEFEFE"/>
<path d="M37.1754 85.7264V80.4576H35.3866V79.3848H40.1716V80.4576H38.3879V85.7264H37.1754Z" fill="#FEFEFE"/>
<path d="M43.3282 85.7264V79.4367H47.5671V80.5095H44.5408V85.7264H43.3282Z" fill="#FEFEFE"/>
<path d="M48.3688 85.7264V79.3848H49.5262V83.6111L51.9613 79.3848H53.1789V85.7264H52.0215V81.5909L49.5914 85.7264H48.3688Z" fill="#FEFEFE"/>
<path d="M59.0612 84.6536H59.5823V87.1064H58.5852V85.7264H54.7823V87.1064H53.7852V84.6536H54.2862C54.4833 84.2095 54.6353 83.6731 54.7422 83.0444C54.8491 82.4157 54.9025 81.4785 54.9025 80.2326V79.3848H59.0612V84.6536ZM57.8487 80.4532H56.0549C56.0549 82.3249 55.8896 83.725 55.5589 84.6536H57.8487V80.4532Z" fill="#FEFEFE"/>
<path d="M60.409 85.7264V79.3848H62.3631C63.0913 79.3848 63.5673 79.415 63.7911 79.4756C64.1485 79.5737 64.4425 79.7827 64.673 80.1028C64.9068 80.423 65.0237 80.8354 65.0237 81.34C65.0237 81.7986 64.9235 82.1836 64.7231 82.495C64.5227 82.8036 64.2721 83.0213 63.9715 83.1482C63.6709 83.2722 63.1531 83.3343 62.4183 83.3343H61.6216V85.7264H60.409ZM61.6216 80.4576V82.2571H62.293C62.7439 82.2571 63.0496 82.2297 63.2099 82.1749C63.3736 82.1201 63.5072 82.0221 63.6108 81.8808C63.7143 81.7366 63.7661 81.5607 63.7661 81.353C63.7661 81.1425 63.7126 80.9651 63.6057 80.8209C63.4989 80.6767 63.3669 80.5801 63.2099 80.5311C63.0529 80.4821 62.7206 80.4576 62.2128 80.4576H61.6216Z" fill="#FEFEFE"/>
<path d="M71.4522 85.7264H70.1294L69.6033 84.2859H67.1983L66.7022 85.7264H65.4095L67.7544 79.3848H69.0421L71.4522 85.7264ZM69.2125 83.2175L68.3858 80.8642L67.5691 83.2175H69.2125Z" fill="#FEFEFE"/>
<path d="M72.0935 79.3848H74.5036C75.1616 79.3848 75.6243 79.4367 75.8915 79.5405C76.1587 79.6443 76.3842 79.8274 76.5679 80.0899C76.7516 80.3523 76.8435 80.6493 76.8435 80.981C76.8435 81.2867 76.765 81.5635 76.608 81.8116C76.451 82.0567 76.2472 82.2384 75.9967 82.3566C76.3541 82.4662 76.633 82.6537 76.8335 82.919C77.0372 83.1843 77.1391 83.5073 77.1391 83.888C77.1391 84.3494 77.0105 84.7401 76.7533 85.0603C76.4961 85.3775 76.1921 85.5736 75.8414 85.6486C75.5975 85.7005 75.0314 85.7264 74.1428 85.7264H72.0935V79.3848ZM73.3061 80.4403V81.9067H74.1078C74.5888 81.9067 74.8861 81.8995 74.9996 81.8851C75.2067 81.8563 75.3687 81.7813 75.4856 81.6601C75.6026 81.5361 75.661 81.3689 75.661 81.1584C75.661 80.9709 75.6126 80.8195 75.5157 80.7041C75.4222 80.5859 75.3069 80.5124 75.17 80.4835C75.0364 80.4547 74.6489 80.4403 74.0075 80.4403H73.3061ZM73.3061 82.9622V84.658H74.4334C74.9278 84.658 75.2451 84.6363 75.3854 84.5931C75.5257 84.5469 75.6426 84.459 75.7362 84.3292C75.833 84.1965 75.8815 84.0293 75.8815 83.8274C75.8815 83.6198 75.8297 83.4496 75.7261 83.3169C75.6259 83.1814 75.4907 83.0891 75.3203 83.0401C75.1533 82.9882 74.8092 82.9622 74.2881 82.9622H73.3061Z" fill="#FEFEFE"/>
<path d="M81.6085 85.7264V80.4532H79.8047V83.1655C79.8047 83.8721 79.7796 84.3955 79.7295 84.7358C79.6828 85.0732 79.5642 85.3299 79.3738 85.5058C79.1867 85.6817 78.8811 85.7697 78.4569 85.7697C78.3333 85.7697 78.0777 85.7553 77.6903 85.7264V84.7272H77.9558C78.2164 84.7272 78.3867 84.6911 78.4669 84.619C78.5504 84.544 78.5922 84.3609 78.5922 84.0696V79.3848H82.821V85.7264H81.6085Z" fill="#FEFEFE"/>
<path d="M84.0837 85.7264V79.3848H85.2411V83.6111L87.6762 79.3848H88.8937V85.7264H87.7363V81.5909L85.3062 85.7264H84.0837Z" fill="#FEFEFE"/>
<path d="M90.0311 81.6515V79.3848H91.2437V81.0675C91.2437 81.4193 91.2604 81.6818 91.2938 81.8548C91.3305 82.025 91.4291 82.1692 91.5894 82.2874C91.7531 82.4056 92.0069 82.4648 92.351 82.4648C92.8654 82.4648 93.2763 82.3494 93.5836 82.1187V79.3848H94.7961V85.7264H93.5836V83.1742C93.1059 83.3991 92.6266 83.5116 92.1456 83.5116C91.4775 83.5116 90.9581 83.3501 90.5873 83.0271C90.2165 82.7012 90.0311 82.2427 90.0311 81.6515Z" fill="#FEFEFE"/>
<path d="M96.0487 85.7264V79.3848H100.518V80.4576H97.2613V81.8635H100.288V82.9319H97.2613V84.658H100.628V85.7264H96.0487Z" fill="#FEFEFE"/>
<path d="M105.514 83.3948L106.691 83.7885C106.507 84.4979 106.202 85.017 105.774 85.3458C105.347 85.6716 104.82 85.8346 104.196 85.8346C103.411 85.8346 102.775 85.5736 102.287 85.0516C101.726 84.4489 101.445 83.6356 101.445 82.6118C101.445 81.5304 101.727 80.684 102.292 80.0726C102.783 79.5419 103.443 79.2766 104.271 79.2766C104.946 79.2766 105.51 79.4756 105.965 79.8736C106.289 80.1562 106.526 80.5758 106.676 81.1324L105.474 81.4352C105.397 81.092 105.243 80.8296 105.013 80.6479C104.785 80.4633 104.516 80.371 104.206 80.371C103.762 80.371 103.399 80.5383 103.119 80.8728C102.838 81.2074 102.698 81.7596 102.698 82.5296C102.698 83.3285 102.835 83.8966 103.109 84.234C103.382 84.5714 103.738 84.7401 104.176 84.7401C104.496 84.7401 104.774 84.6334 105.008 84.42C105.241 84.2037 105.41 83.862 105.514 83.3948Z" fill="#FEFEFE"/>
<path d="M107.753 85.7264V79.3848H108.966V82.0841C109.236 82.0552 109.423 81.9774 109.527 81.8505C109.631 81.7207 109.767 81.4107 109.938 80.9204C110.108 80.4302 110.285 80.074 110.469 79.8519C110.653 79.627 110.848 79.49 111.055 79.441C111.262 79.392 111.618 79.3574 112.122 79.3372V80.2889H111.952C111.608 80.2889 111.374 80.3581 111.251 80.4965C111.13 80.632 111.005 80.8959 110.875 81.2881C110.748 81.6803 110.638 81.9413 110.544 82.0711C110.454 82.2009 110.307 82.3292 110.103 82.4561C110.37 82.5513 110.588 82.7056 110.755 82.919C110.925 83.1324 111.129 83.49 111.366 83.9918L112.188 85.7264H110.76L110.033 84.0869C109.849 83.6688 109.691 83.3775 109.557 83.2131C109.427 83.0459 109.23 82.9593 108.966 82.9536V85.7264H107.753Z" fill="#FEFEFE"/>
<path d="M112.628 82.5945C112.628 81.839 112.757 81.2175 113.014 80.7301C113.275 80.2398 113.614 79.875 114.031 79.6357C114.449 79.3963 114.955 79.2766 115.55 79.2766C116.411 79.2766 117.113 79.5607 117.654 80.1288C118.198 80.6969 118.471 81.5059 118.471 82.5556C118.471 83.6169 118.183 84.446 117.609 85.043C117.105 85.5707 116.42 85.8346 115.555 85.8346C114.683 85.8346 113.995 85.5736 113.49 85.0516C112.916 84.4546 112.628 83.6356 112.628 82.5945ZM113.881 82.5513C113.881 83.2809 114.041 83.8288 114.362 84.1951C114.683 84.5585 115.08 84.7401 115.555 84.7401C116.032 84.7401 116.428 84.5599 116.742 84.1994C117.056 83.836 117.213 83.2795 117.213 82.5296C117.213 81.7943 117.059 81.2506 116.752 80.8988C116.448 80.547 116.049 80.371 115.555 80.371C115.06 80.371 114.658 80.5484 114.347 80.9031C114.036 81.2578 113.881 81.8072 113.881 82.5513Z" fill="#FEFEFE"/>
<path d="M119.448 85.7264V79.4367H123.687V80.5095H120.66V85.7264H119.448Z" fill="#FEFEFE"/>
<path d="M124.243 82.5945C124.243 81.839 124.371 81.2175 124.629 80.7301C124.889 80.2398 125.228 79.875 125.646 79.6357C126.063 79.3963 126.569 79.2766 127.164 79.2766C128.026 79.2766 128.727 79.5607 129.268 80.1288C129.813 80.6969 130.085 81.5059 130.085 82.5556C130.085 83.6169 129.798 84.446 129.223 85.043C128.719 85.5707 128.034 85.8346 127.169 85.8346C126.297 85.8346 125.609 85.5736 125.105 85.0516C124.53 84.4546 124.243 83.6356 124.243 82.5945ZM125.495 82.5513C125.495 83.2809 125.656 83.8288 125.976 84.1951C126.297 84.5585 126.695 84.7401 127.169 84.7401C127.647 84.7401 128.042 84.5599 128.356 84.1994C128.67 83.836 128.827 83.2795 128.827 82.5296C128.827 81.7943 128.674 81.2506 128.366 80.8988C128.062 80.547 127.663 80.371 127.169 80.371C126.675 80.371 126.272 80.5484 125.961 80.9031C125.651 81.2578 125.495 81.8072 125.495 82.5513Z" fill="#FEFEFE"/>
<path d="M133.141 82.5945C133.141 81.839 133.27 81.2175 133.527 80.7301C133.788 80.2398 134.127 79.875 134.544 79.6357C134.962 79.3963 135.468 79.2766 136.063 79.2766C136.924 79.2766 137.626 79.5607 138.167 80.1288C138.711 80.6969 138.984 81.5059 138.984 82.5556C138.984 83.6169 138.696 84.446 138.122 85.043C137.618 85.5707 136.933 85.8346 136.068 85.8346C135.196 85.8346 134.508 85.5736 134.003 85.0516C133.429 84.4546 133.141 83.6356 133.141 82.5945ZM134.394 82.5513C134.394 83.2809 134.554 83.8288 134.875 84.1951C135.196 84.5585 135.593 84.7401 136.068 84.7401C136.545 84.7401 136.941 84.5599 137.255 84.1994C137.569 83.836 137.726 83.2795 137.726 82.5296C137.726 81.7943 137.572 81.2506 137.265 80.8988C136.961 80.547 136.562 80.371 136.068 80.371C135.573 80.371 135.171 80.5484 134.86 80.9031C134.549 81.2578 134.394 81.8072 134.394 82.5513Z" fill="#FEFEFE"/>
<path d="M139.961 85.7264V79.3848H144.465V80.4532H141.173V81.9067H142.897C143.548 81.9067 144.059 82.0826 144.43 82.4345C144.801 82.7834 144.986 83.2463 144.986 83.8231C144.986 84.3249 144.828 84.7675 144.51 85.1511C144.196 85.5347 143.659 85.7264 142.897 85.7264H139.961ZM141.173 82.9795V84.6536H142.456C142.79 84.6536 143.031 84.6349 143.178 84.5974C143.328 84.557 143.458 84.4662 143.568 84.3249C143.682 84.1836 143.739 84.0192 143.739 83.8317C143.739 83.2636 143.328 82.9795 142.506 82.9795H141.173Z" fill="#FEFEFE"/>
<path d="M145.748 82.5945C145.748 81.839 145.877 81.2175 146.134 80.7301C146.394 80.2398 146.733 79.875 147.151 79.6357C147.568 79.3963 148.074 79.2766 148.669 79.2766C149.531 79.2766 150.232 79.5607 150.773 80.1288C151.318 80.6969 151.59 81.5059 151.59 82.5556C151.59 83.6169 151.303 84.446 150.728 85.043C150.224 85.5707 149.539 85.8346 148.674 85.8346C147.802 85.8346 147.114 85.5736 146.61 85.0516C146.035 84.4546 145.748 83.6356 145.748 82.5945ZM147.001 82.5513C147.001 83.2809 147.161 83.8288 147.482 84.1951C147.802 84.5585 148.2 84.7401 148.674 84.7401C149.152 84.7401 149.548 84.5599 149.862 84.1994C150.176 83.836 150.333 83.2795 150.333 82.5296C150.333 81.7943 150.179 81.2506 149.872 80.8988C149.568 80.547 149.168 80.371 148.674 80.371C148.18 80.371 147.777 80.5484 147.466 80.9031C147.156 81.2578 147.001 81.8072 147.001 82.5513Z" fill="#FEFEFE"/>
<path d="M152.542 85.7264V79.3848H154.496C155.224 79.3848 155.7 79.415 155.924 79.4756C156.282 79.5737 156.576 79.7827 156.806 80.1028C157.04 80.423 157.157 80.8354 157.157 81.34C157.157 81.7986 157.057 82.1836 156.856 82.495C156.656 82.8036 156.405 83.0213 156.105 83.1482C155.804 83.2722 155.286 83.3343 154.551 83.3343H153.755V85.7264H152.542ZM153.755 80.4576V82.2571H154.426C154.877 82.2571 155.183 82.2297 155.343 82.1749C155.507 82.1201 155.64 82.0221 155.744 81.8808C155.847 81.7366 155.899 81.5607 155.899 81.353C155.899 81.1425 155.846 80.9651 155.739 80.8209C155.632 80.6767 155.5 80.5801 155.343 80.5311C155.186 80.4821 154.854 80.4576 154.346 80.4576H153.755Z" fill="#FEFEFE"/>
<path d="M159.757 83.9355L157.543 79.3848H158.905L160.303 82.6767L161.516 79.3848H162.774L160.744 84.2037C160.494 84.7921 160.252 85.2059 160.018 85.4453C159.784 85.6846 159.503 85.8043 159.176 85.8043C158.862 85.8043 158.581 85.7784 158.334 85.7264V84.7791C158.535 84.7906 158.687 84.7964 158.79 84.7964C159.084 84.7964 159.29 84.743 159.407 84.6363C159.527 84.5296 159.644 84.296 159.757 83.9355Z" fill="#FEFEFE"/>
<path d="M168.03 84.6536H168.551V87.1064H167.554V85.7264H163.751V87.1064H162.754V84.6536H163.255C163.452 84.2095 163.604 83.6731 163.711 83.0444C163.817 82.4157 163.871 81.4785 163.871 80.2326V79.3848H168.03V84.6536ZM166.817 80.4532H165.023C165.023 82.3249 164.858 83.725 164.527 84.6536H166.817V80.4532Z" fill="#FEFEFE"/>
<path d="M169.137 82.5945C169.137 81.839 169.266 81.2175 169.523 80.7301C169.783 80.2398 170.122 79.875 170.54 79.6357C170.957 79.3963 171.463 79.2766 172.058 79.2766C172.92 79.2766 173.621 79.5607 174.162 80.1288C174.707 80.6969 174.979 81.5059 174.979 82.5556C174.979 83.6169 174.692 84.446 174.117 85.043C173.613 85.5707 172.928 85.8346 172.063 85.8346C171.191 85.8346 170.503 85.5736 169.999 85.0516C169.424 84.4546 169.137 83.6356 169.137 82.5945ZM170.39 82.5513C170.39 83.2809 170.55 83.8288 170.871 84.1951C171.191 84.5585 171.589 84.7401 172.063 84.7401C172.541 84.7401 172.937 84.5599 173.251 84.1994C173.565 83.836 173.722 83.2795 173.722 82.5296C173.722 81.7943 173.568 81.2506 173.261 80.8988C172.957 80.547 172.557 80.371 172.063 80.371C171.569 80.371 171.166 80.5484 170.856 80.9031C170.545 81.2578 170.39 81.8072 170.39 82.5513Z" fill="#FEFEFE"/>
<path d="M175.931 79.3848H178.341C178.999 79.3848 179.462 79.4367 179.729 79.5405C179.996 79.6443 180.222 79.8274 180.406 80.0899C180.589 80.3523 180.681 80.6493 180.681 80.981C180.681 81.2867 180.603 81.5635 180.446 81.8116C180.289 82.0567 180.085 82.2384 179.834 82.3566C180.192 82.4662 180.471 82.6537 180.671 82.919C180.875 83.1843 180.977 83.5073 180.977 83.888C180.977 84.3494 180.848 84.7401 180.591 85.0603C180.334 85.3775 180.03 85.5736 179.679 85.6486C179.435 85.7005 178.869 85.7264 177.98 85.7264H175.931V79.3848ZM177.144 80.4403V81.9067H177.945C178.426 81.9067 178.724 81.8995 178.837 81.8851C179.044 81.8563 179.206 81.7813 179.323 81.6601C179.44 81.5361 179.499 81.3689 179.499 81.1584C179.499 80.9709 179.45 80.8195 179.353 80.7041C179.26 80.5859 179.145 80.5124 179.008 80.4835C178.874 80.4547 178.487 80.4403 177.845 80.4403H177.144ZM177.144 82.9622V84.658H178.271C178.765 84.658 179.083 84.6363 179.223 84.5931C179.363 84.5469 179.48 84.459 179.574 84.3292C179.671 84.1965 179.719 84.0293 179.719 83.8274C179.719 83.6198 179.667 83.4496 179.564 83.3169C179.464 83.1814 179.328 83.0891 179.158 83.0401C178.991 82.9882 178.647 82.9622 178.126 82.9622H177.144Z" fill="#FEFEFE"/>
<path d="M187.435 85.7264H186.112L185.586 84.2859H183.181L182.685 85.7264H181.393L183.738 79.3848H185.025L187.435 85.7264ZM185.196 83.2175L184.369 80.8642L183.552 83.2175H185.196Z" fill="#FEFEFE"/>
<path d="M188.082 85.7264V79.3848H189.294V81.8808H191.679V79.3848H192.897V85.7264H191.679V82.9536H189.294V85.7264H188.082Z" fill="#FEFEFE"/>
<path d="M194.154 85.7264V79.3848H195.312V83.6111L197.747 79.3848H198.964V85.7264H197.807V81.5909L195.377 85.7264H194.154Z" fill="#FEFEFE"/>
<path d="M205.047 85.7264V79.3848H202.487C201.832 79.3848 201.364 79.4424 201.084 79.5578C200.803 79.6703 200.573 79.8678 200.392 80.1504C200.212 80.4302 200.122 80.7661 200.122 81.1584C200.122 81.6544 200.259 82.0538 200.533 82.3566C200.81 82.6594 201.202 82.8498 201.71 82.9276C201.45 83.0891 201.234 83.2665 201.064 83.4597C200.893 83.65 200.661 83.9932 200.367 84.4893L199.636 85.7264H201.084L201.966 84.3465C202.283 83.8476 202.499 83.5361 202.612 83.4121C202.726 83.2852 202.846 83.1987 202.973 83.1526C203.1 83.1035 203.304 83.079 203.584 83.079H203.835V85.7264H205.047ZM203.835 82.0668H202.933C202.382 82.0668 202.031 82.0466 201.881 82.0062C201.73 81.963 201.608 81.8779 201.515 81.751C201.421 81.6241 201.374 81.4554 201.374 81.2449C201.374 81.043 201.421 80.8815 201.515 80.7604C201.608 80.6364 201.735 80.5513 201.896 80.5052C202.009 80.4734 202.338 80.4576 202.883 80.4576H203.835V82.0668Z" fill="#FEFEFE"/>
</svg>
