<svg width="110" height="72" viewBox="0 0 110 72" fill="none" xmlns="http://www.w3.org/2000/svg">
<path fill-rule="evenodd" clip-rule="evenodd" d="M54.5152 9.06213C50.6914 9.06213 47.5863 12.1301 47.5863 15.9082C47.5863 19.6863 50.6914 22.7542 54.5152 22.7542C58.339 22.7542 61.4441 19.6863 61.4441 15.9082C61.4441 12.1301 58.339 9.06213 54.5152 9.06213ZM54.5152 21.0782C51.6401 21.0782 49.3113 18.7773 49.3113 15.9366C49.3113 13.0959 51.6401 10.7949 54.5152 10.7949C57.3902 10.7949 59.719 13.0959 59.719 15.9366C59.719 18.7489 57.3902 21.0782 54.5152 21.0782Z" fill="#FFBD4A"/>
<path fill-rule="evenodd" clip-rule="evenodd" d="M64.6354 16.4195L63.8592 15.823L63.8017 14.8288L64.4917 14.147L65.2679 13.1812L64.7217 11.6188L63.5429 11.3347L62.5654 11.1927L62.0191 10.3689L62.2779 9.43147L62.4791 8.20997L61.2429 7.13051L60.0641 7.47139L59.1441 7.84068L58.2528 7.41458L57.9941 6.47715L57.5341 5.31248L55.8953 5L55.0615 5.88061L54.4577 6.6476L53.4515 6.70441L52.7615 6.02265L51.7839 5.25566L50.2027 5.79539L49.9152 6.96007L49.7714 7.9259L48.9376 8.46563L47.9889 8.20997L46.7526 8.01113L45.6601 9.26103L46.0051 10.4257L46.3788 11.3347L45.9476 12.2153L44.9988 12.471L43.82 12.9255L43.5038 14.5447L44.3951 15.3685L45.1713 15.965L45.2288 16.9593L44.5388 17.641L43.7625 18.6069L44.3088 20.1692L45.4876 20.4533L46.4651 20.5954L47.0113 21.4192L46.7526 22.3566L46.5513 23.5781L47.7876 24.6575L48.9664 24.3166L49.8864 23.9474L50.7777 24.3735L51.0364 25.3109L51.4964 26.4756L53.1352 26.788L53.969 25.9074L54.5727 25.1404L55.579 25.0836L56.269 25.7654L57.2465 26.5324L58.8278 25.9926L59.1153 24.828L59.2591 23.8621L60.0928 23.3224L61.0416 23.5781L62.2779 23.7769L63.3704 22.5554L63.0254 21.3907L62.6517 20.4817L63.0829 19.6011L64.0317 19.3455L65.2105 18.8909L65.5267 17.2718L64.6354 16.4195ZM54.5152 23.2088C50.4614 23.2088 47.1551 19.942 47.1551 15.9366C47.1551 11.9313 50.4614 8.66448 54.5152 8.66448C58.5691 8.66448 61.8754 11.9313 61.8754 15.9366C61.8754 19.942 58.5691 23.2088 54.5152 23.2088Z" fill="#FFBD4A"/>
<path fill-rule="evenodd" clip-rule="evenodd" d="M49.6852 38.094L48.9089 37.4975L48.8514 36.5317L49.5414 35.8499L50.3177 34.8841L49.8002 33.3501L48.6214 33.066L47.6439 32.924L47.0976 32.1002L47.3564 31.1912L47.5576 29.9697L46.3213 28.8902L45.1426 29.2311L44.2226 29.6004L43.3313 29.1743L43.0725 28.2653L42.6125 27.129L41.0025 26.8165L40.1687 27.6971L39.565 28.4641L38.5874 28.5209L37.8974 27.8392L36.9199 27.0722L35.3674 27.5835L35.0799 28.7482L34.9361 29.714L34.1024 30.2538L33.1823 29.9981L31.9461 29.7992L30.8536 31.0207L31.1986 32.1854L31.5723 33.0944L31.1411 33.9751L30.221 34.2307L29.071 34.6852L28.7548 36.276L29.646 37.0998L30.4223 37.6963L30.4798 38.6622L29.7898 39.3439L29.0135 40.3098L29.531 41.8437L30.7098 42.1278L31.6873 42.2699L32.2336 43.0936L31.9748 44.0027L31.7736 45.2242L33.0098 46.3036L34.1886 45.9627L35.1086 45.5934L35.9999 46.0195L36.2587 46.9286L36.7187 48.0648L38.3287 48.3773L39.1625 47.4967L39.7662 46.7297L40.7437 46.6729L41.4338 47.3547L42.4113 48.1217L43.9638 47.6103L44.2513 46.4457L44.3951 45.4798L45.2288 44.9401L46.1488 45.1958L47.3851 45.3946L48.4776 44.1731L48.1326 43.0084L47.7589 42.0994L48.1901 41.2188L49.1102 40.9631L50.2602 40.5086L50.5764 38.9178L49.6852 38.094ZM39.6225 44.8549C35.5974 44.8549 32.2911 41.6165 32.2911 37.6111C32.2911 33.6342 35.5686 30.3674 39.6225 30.3674C43.6475 30.3674 46.9539 33.6058 46.9539 37.6111C46.9539 41.5881 43.6763 44.8549 39.6225 44.8549ZM39.6225 30.7935C43.4175 30.7935 46.5226 33.833 46.5226 37.6111C46.5226 41.3608 43.4463 44.4288 39.6225 44.4288C35.8274 44.4288 32.7223 41.3892 32.7223 37.6111C32.7511 33.8614 35.8274 30.7935 39.6225 30.7935ZM39.6225 42.7244C36.7762 42.7244 34.4474 40.4234 34.4474 37.6111C34.4474 34.7989 36.7762 32.4979 39.6225 32.4979C42.4688 32.4979 44.7976 34.7989 44.7976 37.6111C44.7976 40.4234 42.4688 42.7244 39.6225 42.7244Z" fill="#FEFEFE"/>
<path fill-rule="evenodd" clip-rule="evenodd" d="M79.557 37.9519L78.7807 37.3554L78.7232 36.3896L79.4132 35.7078L80.1895 34.742L79.672 33.208L78.4932 32.9239L77.5157 32.7819L76.9694 31.9581L77.2282 31.0491L77.4295 29.8276L76.1932 28.7481L75.0144 29.089L74.0944 29.4583L73.2031 29.0322L72.9444 28.1232L72.4844 26.9869L70.8743 26.6744L70.0406 27.555L69.4368 28.322L68.4593 28.3788L67.7693 27.6971L66.7917 26.9301L65.2392 27.4414L64.9517 28.6061L64.808 29.5719L63.9742 30.1117L63.0542 29.856L61.8179 29.6572L60.7254 30.8786L61.0704 32.0433L61.4441 32.9523L61.0129 33.833L60.0929 34.0886L58.9428 34.5431L58.6266 36.1339L59.5178 36.9577L60.2941 37.5543L60.3516 38.5201L59.6616 39.2018L58.8853 40.1677L59.4028 41.7017L60.5816 41.9857L61.5591 42.1278L62.1054 42.9516L61.8466 43.8606L61.6454 45.0821L62.8817 46.1615L64.0604 45.8206L64.9805 45.4513L65.8717 45.8775L66.1305 46.7865L66.5905 47.9227L68.2005 48.2352L69.0343 47.3546L69.6381 46.5876L70.6156 46.5308L71.3056 47.2126L72.2831 47.9796L73.8356 47.4682L74.1231 46.3036L74.2669 45.3377L75.1007 44.798L76.0207 45.0537L77.2569 45.2525L78.3495 44.031L78.0045 42.8663L77.6307 41.9573L78.062 41.0767L78.982 40.821L80.132 40.3665L80.4483 38.7757L79.557 37.9519ZM69.4943 44.7128C65.4692 44.7128 62.1629 41.4744 62.1629 37.469C62.1629 33.4921 65.4405 30.2253 69.4943 30.2253C73.5194 30.2253 76.8257 33.4637 76.8257 37.469C76.8257 41.4744 73.5481 44.7128 69.4943 44.7128ZM69.4943 30.6798C73.2894 30.6798 76.3944 33.7193 76.3944 37.4974C76.3944 41.2471 73.3181 44.3151 69.4943 44.3151C65.6992 44.3151 62.5942 41.2755 62.5942 37.4974C62.6229 33.7193 65.6992 30.6798 69.4943 30.6798ZM69.4943 42.5823C66.648 42.5823 64.3192 40.2813 64.3192 37.469C64.3192 34.6568 66.648 32.3558 69.4943 32.3558C72.3406 32.3558 74.6694 34.6568 74.6694 37.469C74.6981 40.2813 72.3694 42.5823 69.4943 42.5823Z" fill="#FEFEFE"/>
<path d="M3 67.0805V54.1566H5.64106V59.2433H10.8161V54.1566H13.4572V67.0805H10.8161V61.4296H5.64106V67.0805H3Z" fill="#FEFEFE"/>
<path d="M19.6315 67.0805V61.6412L14.8401 54.1566H17.9362L21.0145 59.2697L24.0303 54.1566H27.0729L22.2636 61.6588V67.0805H19.6315Z" fill="#FEFEFE"/>
<path d="M28.3756 54.1566H33.2026C34.2912 54.1566 35.121 54.2388 35.692 54.4034C36.4593 54.6267 37.1166 55.0234 37.6639 55.5935C38.2111 56.1636 38.6275 56.863 38.913 57.6917C39.1985 58.5145 39.3413 59.5313 39.3413 60.742C39.3413 61.8057 39.2075 62.7226 38.9398 63.4925C38.6126 64.4328 38.1457 65.1939 37.5389 65.7758C37.0809 66.2166 36.4623 66.5604 35.6831 66.8072C35.1001 66.9894 34.3209 67.0805 33.3454 67.0805H28.3756V54.1566ZM31.0166 56.3429V64.903H32.9885C33.7261 64.903 34.2584 64.8619 34.5856 64.7796C35.0139 64.6738 35.3678 64.4946 35.6474 64.2418C35.9329 63.9891 36.1649 63.5748 36.3433 62.9988C36.5218 62.417 36.611 61.6265 36.611 60.6274C36.611 59.6282 36.5218 58.8613 36.3433 58.3264C36.1649 57.7916 35.9151 57.3743 35.5938 57.0746C35.2726 56.7748 34.8652 56.5721 34.3715 56.4663C34.0027 56.384 33.2799 56.3429 32.2033 56.3429H31.0166Z" fill="#FEFEFE"/>
<path d="M41.5987 67.0805V54.1566H47.1574C48.5552 54.1566 49.5694 54.2741 50.2 54.5092C50.8364 54.7384 51.345 55.1498 51.7257 55.7434C52.1064 56.337 52.2967 57.0158 52.2967 57.7799C52.2967 58.7496 52.0082 59.5518 51.4313 60.1866C50.8543 60.8154 49.9918 61.2121 48.8437 61.3767C49.4148 61.7058 49.8847 62.0673 50.2535 62.461C50.6282 62.8548 51.1309 63.5542 51.7614 64.5592L53.3585 67.0805H50.2L48.2905 64.2683C47.6124 63.2633 47.1485 62.6315 46.8986 62.3729C46.6488 62.1084 46.3841 61.9292 46.1045 61.8351C45.825 61.7352 45.3818 61.6853 44.7751 61.6853H44.2397V67.0805H41.5987ZM44.2397 59.6224H46.1938C47.4608 59.6224 48.2519 59.5695 48.5671 59.4637C48.8824 59.3579 49.1293 59.1757 49.3077 58.9171C49.4862 58.6585 49.5754 58.3352 49.5754 57.9474C49.5754 57.5124 49.4564 57.1627 49.2185 56.8983C48.9865 56.6279 48.6564 56.4575 48.2281 56.387C48.0139 56.3576 47.3715 56.3429 46.3008 56.3429H44.2397V59.6224Z" fill="#FEFEFE"/>
<path d="M54.2597 60.6979C54.2597 59.3814 54.459 58.2765 54.8575 57.3831C55.1549 56.7249 55.5594 56.1342 56.071 55.6112C56.5885 55.0881 57.1535 54.7002 57.7662 54.4475C58.5811 54.1066 59.521 53.9362 60.5857 53.9362C62.513 53.9362 64.0536 54.5268 65.2076 55.7081C66.3675 56.8895 66.9475 58.5321 66.9475 60.6362C66.9475 62.7226 66.3735 64.3564 65.2254 65.5378C64.0774 66.7132 62.5427 67.3009 60.6214 67.3009C58.6763 67.3009 57.1298 66.7161 55.9817 65.5466C54.8337 64.3711 54.2597 62.7549 54.2597 60.6979ZM56.981 60.6097C56.981 62.0731 57.3231 63.1839 58.0071 63.9421C58.6912 64.6944 59.5596 65.0705 60.6125 65.0705C61.6654 65.0705 62.5279 64.6973 63.2 63.9509C63.8781 63.1986 64.2172 62.0731 64.2172 60.5745C64.2172 59.0934 63.8871 57.9885 63.2268 57.2597C62.5725 56.5309 61.701 56.1666 60.6125 56.1666C59.524 56.1666 58.6466 56.5368 57.9804 57.2773C57.3142 58.012 56.981 59.1228 56.981 60.6097Z" fill="#FEFEFE"/>
<path d="M69.0264 67.0805V54.1566H74.5851C75.983 54.1566 76.9972 54.2741 77.6277 54.5092C78.2642 54.7384 78.7727 55.1498 79.1534 55.7434C79.5341 56.337 79.7245 57.0158 79.7245 57.7799C79.7245 58.7496 79.436 59.5518 78.859 60.1866C78.282 60.8154 77.4195 61.2121 76.2715 61.3767C76.8425 61.7058 77.3124 62.0673 77.6812 62.461C78.056 62.8548 78.5586 63.5542 79.1891 64.5592L80.7862 67.0805H77.6277L75.7183 64.2683C75.0402 63.2633 74.5762 62.6315 74.3264 62.3729C74.0765 62.1084 73.8118 61.9292 73.5323 61.8351C73.2527 61.7352 72.8095 61.6853 72.2028 61.6853H71.6675V67.0805H69.0264ZM71.6675 59.6224H73.6215C74.8885 59.6224 75.6796 59.5695 75.9949 59.4637C76.3101 59.3579 76.557 59.1757 76.7354 58.9171C76.9139 58.6585 77.0031 58.3352 77.0031 57.9474C77.0031 57.5124 76.8841 57.1627 76.6462 56.8983C76.4142 56.6279 76.0841 56.4575 75.6558 56.387C75.4417 56.3576 74.7992 56.3429 73.7286 56.3429H71.6675V59.6224Z" fill="#FEFEFE"/>
<path d="M82.2228 67.0805V54.1566H91.9215V56.3429H84.8638V59.208H91.4308V61.3855H84.8638V64.903H92.1713V67.0805H82.2228Z" fill="#FEFEFE"/>
<path d="M94.3752 67.0805V54.1566H98.3279L100.701 62.9724L103.048 54.1566H107.009V67.0805H104.556V56.9071L101.959 67.0805H99.4164L96.8289 56.9071V67.0805H94.3752Z" fill="#FEFEFE"/>
</svg>
