<svg width="32" height="32" viewBox="0 0 32 32" fill="none" xmlns="http://www.w3.org/2000/svg">
<path d="M18.1094 16C18.1094 17.1649 17.1649 18.1094 16 18.1094C14.8351 18.1094 13.8906 17.1649 13.8906 16C13.8906 14.8351 14.8351 13.8906 16 13.8906C17.1649 13.8906 18.1094 14.8351 18.1094 16Z" fill="#303030"/>
<path d="M19.5625 9.625H12.4375C10.8866 9.625 9.625 10.8866 9.625 12.4375V19.5625C9.625 21.1134 10.8866 22.375 12.4375 22.375H19.5625C21.1134 22.375 22.375 21.1134 22.375 19.5625V12.4375C22.375 10.8866 21.1134 9.625 19.5625 9.625ZM16 19.5156C14.0615 19.5156 12.4844 17.9385 12.4844 16C12.4844 14.0615 14.0615 12.4844 16 12.4844C17.9385 12.4844 19.5156 14.0615 19.5156 16C19.5156 17.9385 17.9385 19.5156 16 19.5156ZM20.0312 12.6719C19.6429 12.6719 19.3281 12.3571 19.3281 11.9688C19.3281 11.5804 19.6429 11.2656 20.0312 11.2656C20.4196 11.2656 20.7344 11.5804 20.7344 11.9688C20.7344 12.3571 20.4196 12.6719 20.0312 12.6719Z" fill="#303030"/>
<path d="M21.6719 4H10.3281C6.83887 4 4 6.83887 4 10.3281V21.6719C4 25.1611 6.83887 28 10.3281 28H21.6719C25.1611 28 28 25.1611 28 21.6719V10.3281C28 6.83887 25.1611 4 21.6719 4ZM23.7812 19.5625C23.7812 21.8887 21.8887 23.7812 19.5625 23.7812H12.4375C10.1113 23.7812 8.21875 21.8887 8.21875 19.5625V12.4375C8.21875 10.1113 10.1113 8.21875 12.4375 8.21875H19.5625C21.8887 8.21875 23.7812 10.1113 23.7812 12.4375V19.5625Z" fill="#303030"/>
</svg>
