<svg width="32" height="32" viewBox="0 0 32 32" fill="none" xmlns="http://www.w3.org/2000/svg">
<path d="M19.5921 9.54966C17.2086 9.09624 14.7914 9.09624 12.4074 9.54966C11.3647 9.78191 10.0528 11.039 9.79637 12.0501C9.3698 14.0065 9.3698 15.9898 9.79637 17.9462C10.0528 18.9573 11.3647 20.2144 12.4074 20.4466C12.4076 20.4467 12.4079 20.4467 12.4082 20.4468C12.4546 20.4559 12.4885 20.4961 12.4885 20.5435V23.4095C12.4885 23.5527 12.6633 23.6233 12.7629 23.5195L14.1239 22.1227C14.1241 22.1225 14.124 22.1226 14.1242 22.1224C14.1297 22.1167 15.2095 21.0083 15.404 20.8086C15.4231 20.789 15.4494 20.7784 15.4767 20.7791C16.8512 20.8172 18.2271 20.7062 19.5921 20.4467C20.6349 20.2144 21.9472 18.9574 22.2032 17.9462C22.6303 15.9898 22.6303 14.0066 22.2032 12.0501C21.9472 11.039 20.6354 9.78191 19.5921 9.54966ZM19.6285 18.0921C19.4199 18.5349 19.1165 18.9033 18.6788 19.1384C18.4309 19.2716 18.1181 19.2445 17.8548 19.1453C17.8408 19.14 17.827 19.1346 17.8133 19.1289C16.3432 18.519 14.9902 17.7321 13.9184 16.5258C13.309 15.8399 12.8319 15.0655 12.4287 14.246C12.2375 13.8573 12.0763 13.4534 11.9121 13.0522C11.7623 12.6863 11.9829 12.3083 12.2152 12.0326C12.4332 11.7739 12.7137 11.5759 13.0174 11.4299C13.2545 11.316 13.4884 11.3817 13.6615 11.5827C14.0359 12.0171 14.3797 12.4738 14.6581 12.9774C14.8293 13.2872 14.7824 13.6658 14.4721 13.8766C14.3967 13.9279 14.3279 13.988 14.2577 14.0459C14.1961 14.0966 14.1381 14.1479 14.0958 14.2165C14.0186 14.3421 14.015 14.4904 14.0647 14.627C14.4473 15.6785 15.0923 16.4962 16.1507 16.9367C16.3201 17.0071 16.4902 17.0892 16.6853 17.0664C17.012 17.0282 17.1178 16.6698 17.3468 16.4825C17.5706 16.2995 17.8566 16.2971 18.0977 16.4497C18.3389 16.6023 18.5726 16.7661 18.805 16.9317C19.0331 17.0942 19.2602 17.2532 19.4705 17.4385C19.6727 17.6166 19.7424 17.8503 19.6285 18.0921ZM17.7303 14.6654C17.639 14.6671 17.6749 14.6653 17.7096 14.6643C17.5625 14.6591 17.4825 14.5725 17.4667 14.4318C17.4552 14.3289 17.4461 14.2247 17.4215 14.1246C17.3732 13.9276 17.2685 13.7449 17.1027 13.6242C17.0245 13.5671 16.9358 13.5255 16.8429 13.4988C16.7249 13.4647 16.6023 13.4741 16.4846 13.4452C16.3567 13.4139 16.286 13.3104 16.306 13.1904C16.3243 13.0812 16.4305 12.996 16.5498 13.0046C17.2954 13.0585 17.8282 13.4439 17.9043 14.3216C17.9096 14.3836 17.9159 14.449 17.9022 14.5082C17.8817 14.5965 17.8221 14.646 17.7588 14.6607C17.7572 14.661 17.7319 14.6653 17.7303 14.6654ZM17.2667 12.658C17.038 12.546 16.7905 12.4763 16.5398 12.4348C16.4302 12.4167 16.3194 12.4057 16.2093 12.3904C16.0759 12.3719 16.0047 12.2868 16.0109 12.1553C16.0168 12.0321 16.1069 11.9434 16.2412 11.951C16.6825 11.9761 17.1087 12.0715 17.5011 12.2792C18.2989 12.7017 18.7547 13.3687 18.8877 14.2592C18.8937 14.2995 18.9034 14.3395 18.9064 14.38C18.9112 14.4429 18.9148 14.506 18.9188 14.5769C18.9238 14.6667 18.9304 14.7586 18.9075 14.8455C18.8565 15.0386 18.5638 15.0628 18.4964 14.8679C18.4764 14.8101 18.4734 14.7443 18.4733 14.6821C18.4726 14.2748 18.3841 13.8679 18.1787 13.5135C17.9676 13.1494 17.645 12.8432 17.2667 12.658ZM19.732 15.4102C19.5778 15.412 19.5085 15.283 19.4985 15.1448C19.4787 14.8712 19.465 14.5963 19.4272 14.325C19.2281 12.8925 18.0859 11.7074 16.6601 11.4531C16.4456 11.4148 16.2259 11.4047 16.0086 11.3819C15.8712 11.3675 15.6913 11.3592 15.6608 11.1884C15.6353 11.0452 15.7561 10.9312 15.8925 10.9238C15.9296 10.9218 15.9668 10.9235 16.0041 10.9237C17.8507 10.9755 16.1168 10.9277 16.009 10.9239C17.9297 10.9799 19.5067 12.2554 19.8449 14.1549C19.9026 14.4788 19.9231 14.81 19.9488 15.1388C19.9595 15.277 19.8812 15.4084 19.732 15.4102Z" fill="#303030"/>
<path d="M10 4C6.68629 4 4 6.68629 4 10V22C4 25.3137 6.68629 28 10 28H22C25.3137 28 28 25.3137 28 22V10C28 6.68629 25.3137 4 22 4H10ZM23.5903 18.26L23.5856 18.279C23.2022 19.8289 21.4738 21.492 19.8865 21.8379L19.8686 21.8416C18.5852 22.0865 17.2924 22.2087 16 22.2087C15.2753 22.2087 14.5701 22.476 14.0677 22.9982L13.1062 23.9976C12.6723 24.4495 11.9092 24.1419 11.9092 23.5158C11.9092 22.4918 11.2 21.6094 10.3814 20.9942C9.43824 20.2855 8.65692 19.2597 8.41397 18.279L8.40976 18.26C7.9358 16.0956 7.9358 13.9006 8.40976 11.7361L8.41397 11.7172C8.79788 10.1673 10.5263 8.50424 12.113 8.15824L12.1314 8.15456C14.6982 7.66479 17.3013 7.66479 19.8686 8.15456L19.8865 8.15824C21.4738 8.50424 23.2022 10.1673 23.5856 11.7172L23.5903 11.7361C24.0643 13.9006 24.0643 16.0956 23.5903 18.26Z" fill="#303030"/>
</svg>
