<svg width="32" height="32" viewBox="0 0 32 32" fill="none" xmlns="http://www.w3.org/2000/svg">
<rect x="4" y="4" width="24" height="24" rx="6" fill="#303030"/>
<path d="M23.0561 20.9955C22.7637 21.8212 21.603 22.5061 20.6773 22.7061C20.044 22.8409 19.2167 22.9485 16.4318 21.7939C12.8697 20.3182 10.5758 16.6985 10.397 16.4636C10.2258 16.2288 8.9576 14.547 8.9576 12.8076C8.9576 11.0682 9.84093 10.2212 10.197 9.85758C10.4894 9.55909 10.9727 9.42273 11.4364 9.42273C11.5864 9.42273 11.7212 9.43031 11.8424 9.43637C12.1985 9.45152 12.3773 9.47273 12.6121 10.0349C12.9046 10.7394 13.6167 12.4788 13.7015 12.6576C13.7879 12.8364 13.8743 13.0788 13.7531 13.3136C13.6394 13.5561 13.5394 13.6636 13.3606 13.8697C13.1818 14.0758 13.0121 14.2333 12.8334 14.4545C12.6697 14.647 12.4849 14.853 12.6909 15.2091C12.897 15.5576 13.6091 16.7197 14.6576 17.653C16.0106 18.8576 17.1076 19.2424 17.5 19.4061C17.7924 19.5273 18.1409 19.4985 18.3546 19.2712C18.6258 18.9788 18.9606 18.4939 19.3015 18.0167C19.544 17.6742 19.85 17.6318 20.1712 17.753C20.4985 17.8667 22.2303 18.7227 22.5864 18.9C22.9424 19.0788 23.1773 19.1636 23.2637 19.3136C23.3485 19.4636 23.3485 20.1682 23.0561 20.9955Z" fill="#FEFEFE"/>
</svg>
