<svg width="350" height="280" viewBox="0 0 350 280" fill="none" xmlns="http://www.w3.org/2000/svg">
<path d="M181.865 73.4293C169.302 61.9787 153.944 54.0518 137.344 50.449L136.716 53.3765C152.796 56.8549 167.676 64.5234 179.851 75.6075L181.865 73.4293Z" fill="#383838"/>
<path d="M210.15 135.716C210.459 138.853 210.619 142.051 210.619 145.198C210.611 158.469 207.825 171.59 202.441 183.715L205.174 184.944C212.097 169.414 214.848 152.34 213.152 135.416L210.15 135.716Z" fill="#383838"/>
<path d="M179.233 215.368C174.406 219.695 169.149 223.515 163.544 226.768L165.03 229.366C170.822 226.022 176.256 222.091 181.247 217.636C188.888 210.829 195.402 202.85 200.546 193.996L197.963 192.488C192.967 201.059 186.645 208.782 179.233 215.368V215.368Z" fill="#383838"/>
<path d="M23.0789 145.268C23.0922 131.948 25.906 118.779 31.3369 106.621L28.6142 105.392C23.0037 117.935 20.098 131.523 20.0869 145.268C20.0869 148.475 20.2465 151.712 20.5557 154.9L23.5477 154.6C23.2285 151.513 23.0789 148.375 23.0789 145.268Z" fill="#383838"/>
<path d="M208.654 126.004L211.586 125.395C208.117 108.8 200.362 93.4066 189.096 80.753L188.997 80.6331L186.763 82.6314L186.862 82.7413C197.779 95.0044 205.293 109.922 208.654 126.004V126.004Z" fill="#383838"/>
<path d="M25.0138 164.322L22.0916 164.931C25.5388 181.583 33.3025 197.031 44.6016 209.723L44.801 209.953L47.0351 207.954L46.8555 207.785C35.892 195.469 28.3589 180.479 25.0138 164.322V164.322Z" fill="#383838"/>
<path d="M249.246 61.1298C249.736 61.6656 250.394 62.018 251.111 62.129L250.184 92.1034H251.181L252.108 62.129C252.833 62.0118 253.494 61.6459 253.978 61.094C254.463 60.5422 254.741 59.8386 254.764 59.104C254.788 58.3694 254.556 57.6494 254.108 57.0674C253.659 56.4855 253.023 56.0778 252.308 55.9143L253.235 25.7601H252.238L251.311 55.9143C250.728 55.9701 250.173 56.1865 249.706 56.5396C249.24 56.8926 248.88 57.3684 248.667 57.9141C248.454 58.4598 248.396 59.0539 248.5 59.6304C248.604 60.207 248.866 60.7433 249.256 61.1798L249.246 61.1298ZM252.168 60.2506C252.298 60.1945 252.418 60.1205 252.527 60.0308C252.796 59.7909 252.958 59.4541 252.979 59.0944C252.999 58.7346 252.876 58.3814 252.637 58.1124C252.525 57.987 252.39 57.8851 252.238 57.8127V56.9434C252.622 57.052 252.968 57.2667 253.235 57.5629C253.62 57.9956 253.817 58.5633 253.784 59.1415C253.769 59.4289 253.697 59.7105 253.572 59.9696C253.447 60.2287 253.271 60.4601 253.056 60.6503C252.788 60.8794 252.47 61.0435 252.128 61.1298L252.168 60.2506ZM250.174 57.393C250.496 57.1224 250.892 56.9553 251.311 56.9134V57.7727C251.115 57.8234 250.934 57.9192 250.782 58.0525C250.513 58.2923 250.351 58.6291 250.331 58.9889C250.31 59.3486 250.433 59.7019 250.672 59.9708C250.824 60.1369 251.017 60.2608 251.231 60.3305V61.1898C250.727 61.0788 250.28 60.7914 249.969 60.3793C249.658 59.9671 249.504 59.4573 249.535 58.9417C249.531 58.6537 249.585 58.3677 249.695 58.1015C249.805 57.8352 249.968 57.5941 250.174 57.393V57.393Z" fill="#383838"/>
<path d="M348.232 121.858L316.736 149.384C316.568 149.267 316.372 149.198 316.169 149.184C315.965 149.17 315.761 149.212 315.579 149.304L286.656 116.822C286.681 116.661 286.671 116.496 286.626 116.339C286.581 116.182 286.503 116.037 286.397 115.913C286.196 115.689 285.915 115.552 285.614 115.534C285.314 115.515 285.018 115.615 284.791 115.813C284.698 115.903 284.62 116.007 284.562 116.123L259.858 115.004C259.786 114.246 259.444 113.54 258.895 113.015C258.345 112.49 257.624 112.181 256.866 112.146C256.026 112.099 255.201 112.387 254.572 112.946C254.052 113.411 253.701 114.037 253.574 114.724L227.643 113.555C226.059 107.997 224.059 102.566 221.659 97.3089L222.856 98.6078L223.594 97.9284L220.393 94.3315C215.738 84.8632 209.82 76.0733 202.8 68.2038C201.334 66.5652 199.808 64.9765 198.302 63.4379L217.879 45.9228C218.044 45.9531 218.212 45.9454 218.373 45.9004C218.534 45.8553 218.682 45.7742 218.807 45.663C218.918 45.5642 219.009 45.4444 219.073 45.3104C219.138 45.1764 219.175 45.031 219.184 44.8824C219.192 44.7339 219.171 44.5851 219.122 44.4447C219.073 44.3043 218.996 44.1751 218.897 44.0644C218.787 43.9413 218.651 43.8442 218.5 43.7802C218.348 43.7163 218.184 43.6871 218.019 43.6947L204.435 28.5577C204.812 27.9735 204.986 27.2815 204.931 26.5884C204.876 25.8953 204.594 25.2397 204.13 24.7226C203.666 24.2055 203.045 23.8557 202.363 23.7272C201.681 23.5987 200.976 23.6986 200.356 24.0116L186.802 8.95442C186.895 8.71851 186.905 8.45828 186.832 8.2156C186.759 7.97293 186.607 7.76193 186.4 7.61658C186.192 7.47123 185.942 7.39997 185.69 7.41429C185.437 7.4286 185.197 7.52765 185.007 7.6955C184.834 7.85335 184.718 8.06418 184.678 8.29498L135.978 5.29755L135.918 6.29669L184.937 9.29413C185.078 9.44593 185.258 9.55538 185.457 9.61011C185.656 9.66485 185.866 9.66268 186.064 9.60387L199.508 24.5911C199.074 25.0231 198.774 25.5717 198.645 26.1708C198.515 26.7698 198.561 27.3936 198.777 27.9671C198.993 28.5406 199.37 29.0392 199.863 29.4028C200.355 29.7664 200.942 29.9795 201.553 30.0164H201.743C202.47 30.0129 203.174 29.7589 203.737 29.297L217.131 44.2243C217.018 44.388 216.951 44.5799 216.939 44.779C216.926 44.9781 216.969 45.1768 217.062 45.3533L197.584 62.7385C181.149 46.5746 160.278 35.6869 137.635 31.4671C114.993 27.2473 91.6094 29.8869 70.4724 39.0487L55.5123 22.2431L55.1433 22.5728L69.9937 39.2685C58.9187 44.1373 48.6797 50.7261 39.6546 58.7918C33.1124 64.6313 27.2477 71.1904 22.1712 78.3451L9.10599 63.6577L8.73697 63.9974L21.9218 78.7648C9.78256 96.1161 2.63125 116.473 1.24753 137.617C-0.136195 158.76 4.30079 179.878 14.0748 198.669C23.8487 217.46 38.5845 233.202 56.6756 244.179C74.7667 255.155 95.5187 260.946 116.669 260.919C122.768 260.919 128.857 260.438 134.881 259.48C135.009 259.76 135.177 260.019 135.379 260.25C135.654 260.564 135.989 260.819 136.364 261.001C136.739 261.183 137.147 261.288 137.564 261.309H137.753C138.359 261.308 138.951 261.131 139.459 260.799L153.561 276.656C153.535 276.817 153.544 276.982 153.589 277.139C153.634 277.296 153.713 277.442 153.82 277.565C154.01 277.774 154.27 277.904 154.551 277.93C154.832 277.956 155.112 277.876 155.336 277.705L177.657 279.273L177.727 278.274L155.785 276.726C155.78 276.537 155.727 276.353 155.63 276.192C155.533 276.03 155.396 275.896 155.233 275.804C155.069 275.711 154.884 275.663 154.696 275.663C154.507 275.664 154.323 275.713 154.159 275.806L140.197 260.12C140.614 259.612 140.865 258.987 140.915 258.331C156.273 255.005 170.794 248.58 183.592 239.447C196.39 230.314 207.197 218.665 215.353 205.21C223.51 191.756 228.845 176.778 231.033 161.19C233.222 145.602 232.218 129.731 228.082 114.544L253.664 115.703C253.757 116.445 254.108 117.13 254.655 117.638C255.202 118.146 255.911 118.444 256.656 118.481H256.836C257.56 118.487 258.264 118.241 258.827 117.786C259.391 117.33 259.78 116.693 259.927 115.983L284.651 117.102C284.696 117.211 284.756 117.312 284.831 117.402C284.997 117.589 285.222 117.714 285.469 117.756C285.716 117.798 285.969 117.754 286.187 117.632L315.11 150.124C315.083 150.285 315.093 150.45 315.137 150.608C315.182 150.765 315.262 150.91 315.37 151.033C315.469 151.145 315.59 151.235 315.724 151.3C315.859 151.365 316.005 151.403 316.154 151.411C316.303 151.42 316.452 151.398 316.593 151.349C316.734 151.299 316.864 151.223 316.975 151.123C317.094 151.014 317.187 150.881 317.249 150.733C317.311 150.585 317.34 150.424 317.334 150.264L349 122.587L348.232 121.858ZM201.623 29.0273C201.208 29.0027 200.808 28.8594 200.472 28.6143C200.136 28.3693 199.877 28.0328 199.726 27.6448C199.575 27.2567 199.538 26.8334 199.619 26.425C199.701 26.0165 199.898 25.6402 200.187 25.3404L200.745 25.9599C200.498 26.2003 200.354 26.5268 200.341 26.8715C200.329 27.2161 200.45 27.5522 200.679 27.8098C200.907 28.0674 201.227 28.2267 201.57 28.2543C201.913 28.2819 202.253 28.1758 202.52 27.9582L203.079 28.5876C202.659 28.9057 202.138 29.0617 201.613 29.0273H201.623ZM203.717 27.7783L203.069 27.0589C203.108 26.8612 203.1 26.6571 203.046 26.4629C202.992 26.2687 202.894 26.0896 202.76 25.9399C202.624 25.7893 202.455 25.6721 202.266 25.5976C202.078 25.5231 201.875 25.4932 201.673 25.5103L201.024 24.7909C201.43 24.6443 201.87 24.6231 202.288 24.73C202.706 24.8368 203.082 25.0669 203.368 25.3904C203.651 25.712 203.834 26.1093 203.894 26.5336C203.954 26.9579 203.889 27.3905 203.707 27.7783H203.717ZM201.314 69.5326C206.535 75.4042 211.144 81.7954 215.067 88.6063L195.25 67.2546C195.35 67.0833 195.402 66.8885 195.402 66.6901C195.402 66.4917 195.35 66.2969 195.25 66.1256L196.766 64.7667C198.342 66.3054 199.848 67.904 201.304 69.5326H201.314ZM137.544 260.31C137.259 260.295 136.98 260.224 136.723 260.101C136.466 259.977 136.237 259.804 136.048 259.59V259.59C135.969 259.5 135.899 259.403 135.838 259.3L136.786 259.141C136.965 259.302 137.185 259.413 137.422 259.46C137.659 259.508 137.904 259.491 138.132 259.41L138.701 260.05C138.346 260.241 137.946 260.331 137.544 260.31V260.31ZM135.659 257.312C135.721 257.162 135.798 257.018 135.888 256.883L136.187 257.222L135.659 257.312ZM136.656 256.223C136.961 256.052 137.304 255.959 137.653 255.953C137.951 255.954 138.245 256.016 138.517 256.134C138.79 256.253 139.036 256.426 139.239 256.643L138.102 256.863C137.809 256.757 137.488 256.757 137.195 256.863L136.656 256.223ZM139.469 259.38L138.91 258.751L139.818 258.571C139.752 258.863 139.626 259.139 139.449 259.38H139.469ZM229.907 151.762C228.482 176.627 218.947 200.334 202.767 219.242C186.587 238.151 164.656 251.213 140.346 256.423C140.266 256.276 140.169 256.138 140.057 256.013C139.555 255.451 138.869 255.087 138.124 254.987C137.378 254.886 136.62 255.055 135.988 255.464L123.94 241.915C135.007 241.134 145.853 238.429 155.994 233.922L154.788 231.184C142.854 236.482 129.941 239.205 116.889 239.178V239.178C113.527 239.178 110.168 238.998 106.826 238.638L106.506 241.636C109.955 242.007 113.42 242.194 116.889 242.195V242.195C118.824 242.195 120.738 242.135 122.653 242.025L135.22 256.153C134.892 256.543 134.669 257.011 134.572 257.512C119.152 259.974 103.393 259.247 88.265 255.374L89.741 238.288C91.9751 238.955 94.2324 239.531 96.513 240.017L97.1413 237.079C94.7278 236.57 92.3541 235.94 90.0004 235.241L90.4591 229.926C91.1977 229.905 91.9047 229.621 92.4538 229.126C92.7649 228.849 93.0184 228.513 93.1998 228.137C93.3812 227.761 93.4869 227.354 93.511 226.937C93.5351 226.52 93.477 226.103 93.3401 225.709C93.2032 225.315 92.9902 224.952 92.7131 224.64C92.2671 224.131 91.6689 223.781 91.0077 223.641L91.7856 214.579L90.7883 214.489L90.0103 223.591C89.3438 223.651 88.7143 223.924 88.2151 224.37C87.5883 224.932 87.2098 225.72 87.1631 226.562C87.1163 227.403 87.4051 228.228 87.9658 228.856C88.362 229.327 88.8847 229.674 89.4718 229.856L89.0329 234.981C76.0339 230.958 64.0693 224.138 53.9764 214.998L51.9817 217.216C62.5553 226.776 75.1094 233.873 88.7437 237.999L87.2776 255.094C69.6655 250.387 53.443 241.502 39.9806 229.191C26.5182 216.879 16.2114 201.503 9.93101 184.36C3.65059 167.217 1.58105 148.811 3.89723 130.698C6.2134 112.585 12.8472 95.2968 23.2383 80.2934L34.987 93.5121C34.3986 94.4513 33.8101 95.4005 33.2516 96.3697L35.8846 97.8784C36.2835 97.199 36.7024 96.5196 37.1213 95.8801L44.1027 103.723C43.6355 104.143 43.3024 104.691 43.1453 105.299C42.9882 105.908 43.0141 106.549 43.2198 107.143C43.4255 107.736 43.8018 108.256 44.3014 108.636C44.8009 109.016 45.4015 109.24 46.0276 109.279H46.2171C46.995 109.283 47.7461 108.994 48.3215 108.469L68.1985 130.85L68.5675 130.521L48.6207 108.08C49.0958 107.496 49.3474 106.761 49.3304 106.007C49.3134 105.254 49.0289 104.532 48.5279 103.969C48.0269 103.407 47.3423 103.043 46.5971 102.941C45.8518 102.839 45.0947 103.007 44.4617 103.414L37.3507 95.4205C45.5712 82.2882 56.8871 71.3807 70.3029 63.6577L68.7969 61.0599C55.2104 68.8605 43.7017 79.828 35.2463 93.0326L23.5375 79.8938C28.5865 72.7111 34.439 66.1306 40.981 60.2806C50.0127 52.2123 60.2756 45.6447 71.38 40.8272L83.3481 54.2757C81.503 54.9551 79.6779 55.6845 77.8727 56.4838L79.0795 59.2314C80.8049 58.4621 82.5502 57.7627 84.3155 57.1133C83.9413 57.7799 83.8204 58.5596 83.9753 59.3085C84.1302 60.0574 84.5503 60.7248 85.1581 61.1876C85.7659 61.6503 86.5203 61.8772 87.2821 61.8261C88.0438 61.7751 88.7613 61.4497 89.3022 60.91C89.688 60.5702 89.9799 60.1367 90.15 59.6511L122.653 72.5001L122.833 72.0305L90.2297 59.1715C90.3297 58.6883 90.3159 58.1885 90.1896 57.7116C90.0632 57.2346 89.8277 56.7937 89.5017 56.4238C89.2239 56.1058 88.8846 55.8475 88.5043 55.6645C97.6638 52.7501 107.218 51.2739 116.829 51.2882C120.241 51.29 123.65 51.4768 127.042 51.8478L127.361 48.8503C123.863 48.4675 120.347 48.274 116.829 48.2708V48.2708C105.585 48.2577 94.425 50.219 83.8567 54.0659L71.8886 40.5974C92.5918 31.7843 115.436 29.3102 137.541 33.487C159.646 37.6639 180.021 48.3046 196.098 64.0673L194.462 65.5361C194.303 65.5133 194.142 65.5257 193.988 65.5723C193.835 65.619 193.694 65.6986 193.574 65.8058C193.381 65.955 193.242 66.1635 193.178 66.3994C193.114 66.6354 193.129 66.8857 193.221 67.1123C193.312 67.3389 193.475 67.5291 193.685 67.6541C193.895 67.779 194.14 67.8317 194.382 67.8041L217.082 92.2632C226.7 110.55 231.13 131.129 229.887 151.762H229.907ZM89.2823 227.697C89.3784 227.795 89.4895 227.876 89.6114 227.937L89.5316 228.827C89.2066 228.699 88.9138 228.501 88.6739 228.247C88.4153 227.96 88.2378 227.61 88.1598 227.232C88.0818 226.853 88.1061 226.461 88.2302 226.095C88.3542 225.73 88.5736 225.404 88.8655 225.151C89.1574 224.899 89.5113 224.729 89.8906 224.66L89.8109 225.529C89.6567 225.585 89.5146 225.67 89.392 225.779C89.1367 226.019 88.9838 226.348 88.9652 226.698C88.9466 227.048 89.0638 227.392 89.2922 227.658L89.2823 227.697ZM91.277 225.889C91.138 225.738 90.9678 225.618 90.7783 225.539L90.8481 224.69C91.2357 224.806 91.5819 225.032 91.8454 225.339C92.116 225.638 92.2982 226.006 92.3714 226.403C92.4447 226.799 92.4061 227.208 92.26 227.584C92.1139 227.96 91.8661 228.287 91.5444 228.53C91.2228 228.772 90.84 228.92 90.4392 228.956L90.519 228.107C90.744 228.061 90.9534 227.958 91.1274 227.807C91.2726 227.695 91.3935 227.554 91.4827 227.393C91.5719 227.232 91.6275 227.054 91.6461 226.871C91.6648 226.688 91.6461 226.503 91.5912 226.327C91.5363 226.152 91.4464 225.989 91.3268 225.849L91.277 225.889ZM47.1745 105.162C46.9952 104.957 46.7579 104.812 46.4941 104.746C46.2304 104.68 45.9528 104.696 45.6984 104.793L45.13 104.153C45.4367 103.986 45.7783 103.894 46.1273 103.883C46.527 103.881 46.9195 103.99 47.2617 104.197C47.6039 104.403 47.8825 104.701 48.067 105.056C48.2515 105.411 48.3347 105.81 48.3075 106.21C48.2802 106.609 48.1436 106.994 47.9125 107.32L47.3441 106.681C47.4711 106.44 47.5228 106.166 47.4926 105.895C47.4624 105.625 47.3515 105.369 47.1745 105.162V105.162ZM45.2596 105.052C45.0457 105.303 44.9305 105.624 44.9353 105.954C44.9401 106.284 45.0647 106.601 45.2858 106.846C45.5069 107.091 45.8094 107.247 46.1368 107.284C46.4642 107.322 46.7941 107.239 47.0648 107.051V107.051L47.6133 107.66C47.4 107.851 47.1512 107.997 46.8812 108.091C46.6113 108.185 46.3255 108.225 46.0402 108.208C45.7549 108.191 45.4757 108.119 45.2185 107.994C44.9614 107.869 44.7313 107.694 44.5415 107.48V107.48C44.1611 107.045 43.9644 106.479 43.993 105.902C44.0299 105.326 44.2914 104.787 44.7211 104.403L45.2596 105.052ZM86.2304 57.5229C86.0165 57.7741 85.9012 58.0946 85.9061 58.4247C85.9109 58.7548 86.0355 59.0718 86.2566 59.3166C86.4777 59.5614 86.7802 59.7171 87.1076 59.7548C87.435 59.7924 87.7649 59.7094 88.0356 59.5212C88.2018 59.3612 88.3253 59.1619 88.3946 58.9417L89.1726 59.2414C89.0481 59.5797 88.8466 59.8841 88.5841 60.1307C88.1522 60.5156 87.5855 60.7132 87.0083 60.6802C86.4378 60.6466 85.903 60.3903 85.5189 59.9663C85.1348 59.5423 84.9319 58.9843 84.9538 58.4121C84.9907 57.8362 85.2522 57.2979 85.6819 56.9134V56.9134L86.2304 57.5229ZM86.1007 56.6237C86.4066 56.4544 86.7488 56.3619 87.0981 56.3539H87.2277C87.795 56.3974 88.3223 56.663 88.6956 57.093C89.0689 57.5231 89.2582 58.0831 89.2224 58.6519C89.228 58.6951 89.228 58.7387 89.2224 58.7818L88.4146 58.4621C88.4075 58.2496 88.3501 58.0419 88.2469 57.8561C88.1438 57.6703 87.998 57.5118 87.8216 57.3936C87.6452 57.2755 87.4432 57.2011 87.2324 57.1767C87.0216 57.1522 86.8081 57.1785 86.6094 57.2531L86.1007 56.6237ZM258.182 116.952C257.969 117.143 257.72 117.289 257.45 117.383C257.18 117.477 256.894 117.517 256.609 117.5C256.324 117.483 256.044 117.411 255.787 117.286C255.53 117.161 255.3 116.986 255.11 116.772C254.861 116.488 254.689 116.144 254.612 115.773H255.469C255.529 115.926 255.613 116.067 255.719 116.193C255.96 116.462 256.298 116.625 256.658 116.646C257.019 116.666 257.373 116.543 257.644 116.303C257.772 116.184 257.877 116.041 257.953 115.883H258.81C258.71 116.294 258.492 116.665 258.182 116.952V116.952ZM258.032 114.954C257.973 114.767 257.879 114.594 257.753 114.444C257.512 114.175 257.174 114.012 256.813 113.991C256.453 113.971 256.098 114.094 255.828 114.334C255.675 114.473 255.558 114.648 255.489 114.844H254.632C254.734 114.425 254.964 114.048 255.29 113.765C255.503 113.573 255.752 113.425 256.022 113.331C256.293 113.237 256.58 113.197 256.866 113.215C257.151 113.23 257.43 113.303 257.687 113.428C257.944 113.553 258.174 113.729 258.362 113.945C258.63 114.254 258.81 114.63 258.88 115.034L258.032 114.954Z" fill="#383838"/>
<path d="M177.098 159.726L175.582 159.416L176.141 156.418C176.518 154.493 176.791 152.548 176.959 150.593L177.168 147.776H178.913C180.989 147.56 183.045 147.193 185.067 146.677L189.495 145.578L189.276 141.081C189.136 138.504 188.867 136.535 188.617 136.485C185.14 135.873 181.616 135.566 178.086 135.566L176.49 135.816L175.931 133.028C175.54 131.113 175.051 129.219 174.465 127.353C174.131 126.373 173.862 125.371 173.657 124.356C173.727 124.286 174.475 123.986 175.313 123.636C176.913 122.856 178.43 121.915 179.841 120.829C181.467 119.61 183.092 118.441 183.441 118.201C183.97 117.861 183.93 117.532 183.172 115.763C182.703 114.644 181.786 112.766 181.177 111.617L180.05 109.508L175.622 110.737C173.614 111.248 171.658 111.944 169.778 112.816L168.381 113.645L166.586 111.047C165.589 109.608 164.332 107.87 163.764 107.23C163.195 106.591 162.397 105.582 161.988 105.082L161.25 104.153L162.677 102.834C164.083 101.338 165.281 99.6571 166.237 97.8384L168.352 94.1915L164.961 91.0942L161.6 88.0068L158.388 90.4447C156.723 91.6791 155.174 93.0637 153.76 94.5812L152.334 96.2298L149.582 94.4513C148.105 93.4522 145.891 92.1933 144.685 91.5938C143.478 90.9943 142.411 90.4148 142.341 90.3548C142.405 89.7443 142.592 89.153 142.889 88.6163C143.56 86.6722 144.024 84.6629 144.276 82.6214L144.974 78.1852L143.278 77.5458C139.838 76.1969 136.457 75.2877 136.177 75.5475C134.269 78.4935 132.658 81.623 131.37 84.8895L131.051 86.4082L128.059 85.8487C126.138 85.4671 124.196 85.1936 122.244 85.0294L119.432 84.8196V83.0711C119.197 80.9873 118.81 78.9236 118.275 76.8963L117.178 72.4501L112.69 72.6699C110.117 72.8098 108.162 73.0796 108.102 73.3294C107.498 76.8172 107.195 80.3505 107.195 83.8904L107.444 85.499L104.661 86.0485C102.749 86.4419 100.859 86.9321 98.9964 87.5172C98.0195 87.8552 97.0195 88.1224 96.0044 88.3166C95.7311 87.7811 95.488 87.2307 95.2763 86.668C94.498 85.0616 93.559 83.5384 92.4738 82.1219C91.257 80.4933 90.0801 78.8647 89.8408 78.5149C89.5017 77.9954 89.1726 78.0254 87.4172 78.7847C86.2902 79.2543 84.4252 80.1735 83.2683 80.783L81.2038 81.8921L82.4305 86.3283C82.9382 88.3418 83.6362 90.3023 84.515 92.1833L85.3328 93.5821L82.7597 95.3705C81.4418 96.243 80.1702 97.1834 78.9498 98.1881C78.2517 98.7576 77.3042 99.5669 76.8055 99.9666L75.878 100.706L74.5515 99.2772C73.0587 97.8668 71.3811 96.6668 69.5648 95.7102L65.9345 93.5821L62.8627 96.9492L59.761 100.346L62.3142 103.663C63.5452 105.336 64.9201 106.897 66.4232 108.329L67.9791 109.628L66.2237 112.356C65.2264 113.835 63.9698 116.053 63.3713 117.262C62.7729 118.471 62.2045 119.54 62.1346 119.61C61.5227 119.53 60.9309 119.337 60.3893 119.04C58.4449 118.384 56.4404 117.922 54.4052 117.661L49.987 116.962L49.3388 118.651C48.0023 122.108 47.0947 125.485 47.4039 125.765C50.3302 127.697 53.4446 129.327 56.6991 130.63L58.2151 130.94L57.6566 133.938C57.2701 135.865 56.9971 137.813 56.8388 139.773L56.6293 142.58H54.884C52.8088 142.796 50.7521 143.163 48.7304 143.679L44.2822 144.838L44.5016 149.334C44.6413 151.912 44.9106 153.881 45.1599 153.93C48.6377 154.54 52.1612 154.851 55.6918 154.86L57.2876 154.6L57.8461 157.388C58.2375 159.303 58.7268 161.197 59.3122 163.063C59.6502 164.042 59.9201 165.043 60.12 166.06C60.0502 166.13 59.3022 166.43 58.4644 166.779C56.8644 167.56 55.3473 168.501 53.9365 169.587C52.3108 170.806 50.6852 171.975 50.3361 172.215C49.8075 172.555 49.8474 172.894 50.6054 174.653C51.0741 175.772 51.9917 177.65 52.6001 178.809L53.7271 180.907L58.1552 179.678C60.1631 179.167 62.1195 178.472 63.9997 177.6L65.3959 176.771L67.1912 179.369C68.1885 180.807 69.4252 182.526 70.0136 183.195C70.6021 183.865 71.36 184.804 71.7889 185.284L72.5469 186.193L71.1307 187.552C69.7299 189.055 68.5298 190.735 67.5602 192.547L65.4458 196.194L68.7271 199.322C71.2304 201.7 72.0682 202.379 72.3474 202.209C75.1809 200.244 77.8343 198.031 80.2763 195.595L81.4631 194.156L84.1859 195.915C85.6619 196.914 87.876 198.173 89.0828 198.772C90.2896 199.372 91.3567 199.951 91.4266 200.011C91.3561 200.638 91.1557 201.244 90.8381 201.79C90.1819 203.737 89.7241 205.745 89.4718 207.784L88.7437 212.201L90.4292 212.84C93.87 214.189 97.251 215.098 97.5303 214.788C99.4469 211.856 101.067 208.74 102.367 205.486L102.687 203.968L105.679 204.527C107.601 204.9 109.542 205.174 111.493 205.347L114.306 205.556V207.305C114.525 209.387 114.895 211.451 115.413 213.48L116.51 217.916L120.998 217.696C123.571 217.556 125.536 217.286 125.586 217.037C126.191 213.555 126.498 210.029 126.503 206.496L126.244 204.887L129.026 204.337C130.938 203.945 132.829 203.455 134.691 202.869C135.67 202.536 136.669 202.269 137.683 202.069C137.957 202.605 138.2 203.155 138.411 203.718C139.19 205.324 140.129 206.847 141.214 208.264C142.431 209.893 143.607 211.521 143.847 211.871C144.186 212.39 144.515 212.361 146.27 211.601C147.397 211.132 149.262 210.212 150.419 209.603L152.524 208.474L151.287 204.088C150.775 202.077 150.081 200.117 149.213 198.233L148.335 196.784L150.968 194.985C152.384 193.986 154.119 192.757 154.788 192.168L156.902 190.409L157.81 189.66L159.166 191.079C160.667 192.479 162.343 193.678 164.153 194.646L167.783 196.774L170.885 193.377L173.957 190.01L171.583 186.802C170.35 185.131 168.968 183.576 167.454 182.156L165.798 180.728L167.554 178C168.551 176.521 169.808 174.303 170.406 173.094C171.004 171.885 171.573 170.816 171.643 170.746C172.246 170.824 172.831 171.01 173.368 171.296C175.308 171.971 177.314 172.44 179.352 172.694L183.77 173.394L184.419 171.705C185.765 168.248 186.663 164.871 186.354 164.591C183.438 162.665 180.337 161.035 177.098 159.726ZM137.963 103.773C142.841 106.248 147.234 109.586 150.928 113.625C152.384 115.224 154.119 117.322 154.788 118.281C158.698 123.907 161.345 130.316 162.547 137.065L136.387 138.993C136.32 138.747 136.24 138.497 136.147 138.244C134.755 134.232 132.138 130.762 128.667 128.322L128.877 128.392L137.963 103.773ZM100.532 101.715C109.817 98.2163 119.975 97.7788 129.525 100.466L120.838 124.995C117.114 124.234 113.252 124.531 109.688 125.854L95.5556 103.873C97.1697 103.049 98.8315 102.321 100.532 101.695V101.715ZM72.6067 131.24C75.3677 122.412 80.7116 114.618 87.9458 108.869L102.407 130.61C99.1157 133.94 97.0724 138.306 96.6227 142.97L70.4924 144.838C70.5199 140.219 71.2325 135.629 72.6067 131.22V131.24ZM97.7697 187.592C92.0161 185.004 86.8686 181.236 82.6599 176.531C76.9155 170.156 73.0065 162.337 71.3501 153.91L97.6001 151.632C98.4734 154.192 99.8503 156.55 101.649 158.567C103.078 160.195 104.762 161.579 106.636 162.663L97.7697 187.592ZM106.038 190.389L115.273 165.341C116.768 165.478 118.274 165.444 119.761 165.241C121.804 164.953 123.791 164.356 125.655 163.472L141.004 184.934C130.498 191.233 117.955 193.183 106.038 190.369V190.389ZM157.959 166.909C155.381 171.71 152.008 176.037 147.986 179.708L132.786 157.827C135.039 155.011 136.515 151.652 137.065 148.085L163.275 145.817C163.175 153.161 161.354 160.379 157.959 166.889V166.909Z" fill="#3D3D3D"/>
<path d="M210.17 210.782C213.781 213.839 218.338 216.697 218.837 216.247C220.438 214.721 221.806 212.967 222.896 211.042C223.178 210.397 223.533 209.787 223.953 209.223C224.103 209.223 229.379 211.282 229.429 211.331C229.479 211.381 229.189 212.191 228.87 213.19C228.272 215.188 228.122 220.184 228.661 220.344C232.435 221.225 236.295 221.684 240.17 221.713H241.566L242.125 219.235C242.471 217.763 242.608 216.249 242.534 214.739L242.404 212.68L245.396 212.221L248.388 211.801L248.807 213.63C249.45 215.836 250.462 217.917 251.799 219.784C252.088 220.114 254.193 219.485 257.674 218.026C259.957 217.027 263.957 214.868 263.957 214.589C263.957 214.469 263.618 213.34 263.219 212.081C262.8 210.688 262.186 209.363 261.394 208.144L260.287 206.446L262.501 204.567C263.231 203.884 264.011 203.256 264.834 202.689C265.358 203.106 265.849 203.563 266.301 204.058C267.787 205.556 272.015 208.214 272.374 207.894C272.494 207.785 273.292 206.895 274.17 205.826C277.211 202.299 280.154 197.573 279.705 197.054C278.184 195.454 276.437 194.087 274.519 192.997C273.875 192.715 273.266 192.359 272.703 191.938C272.703 191.798 274.758 186.503 274.808 186.463C274.858 186.423 275.666 186.693 276.663 187.012C278.658 187.612 283.644 187.752 283.804 187.222C284.71 183.441 285.185 179.57 285.22 175.682V174.293L282.747 173.734C281.278 173.385 279.766 173.251 278.259 173.334L276.204 173.454L275.765 170.456L275.316 167.459L277.162 167.019C279.361 166.385 281.434 165.37 283.285 164.022C283.634 163.712 282.986 161.524 281.59 158.237C280.592 155.809 278.398 151.822 278.119 151.822C278.009 151.822 276.872 152.162 275.616 152.572C274.204 152.988 272.86 153.607 271.626 154.41L269.971 155.519L268.116 153.291C267.444 152.553 266.821 151.772 266.251 150.953C266.664 150.425 267.121 149.934 267.617 149.484C268.669 148.406 269.565 147.185 270.28 145.857C270.782 145.113 271.194 144.312 271.507 143.469C271.457 143.41 270.719 142.76 269.931 142.041C266.42 138.973 261.164 135.576 260.636 136.046C259.035 137.572 257.667 139.326 256.576 141.251C256.299 141.895 255.944 142.502 255.519 143.06C255.37 143.06 250.094 141.012 250.054 140.962C250.014 140.912 250.283 140.102 250.602 139.103C251.201 137.105 251.35 132.109 250.812 131.949C247.038 131.064 243.178 130.605 239.302 130.581H237.906L237.348 133.148C237 134.62 236.866 136.134 236.949 137.644L237.068 139.703L234.076 140.142L231.084 140.592L230.656 138.744C230.02 136.538 229.007 134.459 227.664 132.599C227.374 132.269 225.27 132.899 221.789 134.357C219.505 135.356 215.506 137.515 215.506 137.794C215.506 137.914 215.845 139.043 216.244 140.302C216.667 141.7 217.288 143.029 218.089 144.249L219.186 145.907L216.962 147.766C216.225 148.439 215.446 149.063 214.628 149.634C214.1 149.226 213.61 148.771 213.162 148.275C211.676 146.777 207.447 144.119 207.088 144.439C206.969 144.549 206.181 145.438 205.293 146.507C202.251 150.034 199.309 154.75 199.758 155.269C201.276 156.875 203.024 158.246 204.944 159.336C205.588 159.618 206.197 159.974 206.759 160.395C206.759 160.535 204.705 165.83 204.655 165.87C204.605 165.91 203.797 165.641 202.8 165.321C200.805 164.721 195.818 164.581 195.659 165.111C194.77 168.89 194.311 172.758 194.292 176.641V178.04L196.766 178.599C198.235 178.948 199.747 179.083 201.254 178.999L203.308 178.869L203.767 181.867L204.186 184.864L202.351 185.284C200.158 185.936 198.089 186.949 196.227 188.281C195.878 188.591 196.527 190.779 197.923 194.066C198.92 196.494 201.114 200.471 201.394 200.471C201.503 200.471 202.64 200.141 203.897 199.731C205.291 199.311 206.618 198.692 207.836 197.893L209.492 196.784L211.347 199.012C212.019 199.75 212.642 200.531 213.212 201.35C212.801 201.876 212.347 202.367 211.856 202.819C210.794 203.9 209.888 205.124 209.163 206.456C207.667 209.003 207.577 208.594 210.17 210.782ZM219.455 187.742C217.727 184.672 216.711 181.252 216.484 177.736C216.256 174.219 216.821 170.696 218.139 167.429C219.421 164.084 221.532 161.12 224.273 158.816C225.331 157.845 226.465 156.959 227.664 156.169C230.773 154.313 234.268 153.202 237.877 152.921C241.485 152.64 245.11 153.198 248.468 154.55C251.811 155.829 254.77 157.944 257.065 160.695C258.034 161.752 258.917 162.885 259.708 164.082C262.099 168.136 263.231 172.812 262.959 177.513C262.688 182.215 261.025 186.729 258.182 190.479C256.303 192.65 254.151 194.568 251.779 196.184C247.727 198.593 243.048 199.731 238.345 199.452C232.89 199.151 227.713 196.945 223.714 193.217C222.105 191.545 220.677 189.706 219.455 187.732V187.742Z" fill="#3D3D3D"/>
<path d="M103.903 61.5992C105.499 63.088 105.898 63.4477 106.008 63.5076C106.117 63.5676 109.698 61.1796 112.351 59.0514L113.438 58.1921L114.435 58.8816C115.009 59.2608 115.605 59.6045 116.221 59.9107C117.64 60.5935 119.095 61.2005 120.579 61.7291L121.217 61.9489C121.217 61.9489 121.327 64.0172 121.437 66.4851C121.546 68.953 121.646 71.0512 121.656 71.1111C121.756 71.3809 124.648 71.7805 126.962 71.8705C129.276 71.9604 132.108 71.8105 132.138 71.6107C132.288 70.8613 132.737 68.1037 133.135 65.7757C133.365 64.217 133.574 62.8682 133.604 62.7782C133.634 62.6883 133.963 62.5784 134.462 62.4985C135.942 62.2293 137.39 61.804 138.78 61.2296L140.556 60.4502C140.853 60.3351 141.14 60.1947 141.413 60.0306C141.503 59.9506 141.673 60.0306 142.092 60.4602C145.163 63.3278 148.175 66.0255 148.335 66.0255C148.804 66.0255 152.155 63.3477 153.77 61.6692C154.614 60.8458 155.375 59.9423 156.044 58.9715C156.044 58.9115 154.179 56.3337 151.267 52.3571L150.768 51.6877L151.058 51.348C151.253 51.09 151.427 50.8159 151.576 50.5287C151.696 50.2689 152.105 49.5296 152.474 48.95C153.242 47.5891 153.851 46.1442 154.289 44.6437C154.329 44.3866 154.425 44.1412 154.568 43.9243C154.648 43.9243 156.005 43.8344 157.56 43.7845C161.979 43.6446 163.425 43.5547 163.475 43.3948C163.847 41.7315 164.083 40.0408 164.183 38.3391C164.322 36.0711 164.183 32.8238 164.003 32.8438C163.824 32.8638 162.607 32.664 161.061 32.4242L156.852 31.7947C156.084 31.6948 155.356 31.5949 155.227 31.5649C155.097 31.5349 154.967 31.3251 154.708 30.1561C154.324 28.4239 153.728 26.746 152.933 25.1604C152.714 24.7413 152.518 24.3111 152.344 23.8715C152.967 22.9728 153.675 22.1363 154.459 21.3736C156.583 19.0456 158.239 17.1772 158.358 16.9774C158.478 16.7775 156.443 14.2197 154.548 12.1915C153.558 11.0374 152.444 9.99537 151.227 9.08412C151.227 9.08412 149.641 10.2032 147.796 11.582C145.951 12.9608 144.296 14.1598 144.126 14.2597C143.787 14.4895 143.807 14.4995 142.131 13.4704C140.605 12.5512 138.979 11.8103 137.284 11.2623C136.903 11.1871 136.539 11.0451 136.207 10.8426C136.207 10.7827 136.147 9.93339 136.127 8.96422C136.131 6.51898 135.978 4.07604 135.669 1.65047C134.802 1.39835 133.914 1.22776 133.016 1.14091C130.413 0.95303 127.8 0.95303 125.197 1.14091C125.197 1.14091 124.877 3.06926 124.538 5.35731C124.199 7.64535 123.91 9.6936 123.88 9.90342L123.82 10.2731L122.484 10.6128C120.721 11.0572 119.007 11.6764 117.367 12.4612L116.37 12.9908L114.914 11.6319L111.613 8.45466L109.688 6.68617L109.429 6.82605C108.292 7.572 107.205 8.39312 106.177 9.28395C104.233 10.9525 101.709 13.5803 101.709 13.95C101.709 14.0399 102.916 15.7085 104.372 17.6768C105.828 19.6451 107.015 21.2937 107.025 21.3436C106.936 21.5567 106.812 21.7528 106.656 21.9231C105.505 23.6198 104.567 25.4521 103.864 27.3785L103.365 28.7673H102.727L98.2684 28.9372C96.164 29.0371 94.3888 29.107 94.279 29.127C93.8992 30.252 93.6875 31.427 93.6507 32.614C93.4014 34.942 93.4712 39.688 93.7704 39.7479C94.8675 39.9677 98.9366 40.6372 100.393 40.837L102.477 41.1467C102.647 41.1467 102.806 41.6363 103.345 43.6746C103.64 44.9071 104.044 46.1108 104.552 47.2715C104.745 47.7144 104.972 48.1419 105.23 48.5504C105.409 48.7502 105.439 48.7302 103.544 50.7685C102.138 52.2672 99.1361 55.6243 99.1361 55.6843C99.59 56.4752 100.118 57.2212 100.712 57.9124C101.701 59.204 102.767 60.4352 103.903 61.5992V61.5992ZM117.397 43.0051C116.082 40.8189 115.479 38.2766 115.672 35.7313C115.751 33.2073 116.596 30.7673 118.096 28.7373C119.645 26.6023 121.804 24.9879 124.288 24.1067C126.771 23.2256 129.463 23.1192 132.008 23.8015C134.305 24.369 136.386 25.5987 137.993 27.3385C139.533 28.839 140.637 30.732 141.184 32.8138C141.957 35.5094 141.824 38.3846 140.805 40.9968C140.082 43.0068 138.831 44.7843 137.185 46.1425C135.123 48.0704 132.451 49.2124 129.635 49.3697C127.941 49.5461 126.229 49.3709 124.606 48.8552C122.983 48.3395 121.483 47.4943 120.2 46.3723C119.174 45.33 118.236 44.2037 117.397 43.0051V43.0051Z" fill="#3D3D3D"/>
<path d="M122.065 45.3733C123.702 46.5291 125.615 47.2304 127.611 47.4059C129.606 47.5813 131.612 47.2248 133.425 46.3724C134.341 45.9439 135.164 45.3397 135.848 44.594C137.022 43.7303 137.953 42.5773 138.551 41.2468C139.489 39.1697 139.854 36.8788 139.608 34.6125C139.422 33.3762 139.045 32.1763 138.491 31.0555C137.589 29.5322 136.4 28.1987 134.991 27.1289C133.822 26.329 132.501 25.7781 131.111 25.5103C129.162 25.0515 127.125 25.1328 125.219 25.7453C123.313 26.3578 121.609 27.4785 120.29 28.9873C118.547 30.8326 117.551 33.2615 117.497 35.8015C117.415 37.6855 117.791 39.5613 118.594 41.2668C119.477 42.8462 120.656 44.2404 122.065 45.3733V45.3733ZM121.397 40.4875C120.782 39.4016 120.412 38.1941 120.312 36.9497C120.212 35.7053 120.385 34.454 120.818 33.2836C121.044 32.771 121.314 32.2795 121.626 31.8149C122.104 31.1133 122.698 30.4984 123.382 29.9964C123.996 29.3942 124.721 28.916 125.516 28.5876C126.799 28.1006 128.179 27.922 129.544 28.066C130.909 28.21 132.221 28.6727 133.375 29.4169C134.389 30.2142 135.265 31.1728 135.968 32.2545C136.679 33.659 136.999 35.2293 136.896 36.8006C136.865 37.4411 136.771 38.0769 136.616 38.699C135.962 40.8269 134.497 42.6107 132.538 43.6636C130.58 44.7166 128.286 44.9539 126.154 44.3242C125.203 43.999 124.308 43.5271 123.501 42.9254C122.688 42.2166 121.98 41.3958 121.397 40.4875V40.4875Z" fill="#3D3D3D"/>
<path d="M148.914 254.864C150.479 254.285 152.394 253.525 154.409 252.696L156.633 251.787L157.301 252.526C158.77 254.129 160.424 255.551 162.228 256.763C162.546 256.95 162.849 257.16 163.136 257.392C163.136 257.392 163.026 257.882 162.896 258.451C162.437 260.39 161.181 266.225 161.211 266.255C161.77 266.573 162.346 266.86 162.936 267.114L163.933 267.513C164.273 267.663 164.931 267.913 165.459 268.073L167.324 268.672C168.422 269.005 169.542 269.258 170.675 269.432L171.174 269.482L172.102 267.344L173.867 263.227L174.715 261.229L175.602 261.279C177.913 261.393 180.229 261.211 182.494 260.739C182.67 260.677 182.856 260.65 183.043 260.659C183.043 260.659 183.691 261.658 184.429 262.877C185.855 265.205 187.84 268.303 187.89 268.293C187.939 268.283 189.964 267.573 190.802 267.234C192.9 266.214 194.917 265.035 196.836 263.707L197.175 263.467L195.599 259.31L194.023 255.144L194.592 254.614C195.573 253.707 196.489 252.732 197.334 251.697L198.252 250.488C198.471 250.198 198.82 249.699 199.04 249.359C199.179 249.118 199.336 248.888 199.509 248.67C200.22 248.741 200.923 248.871 201.613 249.059C202.73 249.319 204.675 249.749 205.941 250.058C207.996 250.508 208.255 250.538 208.355 250.398C209.251 248.542 209.989 246.614 210.559 244.633C210.868 243.554 211.357 241.476 211.427 240.966L211.477 240.596L210.031 239.967C208.604 239.358 203.967 237.319 203.488 237.089L203.239 236.99V235.481C203.303 233.834 203.159 232.186 202.81 230.575C202.58 229.276 202.531 228.837 202.63 228.767L204.625 227.468C206.49 226.289 209.811 224.111 209.961 223.971C210.11 223.831 209.961 223.781 209.961 223.631C209.26 221.712 208.41 219.851 207.418 218.066C206.811 216.873 206.1 215.736 205.293 214.669C205.074 214.669 199.868 216.667 197.713 217.546L196.826 217.926L195.998 217.007C194.707 215.516 193.193 214.235 191.51 213.21C190.632 212.65 190.513 212.52 190.513 212.401C190.513 212.281 190.971 210.312 191.51 207.944C192.049 205.576 192.507 203.628 192.507 203.608C191.536 203.122 190.537 202.695 189.515 202.329C188.512 201.937 187.486 201.603 186.443 201.33C185.2 200.991 183.938 200.725 182.664 200.531C182.464 200.531 182.424 200.531 181.666 202.339C181.207 203.338 180.4 205.207 179.841 206.476L178.844 208.784H177.437C175.571 208.73 173.705 208.908 171.882 209.313C171.605 209.392 171.321 209.449 171.035 209.483C171.035 209.483 170.586 208.844 170.107 208.084C167.644 204.168 166.197 201.91 166.118 201.86C164.403 202.411 162.736 203.099 161.131 203.918C160.916 204.041 160.693 204.148 160.463 204.238C160.283 204.297 157.74 205.866 157.112 206.306L156.793 206.526L156.932 206.935C157.092 207.465 158.398 210.872 159.316 213.17L160.044 215.018L159.096 215.868C158.171 216.67 157.332 217.567 156.593 218.545C156.084 219.195 155.047 220.663 154.768 221.103C154.718 221.193 154.219 221.103 152.773 220.793C150.649 220.314 145.892 219.325 145.792 219.355C145.275 220.201 144.853 221.103 144.535 222.042C143.739 224.048 143.151 226.131 142.78 228.257L142.6 229.256L143.677 229.756C145.173 230.435 147.607 231.504 149.342 232.224L150.789 232.823V234.332C150.735 235.819 150.828 237.309 151.068 238.778C151.187 239.338 151.357 240.527 151.367 240.776C150.792 241.222 150.192 241.636 149.572 242.015C144.585 245.212 143.767 245.762 143.767 245.792C143.767 245.822 143.987 246.401 144.246 247.091C144.652 248.265 145.146 249.407 145.722 250.508C145.843 250.689 145.944 250.884 146.021 251.087C146.709 252.443 147.475 253.757 148.315 255.024C148.295 255.054 148.445 255.024 148.914 254.864ZM165.868 241.715C164.643 239.692 163.956 237.387 163.874 235.021C163.872 231.805 165.061 228.702 167.211 226.314C169.361 223.926 172.319 222.421 175.513 222.092C178.85 221.912 182.141 222.936 184.788 224.98C185.724 225.799 186.555 226.732 187.261 227.757C188.273 229.351 188.98 231.12 189.346 232.973C189.595 234.727 189.496 236.513 189.052 238.228C188.609 239.943 187.831 241.553 186.763 242.964C185.897 243.997 184.89 244.902 183.771 245.652C182.176 246.722 180.358 247.41 178.456 247.665C176.554 247.92 174.619 247.734 172.8 247.121C169.901 246.211 167.424 244.289 165.818 241.705L165.868 241.715Z" fill="#3D3D3D"/>
</svg>
