<svg width="350" height="280" viewBox="0 0 350 280" fill="none" xmlns="http://www.w3.org/2000/svg">
<path d="M168.135 206.571C180.698 218.021 196.056 225.948 212.656 229.551L213.284 226.624C197.204 223.145 182.324 215.477 170.149 204.393L168.135 206.571Z" fill="#383838"/>
<path d="M139.85 144.284C139.541 141.147 139.381 137.949 139.381 134.802C139.389 121.531 142.175 108.41 147.559 96.285L144.826 95.056C137.903 110.586 135.152 127.66 136.848 144.584L139.85 144.284Z" fill="#383838"/>
<path d="M170.767 64.632C175.594 60.3051 180.851 56.485 186.456 53.2317L184.97 50.634C179.178 53.9781 173.744 57.9087 168.753 62.3639C161.112 69.171 154.598 77.1503 149.454 86.0037L152.037 87.5125C157.033 78.9407 163.355 71.2178 170.767 64.632V64.632Z" fill="#383838"/>
<path d="M326.921 134.732C326.908 148.052 324.094 161.221 318.663 173.379L321.386 174.608C326.996 162.065 329.902 148.477 329.913 134.732C329.913 131.525 329.754 128.288 329.444 125.1L326.452 125.4C326.771 128.487 326.921 131.625 326.921 134.732Z" fill="#383838"/>
<path d="M141.346 153.996L138.414 154.605C141.883 171.2 149.638 186.593 160.904 199.247L161.003 199.367L163.237 197.369L163.138 197.259C152.221 184.996 144.707 170.078 141.346 153.996V153.996Z" fill="#383838"/>
<path d="M324.986 115.678L327.908 115.069C324.461 98.4172 316.698 82.9686 305.398 70.2771L305.199 70.0473L302.965 72.0456L303.144 72.2155C314.108 84.5306 321.641 99.5208 324.986 115.678V115.678Z" fill="#383838"/>
<path d="M100.754 218.87C100.264 218.334 99.6059 217.982 98.889 217.871L99.8165 187.897H98.8191L97.8916 217.871C97.1673 217.988 96.5062 218.354 96.0217 218.906C95.5371 219.458 95.2592 220.161 95.2357 220.896C95.2121 221.631 95.4443 222.351 95.8924 222.933C96.3406 223.514 96.9769 223.922 97.6921 224.086L96.7646 254.24H97.762L98.6895 224.086C99.2716 224.03 99.8269 223.813 100.294 223.46C100.76 223.107 101.12 222.632 101.333 222.086C101.546 221.54 101.604 220.946 101.5 220.37C101.396 219.793 101.134 219.257 100.744 218.82L100.754 218.87ZM97.8318 219.749C97.7024 219.805 97.5816 219.879 97.4727 219.969C97.2043 220.209 97.0419 220.546 97.0213 220.906C97.0008 221.265 97.1237 221.619 97.363 221.888C97.4749 222.013 97.6105 222.115 97.762 222.187V223.057C97.3781 222.948 97.0324 222.733 96.7646 222.437C96.3804 222.004 96.1832 221.437 96.2161 220.858C96.2309 220.571 96.3029 220.29 96.428 220.03C96.553 219.771 96.7285 219.54 96.9441 219.35C97.2124 219.121 97.5298 218.956 97.8717 218.87L97.8318 219.749ZM99.8265 222.607C99.5041 222.878 99.1079 223.045 98.6895 223.087V222.227C98.885 222.177 99.066 222.081 99.2181 221.948C99.4865 221.708 99.6489 221.371 99.6695 221.011C99.69 220.651 99.5671 220.298 99.3278 220.029C99.1756 219.863 98.9833 219.739 98.7693 219.669V218.81C99.2729 218.921 99.7204 219.209 100.031 219.621C100.342 220.033 100.496 220.543 100.465 221.058C100.469 221.346 100.415 221.632 100.305 221.899C100.195 222.165 100.032 222.406 99.8265 222.607V222.607Z" fill="#383838"/>
<path d="M1.76798 158.142L33.264 130.616C33.4315 130.733 33.6277 130.802 33.8314 130.816C34.0352 130.83 34.239 130.788 34.4209 130.696L63.3438 163.178C63.3189 163.339 63.3291 163.504 63.3739 163.661C63.4187 163.818 63.4969 163.963 63.6032 164.087C63.8042 164.311 64.0852 164.448 64.3856 164.466C64.686 164.485 64.9817 164.385 65.2089 164.187C65.3023 164.097 65.3799 163.993 65.4383 163.877L90.1424 164.996C90.2137 165.754 90.5557 166.46 91.1054 166.985C91.6552 167.51 92.3757 167.819 93.1344 167.854C93.9743 167.901 94.7987 167.613 95.4283 167.054C95.948 166.589 96.2988 165.963 96.4257 165.276L122.357 166.445C123.941 172.003 125.941 177.434 128.341 182.691L127.144 181.392L126.406 182.072L129.607 185.669C134.262 195.137 140.18 203.927 147.2 211.796C148.666 213.435 150.192 215.023 151.698 216.562L132.121 234.077C131.956 234.047 131.788 234.055 131.627 234.1C131.466 234.145 131.318 234.226 131.193 234.337C131.082 234.436 130.991 234.556 130.927 234.69C130.862 234.824 130.825 234.969 130.816 235.118C130.808 235.266 130.829 235.415 130.878 235.555C130.927 235.696 131.004 235.825 131.103 235.936C131.213 236.059 131.349 236.156 131.5 236.22C131.652 236.284 131.816 236.313 131.981 236.305L145.565 251.442C145.188 252.026 145.014 252.718 145.069 253.412C145.124 254.105 145.406 254.76 145.87 255.277C146.334 255.795 146.955 256.144 147.637 256.273C148.319 256.401 149.024 256.301 149.644 255.988L163.198 271.046C163.105 271.281 163.095 271.542 163.168 271.784C163.241 272.027 163.393 272.238 163.6 272.383C163.808 272.529 164.058 272.6 164.31 272.586C164.563 272.571 164.803 272.472 164.993 272.305C165.166 272.147 165.282 271.936 165.322 271.705L214.022 274.702L214.082 273.703L165.063 270.706C164.922 270.554 164.742 270.445 164.543 270.39C164.344 270.335 164.134 270.337 163.936 270.396L150.492 255.409C150.926 254.977 151.226 254.428 151.355 253.829C151.485 253.23 151.439 252.606 151.223 252.033C151.007 251.459 150.63 250.961 150.137 250.597C149.645 250.234 149.058 250.02 148.447 249.984H148.257C147.53 249.987 146.826 250.241 146.263 250.703L132.869 235.776C132.982 235.612 133.049 235.42 133.061 235.221C133.074 235.022 133.031 234.823 132.938 234.647L152.416 217.262C168.851 233.425 189.722 244.313 212.365 248.533C235.007 252.753 258.391 250.113 279.528 240.951L294.488 257.757L294.857 257.427L280.006 240.731C291.081 235.863 301.32 229.274 310.345 221.208C316.888 215.369 322.752 208.81 327.829 201.655L340.894 216.342L341.263 216.003L328.078 201.235C340.217 183.884 347.369 163.527 348.752 142.383C350.136 121.24 345.699 100.122 335.925 81.331C326.151 62.5403 311.415 46.7984 293.324 35.8215C275.233 24.8446 254.481 19.0539 233.331 19.0809C227.232 19.0812 221.143 19.5623 215.119 20.5197C214.991 20.2404 214.823 19.9813 214.621 19.7503C214.346 19.4362 214.011 19.1807 213.636 18.9987C213.261 18.8168 212.853 18.7122 212.436 18.6913H212.247C211.641 18.6923 211.049 18.8693 210.541 19.2008L196.439 3.34438C196.465 3.18305 196.456 3.01788 196.411 2.8607C196.366 2.70351 196.287 2.5582 196.18 2.43516C195.99 2.22619 195.73 2.09591 195.449 2.07002C195.168 2.04413 194.888 2.12448 194.664 2.29526L172.343 0.726625L172.273 1.72577L194.215 3.27444C194.22 3.46284 194.273 3.64683 194.37 3.8084C194.467 3.96998 194.604 4.10359 194.767 4.19622C194.931 4.28886 195.116 4.33734 195.304 4.33688C195.493 4.33643 195.677 4.28708 195.841 4.19366L209.803 19.8802C209.386 20.3882 209.135 21.0127 209.085 21.6687C193.727 24.9948 179.206 31.4203 166.408 40.5533C153.61 49.6862 142.803 61.3351 134.647 74.7896C126.49 88.2441 121.155 103.222 118.967 118.81C116.778 134.398 117.782 150.269 121.918 165.456L96.3359 164.297C96.2429 163.555 95.892 162.87 95.3448 162.362C94.7975 161.854 94.0891 161.556 93.3439 161.519H93.1643C92.4402 161.513 91.7363 161.759 91.1726 162.214C90.6089 162.67 90.2202 163.307 90.0726 164.017L65.3485 162.898C65.3044 162.789 65.2439 162.688 65.169 162.598C65.0029 162.411 64.7779 162.286 64.5312 162.244C64.2845 162.202 64.0309 162.246 63.8126 162.368L34.8897 129.876C34.9167 129.715 34.9075 129.55 34.8626 129.392C34.8178 129.235 34.7384 129.09 34.6304 128.967C34.5308 128.855 34.4104 128.765 34.2758 128.7C34.1412 128.635 33.9952 128.597 33.8461 128.589C33.697 128.58 33.5477 128.602 33.4068 128.651C33.2658 128.701 33.136 128.777 33.0247 128.877C32.9062 128.986 32.8127 129.119 32.7507 129.267C32.6887 129.415 32.6597 129.576 32.6656 129.736L1.00001 157.413L1.76798 158.142ZM148.377 250.973C148.792 250.997 149.192 251.141 149.528 251.386C149.864 251.631 150.123 251.967 150.274 252.355C150.425 252.743 150.462 253.167 150.381 253.575C150.299 253.983 150.102 254.36 149.813 254.66L149.255 254.04C149.502 253.8 149.646 253.473 149.659 253.129C149.671 252.784 149.55 252.448 149.321 252.19C149.093 251.933 148.773 251.773 148.43 251.746C148.087 251.718 147.747 251.824 147.48 252.042L146.921 251.412C147.341 251.094 147.862 250.938 148.387 250.973H148.377ZM146.283 252.222L146.931 252.941C146.892 253.139 146.9 253.343 146.954 253.537C147.008 253.731 147.106 253.91 147.24 254.06C147.376 254.211 147.545 254.328 147.734 254.402C147.922 254.477 148.125 254.507 148.327 254.49L148.976 255.209C148.57 255.356 148.13 255.377 147.712 255.27C147.294 255.163 146.918 254.933 146.632 254.61C146.349 254.288 146.166 253.891 146.106 253.466C146.046 253.042 146.111 252.609 146.293 252.222H146.283ZM148.686 210.467C143.465 204.596 138.856 198.205 134.933 191.394L154.75 212.745C154.65 212.917 154.598 213.112 154.598 213.31C154.598 213.508 154.65 213.703 154.75 213.874L153.234 215.233C151.658 213.695 150.152 212.096 148.696 210.467H148.686ZM212.456 19.6904C212.741 19.7047 213.02 19.7757 213.277 19.8992C213.534 20.0228 213.763 20.1963 213.952 20.4098V20.4098C214.031 20.4997 214.101 20.5967 214.162 20.6995L213.214 20.8594C213.035 20.6976 212.815 20.5871 212.578 20.5396C212.341 20.4922 212.096 20.5094 211.868 20.5896L211.299 19.9502C211.654 19.7589 212.054 19.669 212.456 19.6904V19.6904ZM214.341 22.6878C214.279 22.8381 214.202 22.9819 214.112 23.1175L213.813 22.7778L214.341 22.6878ZM213.344 23.7769C213.039 23.9485 212.696 24.0412 212.347 24.0467C212.049 24.0459 211.755 23.9844 211.483 23.8658C211.21 23.7473 210.964 23.5742 210.761 23.3573L211.898 23.1375C212.191 23.2427 212.512 23.2427 212.805 23.1375L213.344 23.7769ZM210.531 20.6196L211.09 21.2491L210.182 21.4289C210.248 21.1365 210.374 20.8609 210.551 20.6196H210.531ZM120.093 128.238C121.518 103.373 131.053 79.6657 147.233 60.7575C163.413 41.8494 185.344 28.7868 209.654 23.5771C209.734 23.7243 209.831 23.8617 209.943 23.9867C210.445 24.5486 211.131 24.9126 211.876 25.0133C212.622 25.114 213.38 24.9449 214.012 24.5363L226.06 38.0847C214.993 38.8665 204.147 41.5712 194.006 46.0778L195.212 48.8155C207.146 43.518 220.059 40.7946 233.111 40.8223V40.8223C236.473 40.8222 239.832 41.0023 243.174 41.3619L243.494 38.3644C240.045 37.9932 236.58 37.8065 233.111 37.8049V37.8049C231.176 37.8049 229.262 37.8649 227.347 37.9748L214.78 23.8468C215.108 23.4566 215.331 22.9889 215.428 22.488C230.848 20.0257 246.607 20.7533 261.735 24.6262L260.259 41.7116C258.025 41.0455 255.768 40.4693 253.487 39.9831L252.859 42.9205C255.272 43.4301 257.646 44.0596 260 44.759L259.541 50.0744C258.802 50.0952 258.095 50.3785 257.546 50.8738C257.235 51.1512 256.982 51.4874 256.8 51.863C256.619 52.2387 256.513 52.6464 256.489 53.063C256.465 53.4796 256.523 53.8969 256.66 54.291C256.797 54.6851 257.01 55.0483 257.287 55.3599C257.733 55.8686 258.331 56.2191 258.992 56.3591L258.214 65.4213L259.212 65.5112L259.99 56.409C260.656 56.3494 261.286 56.0761 261.785 55.6297C262.412 55.0679 262.79 54.2796 262.837 53.4383C262.884 52.597 262.595 51.7716 262.034 51.1435C261.638 50.673 261.115 50.3262 260.528 50.1444L260.967 45.0188C273.966 49.0418 285.931 55.8618 296.024 65.0017L298.018 62.7836C287.445 53.2241 274.891 46.127 261.256 42.0013L262.722 24.9059C280.334 29.613 296.557 38.4976 310.019 50.8091C323.482 63.1206 333.789 78.4974 340.069 95.6403C346.349 112.783 348.419 131.189 346.103 149.302C343.787 167.415 337.153 184.703 326.762 199.707L315.013 186.488C315.601 185.549 316.19 184.599 316.748 183.63L314.115 182.122C313.716 182.801 313.298 183.48 312.879 184.12L305.897 176.277C306.365 175.857 306.698 175.309 306.855 174.701C307.012 174.092 306.986 173.451 306.78 172.857C306.574 172.264 306.198 171.744 305.699 171.364C305.199 170.984 304.598 170.76 303.972 170.721H303.783C303.005 170.717 302.254 171.006 301.679 171.531L281.802 149.15L281.433 149.479L301.379 171.92C300.904 172.504 300.653 173.239 300.67 173.993C300.687 174.746 300.971 175.468 301.472 176.031C301.973 176.593 302.658 176.957 303.403 177.059C304.148 177.161 304.905 176.993 305.538 176.586L312.649 184.579C304.429 197.712 293.113 208.619 279.697 216.342L281.203 218.94C294.79 211.139 306.298 200.172 314.754 186.967L326.462 200.106C321.414 207.289 315.561 213.869 309.019 219.719C299.987 227.788 289.724 234.355 278.62 239.173L266.652 225.724C268.497 225.045 270.322 224.316 272.127 223.516L270.921 220.769C269.195 221.538 267.45 222.237 265.684 222.887C266.059 222.22 266.18 221.44 266.025 220.692C265.87 219.943 265.45 219.275 264.842 218.812C264.234 218.35 263.48 218.123 262.718 218.174C261.956 218.225 261.239 218.55 260.698 219.09C260.312 219.43 260.02 219.863 259.85 220.349L227.347 207.5L227.167 207.969L259.77 220.829C259.67 221.312 259.684 221.812 259.81 222.288C259.937 222.765 260.172 223.206 260.498 223.576C260.776 223.894 261.115 224.152 261.496 224.336C252.336 227.25 242.782 228.726 233.171 228.712C229.759 228.71 226.35 228.523 222.958 228.152L222.639 231.15C226.137 231.533 229.653 231.726 233.171 231.729V231.729C244.415 231.742 255.575 229.781 266.143 225.934L278.111 239.403C257.408 248.216 234.564 250.69 212.459 246.513C190.354 242.336 169.979 231.695 153.902 215.933L155.538 214.464C155.697 214.487 155.858 214.474 156.012 214.428C156.165 214.381 156.306 214.301 156.426 214.194C156.619 214.045 156.758 213.836 156.822 213.601C156.886 213.365 156.871 213.114 156.779 212.888C156.688 212.661 156.525 212.471 156.315 212.346C156.105 212.221 155.86 212.168 155.618 212.196L132.918 187.737C123.3 169.45 118.87 148.871 120.113 128.238H120.093ZM260.718 52.3025C260.622 52.2054 260.51 52.1244 260.389 52.0627L260.468 51.1735C260.793 51.3011 261.086 51.499 261.326 51.753C261.585 52.0395 261.762 52.3901 261.84 52.7684C261.918 53.1466 261.894 53.5389 261.77 53.9047C261.646 54.2704 261.426 54.5963 261.135 54.8486C260.843 55.1009 260.489 55.2706 260.109 55.3399L260.189 54.4707C260.343 54.4147 260.485 54.3299 260.608 54.2209C260.863 53.9811 261.016 53.6518 261.035 53.3018C261.053 52.9517 260.936 52.608 260.708 52.3425L260.718 52.3025ZM258.723 54.111C258.862 54.2624 259.032 54.3817 259.222 54.4607L259.152 55.31C258.764 55.1936 258.418 54.9681 258.155 54.6605C257.884 54.362 257.702 53.9938 257.629 53.5973C257.555 53.2008 257.594 52.7917 257.74 52.4159C257.886 52.0402 258.134 51.7127 258.456 51.4703C258.777 51.2279 259.16 51.0801 259.561 51.0436L259.481 51.8929C259.256 51.9392 259.047 52.0424 258.873 52.1926C258.727 52.3054 258.606 52.4465 258.517 52.6074C258.428 52.7684 258.373 52.9458 258.354 53.129C258.335 53.3121 258.354 53.4971 258.409 53.6728C258.464 53.8485 258.554 54.0112 258.673 54.151L258.723 54.111ZM302.825 174.838C303.005 175.043 303.242 175.188 303.506 175.254C303.77 175.32 304.047 175.304 304.302 175.207L304.87 175.847C304.563 176.014 304.222 176.106 303.873 176.117C303.473 176.119 303.081 176.01 302.738 175.803C302.396 175.597 302.117 175.299 301.933 174.944C301.748 174.589 301.665 174.19 301.693 173.79C301.72 173.391 301.856 173.006 302.087 172.68L302.656 173.319C302.529 173.56 302.477 173.834 302.507 174.105C302.538 174.375 302.648 174.631 302.825 174.838V174.838ZM304.74 174.948C304.954 174.697 305.07 174.376 305.065 174.046C305.06 173.716 304.935 173.399 304.714 173.154C304.493 172.909 304.191 172.753 303.863 172.716C303.536 172.678 303.206 172.761 302.935 172.949V172.949L302.387 172.34C302.6 172.149 302.849 172.003 303.119 171.909C303.389 171.815 303.674 171.775 303.96 171.792C304.245 171.809 304.524 171.881 304.781 172.006C305.039 172.131 305.269 172.306 305.458 172.52V172.52C305.839 172.955 306.036 173.521 306.007 174.098C305.97 174.674 305.709 175.213 305.279 175.597L304.74 174.948ZM263.77 222.477C263.983 222.226 264.099 221.905 264.094 221.575C264.089 221.245 263.965 220.928 263.743 220.683C263.522 220.439 263.22 220.283 262.892 220.245C262.565 220.208 262.235 220.291 261.964 220.479C261.798 220.639 261.675 220.838 261.605 221.058L260.827 220.759C260.952 220.42 261.153 220.116 261.416 219.869C261.848 219.484 262.415 219.287 262.992 219.32C263.562 219.353 264.097 219.61 264.481 220.034C264.865 220.458 265.068 221.016 265.046 221.588C265.009 222.164 264.748 222.702 264.318 223.087V223.087L263.77 222.477ZM263.899 223.376C263.593 223.546 263.251 223.638 262.902 223.646H262.772C262.205 223.603 261.678 223.337 261.304 222.907C260.931 222.477 260.742 221.917 260.778 221.348C260.772 221.305 260.772 221.261 260.778 221.218L261.585 221.538C261.592 221.75 261.65 221.958 261.753 222.144C261.856 222.33 262.002 222.488 262.178 222.606C262.355 222.725 262.557 222.799 262.768 222.823C262.978 222.848 263.192 222.822 263.391 222.747L263.899 223.376ZM91.8179 163.048C92.0313 162.857 92.2801 162.711 92.55 162.617C92.82 162.523 93.1058 162.483 93.3911 162.5C93.6764 162.517 93.9556 162.589 94.2127 162.714C94.4699 162.839 94.7 163.014 94.8898 163.228C95.1391 163.512 95.3109 163.856 95.3884 164.227H94.5307C94.4709 164.074 94.3867 163.933 94.2814 163.807C94.0402 163.538 93.7023 163.375 93.3416 163.354C92.9808 163.334 92.6267 163.457 92.3565 163.697C92.2279 163.816 92.123 163.959 92.0473 164.117H91.1896C91.2896 163.706 91.5081 163.335 91.8179 163.048V163.048ZM91.9675 165.046C92.0265 165.233 92.1214 165.406 92.2468 165.556C92.4879 165.825 92.8259 165.988 93.1866 166.009C93.5473 166.029 93.9015 165.906 94.1717 165.666C94.3255 165.527 94.4421 165.352 94.5108 165.156H95.3685C95.2657 165.575 95.0357 165.952 94.7102 166.235C94.4972 166.427 94.2482 166.575 93.9776 166.669C93.707 166.763 93.4204 166.803 93.1344 166.785C92.849 166.77 92.5695 166.697 92.3125 166.572C92.0556 166.447 91.8263 166.271 91.6384 166.055C91.3697 165.746 91.1904 165.37 91.1198 164.966L91.9675 165.046Z" fill="#383838"/>
<path d="M172.902 120.274L174.418 120.584L173.859 123.582C173.482 125.507 173.209 127.452 173.041 129.407L172.832 132.224H171.087C169.011 132.44 166.955 132.807 164.933 133.323L160.505 134.422L160.724 138.919C160.864 141.496 161.133 143.465 161.383 143.515C164.86 144.127 168.384 144.434 171.914 144.434L173.51 144.184L174.069 146.972C174.46 148.887 174.949 150.781 175.535 152.647C175.869 153.627 176.138 154.629 176.343 155.644C176.273 155.714 175.525 156.014 174.687 156.364C173.087 157.144 171.57 158.085 170.159 159.171C168.533 160.39 166.908 161.559 166.559 161.799C166.03 162.139 166.07 162.468 166.828 164.237C167.297 165.356 168.214 167.234 168.823 168.383L169.95 170.492L174.378 169.263C176.386 168.752 178.342 168.056 180.222 167.184L181.619 166.355L183.414 168.953C184.411 170.392 185.668 172.13 186.236 172.77C186.805 173.409 187.603 174.418 188.012 174.918L188.75 175.847L187.323 177.166C185.917 178.662 184.719 180.343 183.763 182.162L181.648 185.808L185.039 188.906L188.4 191.993L191.612 189.555C193.277 188.321 194.826 186.936 196.24 185.419L197.666 183.77L200.418 185.549C201.895 186.548 204.109 187.807 205.315 188.406C206.522 189.006 207.589 189.585 207.659 189.645C207.595 190.256 207.408 190.847 207.111 191.384C206.44 193.328 205.976 195.337 205.724 197.379L205.026 201.815L206.722 202.454C210.162 203.803 213.543 204.712 213.823 204.453C215.731 201.506 217.342 198.377 218.63 195.111L218.949 193.592L221.941 194.151C223.862 194.533 225.804 194.806 227.756 194.971L230.568 195.18V196.929C230.803 199.013 231.19 201.076 231.725 203.104L232.822 207.55L237.31 207.33C239.883 207.19 241.838 206.92 241.898 206.671C242.502 203.183 242.805 199.65 242.805 196.11L242.556 194.501L245.339 193.951C247.251 193.558 249.141 193.068 251.004 192.483C251.981 192.145 252.98 191.878 253.996 191.683C254.269 192.219 254.512 192.769 254.724 193.332C255.502 194.938 256.441 196.462 257.526 197.878C258.743 199.507 259.92 201.135 260.159 201.485C260.498 202.005 260.827 201.975 262.583 201.215C263.71 200.746 265.575 199.826 266.732 199.217L268.796 198.108L267.569 193.672C267.062 191.658 266.364 189.698 265.485 187.817L264.667 186.418L267.24 184.629C268.558 183.757 269.83 182.817 271.05 181.812C271.748 181.242 272.696 180.433 273.194 180.033L274.122 179.294L275.448 180.723C276.941 182.133 278.619 183.333 280.435 184.29L284.065 186.418L287.137 183.051L290.239 179.654L287.686 176.337C286.455 174.664 285.08 173.103 283.577 171.671L282.021 170.372L283.776 167.644C284.774 166.165 286.03 163.947 286.629 162.738C287.227 161.529 287.796 160.46 287.865 160.39C288.477 160.47 289.069 160.663 289.611 160.96C291.555 161.616 293.56 162.078 295.595 162.339L300.013 163.038L300.661 161.349C301.998 157.892 302.905 154.515 302.596 154.235C299.67 152.303 296.555 150.673 293.301 149.37L291.785 149.06L292.343 146.062C292.73 144.135 293.003 142.187 293.161 140.227L293.371 137.42H295.116C297.191 137.204 299.248 136.837 301.27 136.321L305.718 135.162L305.498 130.666C305.359 128.088 305.089 126.119 304.84 126.07C301.362 125.46 297.839 125.149 294.308 125.14L292.712 125.4L292.154 122.612C291.762 120.697 291.273 118.803 290.688 116.937C290.35 115.958 290.08 114.957 289.88 113.94C289.95 113.87 290.698 113.57 291.536 113.221C293.136 112.44 294.653 111.499 296.064 110.413C297.689 109.194 299.315 108.025 299.664 107.785C300.192 107.445 300.153 107.106 299.395 105.347C298.926 104.228 298.008 102.35 297.4 101.191L296.273 99.0926L291.845 100.322C289.837 100.833 287.88 101.528 286 102.4L284.604 103.229L282.809 100.631C281.811 99.1925 280.575 97.474 279.986 96.8045C279.398 96.1351 278.64 95.1959 278.211 94.7163L277.453 93.8071L278.869 92.4483C280.27 90.9446 281.47 89.2654 282.44 87.4525L284.554 83.8057L281.273 80.6783C278.77 78.3004 277.932 77.621 277.653 77.7908C274.819 79.7558 272.166 81.9693 269.724 84.4051L268.537 85.8439L265.814 84.0854C264.338 83.0863 262.124 81.8274 260.917 81.2279C259.71 80.6284 258.643 80.0489 258.573 79.9889C258.644 79.3615 258.844 78.7558 259.162 78.2104C259.818 76.2635 260.276 74.2549 260.528 72.2156L261.256 67.7993L259.571 67.1599C256.13 65.811 252.749 64.9018 252.47 65.2116C250.553 68.1437 248.933 71.2597 247.633 74.5136L247.313 76.0323L244.321 75.4728C242.399 75.0996 240.458 74.8262 238.507 74.6535L235.694 74.4437V72.6952C235.475 70.6128 235.105 68.5492 234.587 66.5204L233.49 62.0842L229.002 62.304C226.429 62.4439 224.464 62.7137 224.414 62.9635C223.809 66.4445 223.502 69.971 223.497 73.5045L223.756 75.1131L220.974 75.6626C219.062 76.0548 217.171 76.545 215.309 77.1314C214.33 77.4638 213.331 77.7308 212.317 77.9307C212.043 77.3952 211.8 76.8448 211.589 76.2821C210.81 74.6757 209.871 73.1525 208.786 71.736C207.569 70.1074 206.393 68.4788 206.153 68.1291C205.814 67.6095 205.485 67.6395 203.73 68.3988C202.603 68.8684 200.738 69.7876 199.581 70.3971L197.476 71.5262L198.713 75.9124C199.225 77.9235 199.919 79.8833 200.787 81.7674L201.665 83.2162L199.032 85.0146C197.616 86.0138 195.881 87.2427 195.212 87.8322L193.098 89.5907L192.19 90.3401L190.834 88.9213C189.333 87.5207 187.657 86.3216 185.847 85.3543L182.217 83.2262L179.115 86.6233L176.043 89.9904L178.417 93.1976C179.65 94.8686 181.032 96.4237 182.546 97.8437L184.202 99.2724L182.446 102C181.449 103.479 180.192 105.697 179.594 106.906C178.996 108.115 178.427 109.184 178.357 109.254C177.754 109.176 177.169 108.99 176.632 108.704C174.692 108.029 172.686 107.56 170.648 107.306L166.23 106.606L165.581 108.295C164.235 111.752 163.337 115.129 163.646 115.409C166.562 117.335 169.663 118.965 172.902 120.274ZM212.037 176.227C207.159 173.752 202.766 170.414 199.072 166.375C197.616 164.776 195.881 162.678 195.212 161.719C191.302 156.093 188.655 149.684 187.453 142.935L213.613 141.007C213.68 141.253 213.76 141.503 213.853 141.756C215.245 145.768 217.862 149.238 221.333 151.678L221.123 151.608L212.037 176.227ZM249.468 178.285C240.183 181.784 230.025 182.221 220.475 179.534L229.162 155.005C232.886 155.766 236.748 155.469 240.312 154.146L254.444 176.127C252.83 176.951 251.168 177.679 249.468 178.305V178.285ZM277.393 148.76C274.632 157.588 269.288 165.382 262.054 171.131L247.593 149.39C250.884 146.06 252.928 141.694 253.377 137.03L279.508 135.162C279.48 139.781 278.768 144.371 277.393 148.78V148.76ZM252.23 92.4083C257.984 94.9955 263.131 98.7636 267.34 103.469C273.084 109.844 276.993 117.663 278.65 126.09L252.4 128.368C251.527 125.808 250.15 123.45 248.351 121.433C246.922 119.805 245.238 118.421 243.364 117.337L252.23 92.4083ZM243.962 89.6107L234.727 114.659C233.232 114.522 231.726 114.556 230.239 114.759C228.196 115.047 226.209 115.644 224.345 116.528L208.996 95.066C219.502 88.7666 232.045 86.8168 243.962 89.6307V89.6107ZM192.041 113.091C194.619 108.29 197.992 103.963 202.014 100.292L217.214 122.173C214.961 124.989 213.485 128.348 212.935 131.915L186.725 134.183C186.825 126.839 188.646 119.621 192.041 113.111V113.091Z" fill="#3D3D3D"/>
<path d="M139.83 69.2181C136.219 66.1607 131.662 63.3031 131.163 63.7527C129.562 65.2789 128.194 67.0329 127.104 68.9583C126.822 69.6029 126.467 70.213 126.047 70.7767C125.897 70.7767 120.621 68.7185 120.571 68.6685C120.521 68.6186 120.811 67.8093 121.13 66.8101C121.728 64.8118 121.878 59.8161 121.339 59.6562C117.565 58.7754 113.705 58.3163 109.83 58.2874H108.434L107.875 60.7653C107.529 62.2374 107.392 63.7509 107.466 65.2614L107.596 67.3197L104.604 67.7793L101.612 68.1989L101.193 66.3705C100.55 64.1643 99.5381 62.0833 98.2008 60.2158C97.9116 59.886 95.8072 60.5155 92.3265 61.9742C90.0426 62.9734 86.0432 65.1315 86.0432 65.4113C86.0432 65.5312 86.3823 66.6602 86.7813 67.9192C87.1999 69.3116 87.8145 70.6371 88.6064 71.8558L89.7134 73.5543L87.4994 75.4327C86.769 76.1159 85.9889 76.7438 85.1656 77.3111C84.6417 76.8942 84.1515 76.4365 83.6995 75.9423C82.2134 74.4436 77.9847 71.7859 77.6257 72.1056C77.506 72.2155 76.7081 73.1047 75.8304 74.1738C72.7886 77.7008 69.8464 82.4268 70.2952 82.9463C71.816 84.546 73.5634 85.9128 75.4814 87.0029C76.1248 87.2853 76.7339 87.6406 77.2965 88.0619C77.2965 88.2018 75.242 93.4973 75.1922 93.5373C75.1423 93.5772 74.3344 93.3075 73.3371 92.9877C71.3424 92.3882 66.3557 92.2484 66.1962 92.7779C65.2898 96.5586 64.8147 100.43 64.7799 104.318V105.707L67.2533 106.266C68.7224 106.615 70.234 106.749 71.7414 106.666L73.7959 106.546L74.2347 109.544L74.6835 112.541L72.8384 112.981C70.6386 113.615 68.5663 114.63 66.7148 115.978C66.3657 116.288 67.014 118.476 68.4103 121.763C69.4076 124.191 71.6017 128.178 71.881 128.178C71.9907 128.178 73.1277 127.838 74.3843 127.428C75.796 127.012 77.1398 126.393 78.3737 125.59L80.0293 124.481L81.8843 126.709C82.556 127.447 83.179 128.228 83.7493 129.047C83.3364 129.575 82.8793 130.066 82.383 130.516C81.3308 131.594 80.4345 132.815 79.7201 134.143C79.2179 134.887 78.8061 135.688 78.4934 136.531C78.5432 136.59 79.2812 137.24 80.0691 137.959C83.5798 141.027 88.8358 144.424 89.3644 143.954C90.9652 142.428 92.3329 140.674 93.4236 138.749C93.7012 138.105 94.0563 137.498 94.4807 136.94C94.6303 136.94 99.9063 138.988 99.9462 139.038C99.9861 139.088 99.7168 139.898 99.3976 140.897C98.7992 142.895 98.6496 147.891 99.1882 148.051C102.962 148.936 106.822 149.395 110.698 149.419H112.094L112.652 146.852C113 145.38 113.134 143.866 113.051 142.356L112.932 140.297L115.924 139.858L118.916 139.408L119.344 141.256C119.98 143.462 120.993 145.541 122.336 147.401C122.626 147.731 124.73 147.101 128.211 145.643C130.495 144.644 134.494 142.485 134.494 142.206C134.494 142.086 134.155 140.957 133.756 139.698C133.333 138.3 132.712 136.971 131.911 135.751L130.814 134.093L133.038 132.234C133.775 131.561 134.554 130.937 135.372 130.366C135.9 130.774 136.39 131.229 136.838 131.725C138.324 133.223 142.553 135.881 142.912 135.561C143.031 135.451 143.819 134.562 144.707 133.493C147.749 129.966 150.691 125.25 150.242 124.731C148.724 123.125 146.976 121.754 145.056 120.664C144.412 120.382 143.803 120.026 143.241 119.605C143.241 119.465 145.295 114.17 145.345 114.13C145.395 114.09 146.203 114.359 147.2 114.679C149.195 115.279 154.182 115.419 154.341 114.889C155.23 111.11 155.689 107.242 155.708 103.359V101.96L153.234 101.401C151.765 101.052 150.253 100.917 148.746 101.001L146.692 101.131L146.233 98.1333L145.814 95.1359L147.649 94.7163C149.842 94.0639 151.911 93.0509 153.773 91.7188C154.122 91.4091 153.473 89.2209 152.077 85.9338C151.08 83.5058 148.886 79.5292 148.606 79.5292C148.497 79.5292 147.36 79.859 146.103 80.2686C144.709 80.6891 143.382 81.3082 142.164 82.107L140.508 83.2161L138.653 80.988C137.981 80.2501 137.358 79.4691 136.788 78.65C137.199 78.1239 137.653 77.6327 138.144 77.1812C139.206 76.0999 140.112 74.8759 140.837 73.5444C142.333 70.9965 142.423 71.4062 139.83 69.2181ZM130.545 92.2584C132.273 95.3277 133.289 98.7476 133.516 102.264C133.744 105.781 133.179 109.304 131.861 112.571C130.579 115.916 128.468 118.88 125.727 121.184C124.669 122.155 123.535 123.041 122.336 123.831C119.227 125.687 115.732 126.798 112.123 127.079C108.515 127.36 104.89 126.802 101.532 125.45C98.1894 124.171 95.2296 122.056 92.9349 119.305C91.9664 118.248 91.0826 117.115 90.2919 115.918C87.9007 111.864 86.7689 107.188 87.0406 102.487C87.3124 97.7852 88.9755 93.2715 91.8178 89.5207C93.6969 87.3496 95.8491 85.4319 98.2208 83.8156C102.273 81.4073 106.952 80.2694 111.655 80.5484C117.11 80.8486 122.287 83.0547 126.286 86.783C127.895 88.4552 129.323 90.2939 130.545 92.2684V92.2584Z" fill="#3D3D3D"/>
<path d="M246.097 218.401C244.501 216.912 244.102 216.552 243.992 216.492C243.883 216.432 240.302 218.82 237.649 220.949L236.562 221.808L235.565 221.118C234.991 220.739 234.395 220.396 233.779 220.089C232.36 219.407 230.905 218.8 229.421 218.271L228.783 218.051C228.783 218.051 228.673 215.983 228.563 213.515C228.454 211.047 228.354 208.949 228.344 208.889C228.244 208.619 225.352 208.219 223.038 208.13C220.724 208.04 217.892 208.189 217.862 208.389C217.712 209.139 217.263 211.896 216.865 214.224C216.635 215.783 216.426 217.132 216.396 217.222C216.366 217.312 216.037 217.422 215.538 217.502C214.058 217.771 212.61 218.196 211.22 218.77L209.444 219.55C209.147 219.665 208.86 219.805 208.587 219.969C208.497 220.049 208.327 219.969 207.908 219.54C204.837 216.672 201.825 213.975 201.665 213.975C201.196 213.975 197.845 216.652 196.23 218.331C195.386 219.154 194.625 220.058 193.956 221.029C193.956 221.088 195.821 223.666 198.733 227.643L199.232 228.312L198.942 228.652C198.747 228.91 198.573 229.184 198.424 229.471C198.304 229.731 197.895 230.47 197.526 231.05C196.758 232.411 196.149 233.856 195.711 235.356C195.671 235.613 195.575 235.859 195.432 236.076C195.352 236.076 193.995 236.166 192.44 236.216C188.021 236.355 186.575 236.445 186.525 236.605C186.153 238.268 185.917 239.959 185.817 241.661C185.678 243.929 185.817 247.176 185.997 247.156C186.176 247.136 187.393 247.336 188.939 247.576L193.148 248.205C193.916 248.305 194.644 248.405 194.773 248.435C194.903 248.465 195.033 248.675 195.292 249.844C195.676 251.576 196.272 253.254 197.067 254.84C197.286 255.259 197.482 255.689 197.656 256.129C197.033 257.027 196.325 257.864 195.541 258.626C193.417 260.954 191.761 262.823 191.642 263.023C191.522 263.222 193.557 265.78 195.452 267.809C196.442 268.963 197.556 270.005 198.773 270.916C198.773 270.916 200.359 269.797 202.204 268.418C204.049 267.039 205.704 265.84 205.874 265.74C206.213 265.51 206.193 265.501 207.869 266.53C209.395 267.449 211.021 268.19 212.716 268.738C213.097 268.813 213.461 268.955 213.793 269.157C213.793 269.217 213.853 270.067 213.873 271.036C213.869 273.481 214.022 275.924 214.331 278.35C215.198 278.602 216.086 278.772 216.984 278.859C219.587 279.047 222.2 279.047 224.803 278.859C224.803 278.859 225.123 276.931 225.462 274.643C225.801 272.355 226.09 270.306 226.12 270.097L226.18 269.727L227.516 269.387C229.279 268.943 230.993 268.324 232.633 267.539L233.63 267.009L235.086 268.368L238.387 271.545L240.312 273.314L240.571 273.174C241.708 272.428 242.795 271.607 243.823 270.716C245.767 269.047 248.291 266.42 248.291 266.05C248.291 265.96 247.084 264.292 245.628 262.323C244.172 260.355 242.985 258.706 242.975 258.656C243.064 258.443 243.188 258.247 243.344 258.077C244.495 256.38 245.433 254.548 246.136 252.622L246.635 251.233H247.273L251.732 251.063C253.836 250.963 255.611 250.893 255.721 250.873C256.101 249.748 256.313 248.573 256.349 247.386C256.599 245.058 256.529 240.312 256.23 240.252C255.133 240.032 251.063 239.363 249.607 239.163L247.523 238.853C247.353 238.853 247.194 238.364 246.655 236.325C246.36 235.093 245.956 233.889 245.448 232.729C245.255 232.286 245.028 231.858 244.77 231.45C244.591 231.25 244.561 231.27 246.456 229.232C247.862 227.733 250.864 224.376 250.864 224.316C250.41 223.525 249.882 222.779 249.288 222.088C248.299 220.796 247.233 219.565 246.097 218.401V218.401ZM232.603 236.995C233.918 239.181 234.521 241.723 234.328 244.269C234.249 246.793 233.404 249.233 231.904 251.263C230.355 253.398 228.196 255.012 225.712 255.893C223.229 256.774 220.537 256.881 217.992 256.198C215.695 255.631 213.614 254.401 212.007 252.661C210.467 251.161 209.363 249.268 208.816 247.186C208.043 244.491 208.176 241.615 209.195 239.003C209.918 236.993 211.169 235.216 212.815 233.858C214.877 231.93 217.549 230.788 220.365 230.63C222.059 230.454 223.771 230.629 225.394 231.145C227.017 231.661 228.517 232.506 229.8 233.628C230.826 234.67 231.764 235.796 232.603 236.995V236.995Z" fill="#3D3D3D"/>
<path d="M227.935 234.627C226.298 233.471 224.385 232.77 222.389 232.594C220.394 232.419 218.388 232.775 216.575 233.628C215.659 234.056 214.836 234.66 214.152 235.406C212.978 236.27 212.047 237.423 211.449 238.753C210.511 240.83 210.146 243.121 210.392 245.388C210.578 246.624 210.955 247.824 211.509 248.944C212.411 250.468 213.6 251.801 215.009 252.871C216.178 253.671 217.499 254.222 218.889 254.49C220.838 254.948 222.875 254.867 224.781 254.255C226.687 253.642 228.391 252.521 229.71 251.013C231.453 249.167 232.449 246.739 232.503 244.199C232.585 242.315 232.209 240.439 231.406 238.733C230.523 237.154 229.344 235.76 227.935 234.627V234.627ZM228.603 239.513C229.218 240.598 229.588 241.806 229.688 243.05C229.788 244.295 229.615 245.546 229.182 246.716C228.956 247.229 228.686 247.721 228.374 248.185C227.896 248.887 227.302 249.502 226.618 250.004C226.004 250.606 225.279 251.084 224.484 251.412C223.201 251.899 221.821 252.078 220.456 251.934C219.091 251.79 217.779 251.327 216.625 250.583C215.611 249.786 214.735 248.827 214.032 247.746C213.321 246.341 213.001 244.771 213.104 243.199C213.135 242.559 213.229 241.923 213.384 241.301C214.038 239.173 215.503 237.389 217.462 236.336C219.42 235.283 221.714 235.046 223.846 235.676C224.797 236.001 225.692 236.473 226.499 237.075C227.312 237.783 228.02 238.604 228.603 239.513V239.513Z" fill="#3D3D3D"/>
<path d="M201.086 25.1358C199.521 25.7153 197.606 26.4746 195.591 27.3039L193.367 28.2131L192.699 27.4737C191.23 25.8712 189.576 24.4492 187.772 23.2374C187.454 23.0502 187.151 22.8398 186.864 22.6079C186.864 22.6079 186.974 22.1183 187.104 21.5488C187.563 19.6105 188.819 13.7755 188.789 13.7455C188.23 13.4272 187.654 13.1403 187.064 12.8862L186.067 12.4866C185.727 12.3367 185.069 12.0869 184.541 11.927L182.676 11.3275C181.578 10.9955 180.458 10.7417 179.325 10.5682L178.826 10.5182L177.898 12.6564L176.133 16.7729L175.285 18.7712L174.398 18.7212C172.087 18.6073 169.771 18.7886 167.506 19.2608C167.33 19.3226 167.144 19.3497 166.957 19.3407C166.957 19.3407 166.309 18.3415 165.571 17.1226C164.145 14.7946 162.16 11.6972 162.11 11.7072C162.061 11.7172 160.036 12.4266 159.198 12.7663C157.1 13.7861 155.083 14.9652 153.164 16.2933L152.825 16.5331L154.401 20.6895L155.977 24.856L155.408 25.3855C154.427 26.293 153.511 27.2678 152.666 28.303L151.748 29.512C151.529 29.8018 151.18 30.3013 150.96 30.641C150.821 30.8819 150.664 31.1123 150.491 31.3305C149.78 31.2589 149.077 31.1285 148.387 30.9408C147.27 30.681 145.325 30.2514 144.059 29.9416C142.004 29.492 141.745 29.4621 141.645 29.6019C140.749 31.4576 140.011 33.3863 139.441 35.367C139.132 36.4461 138.643 38.5243 138.573 39.0339L138.523 39.4036L139.969 40.033C141.396 40.6425 146.033 42.6807 146.512 42.9106L146.761 43.0105V44.5192C146.697 46.166 146.841 47.8144 147.19 49.425C147.42 50.7239 147.469 51.1635 147.37 51.2334L145.375 52.5323C143.51 53.7113 140.189 55.8895 140.039 56.0293C139.89 56.1692 140.039 56.2192 140.039 56.369C140.74 58.2881 141.59 60.1489 142.582 61.9343C143.189 63.1272 143.9 64.264 144.707 65.3314C144.926 65.3314 150.132 63.3331 152.287 62.4538L153.174 62.0742L154.002 62.9934C155.293 64.4838 156.807 65.7646 158.49 66.7901C159.368 67.3497 159.487 67.4796 159.487 67.5995C159.487 67.7194 159.029 69.6877 158.49 72.0556C157.951 74.4236 157.493 76.3719 157.493 76.3919C158.464 76.878 159.463 77.305 160.485 77.6708C161.488 78.0632 162.514 78.3968 163.557 78.67C164.8 79.0085 166.062 79.2754 167.336 79.4693C167.536 79.4693 167.576 79.4693 168.334 77.6608C168.793 76.6617 169.6 74.7933 170.159 73.5244L171.156 71.2164H172.563C174.429 71.2703 176.295 71.0925 178.118 70.6868C178.395 70.6082 178.679 70.5514 178.965 70.517C178.965 70.517 179.414 71.1564 179.893 71.9158C182.356 75.8324 183.803 78.0905 183.882 78.1404C185.597 77.5891 187.264 76.9008 188.869 76.0822C189.084 75.9592 189.307 75.8523 189.537 75.7625C189.717 75.7025 192.26 74.1339 192.888 73.6942L193.207 73.4744L193.068 73.0648C192.908 72.5352 191.602 69.1281 190.684 66.8301L189.956 64.9817L190.904 64.1324C191.829 63.3302 192.668 62.4326 193.407 61.4547C193.916 60.8053 194.953 59.3365 195.232 58.8969C195.282 58.807 195.781 58.8969 197.227 59.2066C199.351 59.6862 204.108 60.6754 204.208 60.6454C204.725 59.7989 205.147 58.8974 205.465 57.9577C206.261 55.9518 206.849 53.8693 207.22 51.743L207.4 50.7439L206.323 50.2443C204.827 49.5649 202.393 48.4958 200.658 47.7764L199.211 47.1769V45.6682C199.265 44.1805 199.172 42.6912 198.932 41.222C198.813 40.6625 198.643 39.4735 198.633 39.2237C199.208 38.7781 199.808 38.3645 200.428 37.9848C205.415 34.7875 206.233 34.238 206.233 34.208C206.233 34.178 206.013 33.5985 205.754 32.9091C205.348 31.7348 204.854 30.5925 204.278 29.492C204.157 29.3108 204.056 29.1164 203.979 28.9125C203.291 27.5571 202.525 26.2427 201.685 24.9759C201.705 24.9459 201.555 24.9759 201.086 25.1358ZM184.132 38.2845C185.357 40.3083 186.044 42.6132 186.126 44.9788C186.128 48.195 184.939 51.2976 182.789 53.686C180.639 56.0744 177.681 57.5787 174.487 57.9077C171.15 58.0882 167.859 57.0637 165.212 55.0202C164.276 54.2009 163.445 53.2678 162.739 52.2426C161.727 50.6486 161.02 48.88 160.654 47.027C160.405 45.2732 160.504 43.4873 160.948 41.7723C161.391 40.0574 162.169 38.4475 163.237 37.0356C164.103 36.0027 165.11 35.0978 166.229 34.3479C167.824 33.2782 169.642 32.5896 171.544 32.3349C173.446 32.0803 175.381 32.2665 177.2 32.8791C180.099 33.7893 182.576 35.7107 184.182 38.2945L184.132 38.2845Z" fill="#3D3D3D"/>
</svg>
