<svg width="110" height="111" viewBox="0 0 110 111" fill="none" xmlns="http://www.w3.org/2000/svg">
<path d="M54.9999 23.9221C52.3029 23.9221 49.7001 24.7234 47.4734 26.2392C46.8048 26.6942 46.6292 27.6088 47.0806 28.2822C47.532 28.9558 48.4398 29.1325 49.1083 28.6779C50.8507 27.4919 52.8878 26.8652 54.9999 26.8652C60.8113 26.8652 65.5388 31.6285 65.5388 37.4835C65.5388 43.3385 60.8113 48.1018 54.9999 48.1018C49.1886 48.1018 44.4611 43.3385 44.4611 37.4835C44.4611 35.7506 44.8841 34.0319 45.6839 32.5136C46.0618 31.7957 45.791 30.9049 45.0786 30.5237C44.3656 30.143 43.482 30.4159 43.1036 31.1336C42.0808 33.0754 41.54 35.2713 41.54 37.4835C41.54 44.9614 47.5783 51.0449 54.9999 51.0449C62.4216 51.0449 68.4599 44.9612 68.4599 37.4835C68.4599 30.0056 62.4218 23.9221 54.9999 23.9221Z" fill="#FFD80D"/>
<path d="M104.888 103.663L93.8126 76.852C93.8102 76.8465 93.8081 76.8408 93.8058 76.8353L90.4729 68.7675C90.2464 68.2189 89.7143 67.8615 89.1245 67.8615H74.7598C77.554 64.0534 79.8794 60.2601 81.6956 56.5356C84.9142 49.9352 86.5462 43.5252 86.5462 37.4834C86.5462 19.9579 72.3946 5.69995 55.0001 5.69995C37.6056 5.69995 23.4538 19.9579 23.4538 37.4836C23.4538 43.5254 25.0856 49.9355 28.3044 56.5358C30.1206 60.2603 32.446 64.0534 35.2401 67.8617H20.8753C20.2854 67.8617 19.7534 68.2193 19.5269 68.7677L13.4038 83.5904C13.0938 84.3407 13.4462 85.2023 14.1909 85.5144C14.9354 85.8268 15.7905 85.4716 16.1005 84.7213L17.4126 81.5451C18.881 81.5163 21.7538 81.3284 25.1288 80.4171C30.6563 78.9241 35.2501 76.0763 38.5644 72.1303C38.6558 72.2411 38.7452 72.3522 38.8374 72.463C39.9089 73.7523 40.9772 74.9734 42.0239 76.1249C35.3772 78.4405 31.4185 82.4082 31.4185 86.781C31.4185 88.4472 31.9854 90.0289 33.0233 91.4744C28.5149 94.2697 23.5884 95.4803 18.3517 95.0736C15.7165 94.8687 13.5985 94.2788 12.3329 93.8431L13.8534 90.1621C14.1634 89.4118 13.811 88.5503 13.0663 88.2382C12.3212 87.9253 11.4665 88.2807 11.1567 89.0312L5.1122 103.663C4.92451 104.117 4.97451 104.636 5.2456 105.045C5.5165 105.454 5.97236 105.7 6.46064 105.7H64.054C64.0554 105.7 64.0567 105.7 64.0581 105.7C64.0593 105.7 64.0604 105.7 64.0618 105.7H103.54C104.028 105.7 104.484 105.454 104.755 105.045C105.025 104.636 105.075 104.117 104.888 103.663ZM88.1503 70.8046L90.3192 76.0551C83.9796 76.698 79.1003 80.0476 76.8433 81.8983C75.0532 79.5084 71.9657 77.4977 67.9862 76.1135C69.0296 74.9653 70.0946 73.748 71.1626 72.4628C71.622 71.9101 72.069 71.3573 72.5093 70.8046H88.1503ZM24.4614 77.5504C22.1669 78.178 20.1042 78.4361 18.6544 78.5396L21.8497 70.8046H35.8481C32.9809 73.9985 29.1647 76.2639 24.4614 77.5504ZM41.077 70.5739C28.9253 55.9517 26.3749 44.5083 26.3749 37.4836C26.3749 21.5808 39.2161 8.64301 55.0001 8.64301C70.7841 8.64301 83.6253 21.5808 83.6253 37.4836C83.6253 44.4989 81.0811 55.9263 68.9606 70.5283C63.1145 77.5715 57.1985 82.7147 54.9997 84.5421C52.8071 82.721 46.9192 77.6037 41.077 70.5739ZM65.7479 86.7808C65.7479 87.9828 61.9542 90.3223 54.9997 90.3223C48.0452 90.3223 44.2515 87.9828 44.2515 86.7808C44.2515 85.9364 46.1259 84.5318 49.6507 83.7701C52.228 86.124 53.9589 87.4818 54.1063 87.5967C54.3696 87.8019 54.6849 87.9043 55.0001 87.9043C55.3153 87.9043 55.6308 87.8017 55.8938 87.5967C56.0413 87.4818 57.772 86.1238 60.3497 83.7703C63.8737 84.532 65.7479 85.9364 65.7479 86.7808ZM78.779 102.757C81.0261 102.035 83.1425 101.205 85.1136 100.263C85.8423 99.9146 86.1528 99.0368 85.8071 98.3026C85.4612 97.5684 84.5901 97.2555 83.8614 97.6036C78.3749 100.226 71.6858 101.959 63.9804 102.757H8.65029L11.2071 96.5671C12.6196 97.0678 14.9989 97.75 17.996 97.9972C18.6868 98.054 19.4317 98.0887 20.2235 98.0887C24.3093 98.0887 29.6329 97.1675 35.0628 93.6566C39.2085 97.185 46.514 99.4825 54.9991 99.4825C55.8058 99.4825 56.4597 98.8238 56.4597 98.0109C56.4597 97.1982 55.8058 96.5394 54.9991 96.5394C49.3144 96.5394 43.9927 95.4272 40.0147 93.4076C36.4077 91.5764 34.339 89.1609 34.339 86.7808C34.339 83.7152 37.7546 80.6611 43.2528 78.8102C43.5685 78.7039 43.8227 78.4987 43.9964 78.2413C45.0923 79.3876 46.1458 80.4435 47.1331 81.4008C46.6739 81.5457 46.2321 81.7021 45.8147 81.8737C42.9224 83.0615 41.3296 84.8042 41.3296 86.7812C41.3296 88.7581 42.9226 90.501 45.8147 91.6885C48.2915 92.7057 51.5534 93.2655 54.9989 93.2655C58.4444 93.2655 61.7061 92.7055 64.1831 91.6885C67.0753 90.501 68.6683 88.7581 68.6683 86.7812C68.6683 84.8044 67.0753 83.0615 64.1831 81.8737C63.7661 81.7025 63.3245 81.5459 62.8657 81.4012C63.779 80.5155 64.7485 79.547 65.7563 78.4991C70.4331 79.8862 73.8997 82.1273 75.1495 84.6849C75.1731 84.7465 75.2005 84.8069 75.2327 84.8654C75.5104 85.489 75.6593 86.1299 75.6593 86.7812C75.6593 90.1653 71.5247 93.4879 65.1257 95.2456C64.3475 95.4595 63.8886 96.2684 64.1005 97.0524C64.2776 97.7069 64.8663 98.1373 65.5087 98.1373C65.6358 98.1373 65.7651 98.1203 65.8938 98.0851C73.719 95.9355 78.58 91.6041 78.58 86.7814C78.58 86.0236 78.4634 85.2825 78.2388 84.5633C80.0052 83.0406 85.0142 79.2593 91.4997 78.9143L95.3804 88.3088C94.7016 89.4047 92.7905 92.0498 88.7804 94.7914C88.1128 95.2475 87.939 96.1626 88.3919 96.8352C88.6743 97.2547 89.1341 97.4806 89.6018 97.4806C89.8841 97.4806 90.1692 97.3981 90.4206 97.2266C93.5011 95.1208 95.4886 93.0444 96.7017 91.5069L101.349 102.758H78.779V102.757Z" fill="#FFD80D"/>
</svg>
