<svg width="110" height="111" viewBox="0 0 110 111" fill="none" xmlns="http://www.w3.org/2000/svg">
<path d="M57.8955 68.7152C59.7408 68.5802 61.4229 67.6952 62.5149 66.2836L79.1115 44.7102C79.6202 44.0486 79.544 43.1352 78.9271 42.5552C78.3103 41.9769 77.3389 41.9052 76.6352 42.3819L53.6874 57.9919C52.1914 59.0152 51.2501 60.5969 51.1065 62.3319C50.963 64.0669 51.6312 65.7652 52.9376 66.9936C54.127 68.1136 55.7312 68.7336 57.3992 68.7336C57.564 68.7336 57.7289 68.7269 57.8955 68.7152ZM54.6411 62.5919C54.7031 61.8302 55.1179 61.1352 55.7702 60.6886L69.7682 51.1669L59.645 64.3252C59.1664 64.9436 58.4273 65.3319 57.6172 65.3919C56.8107 65.4419 56.0184 65.1786 55.4423 64.6369C54.8715 64.0986 54.5772 63.3519 54.6411 62.5919Z" fill="#FFD80D"/>
<path d="M97.6013 38.0067C97.5835 37.9717 97.5835 37.935 97.564 37.9C97.5428 37.8667 97.5091 37.8484 97.486 37.8167C95.694 34.9267 93.574 32.2384 91.1668 29.8017L94.9743 26.2234L97.4807 28.58L105 21.5084L97.4807 14.4384L89.9597 21.5084L92.4679 23.8667L88.6604 27.445C86.0689 25.1817 83.2115 23.1867 80.1361 21.5017C80.1024 21.48 80.0829 21.4484 80.0474 21.4284C80.0102 21.4084 79.9712 21.41 79.934 21.3917C74.4514 18.4217 68.2917 16.4434 61.7243 15.7184V13.7334H64.3831C66.8275 13.7334 68.8146 11.865 68.8146 9.56669C68.8146 7.26836 66.8258 5.40002 64.3814 5.40002H48.4282C45.9838 5.40002 43.9967 7.26836 43.9967 9.56669C43.9967 11.865 45.9838 13.7334 48.4282 13.7334H51.087V15.66C49.1727 15.8517 47.2618 16.145 45.3723 16.5517C44.4186 16.7567 43.8212 17.6517 44.041 18.5484C44.2591 19.445 45.2109 20.0084 46.1646 19.8C47.7954 19.4484 49.4421 19.1834 51.0924 19.005L52.9943 18.8667C53.5757 18.825 54.1111 18.795 54.6322 18.7717V22.0667C54.6322 22.9884 55.4245 23.7334 56.4048 23.7334C57.385 23.7334 58.1774 22.9884 58.1774 22.0667V18.7834C64.844 19.0717 71.126 20.755 76.7114 23.525L74.9637 26.37C74.4744 27.1684 74.7651 28.1867 75.6124 28.6467C75.8907 28.7984 76.1956 28.87 76.4969 28.87C77.1103 28.87 77.7058 28.5717 78.0338 28.0367L79.7762 25.1984C85.3226 28.5067 90.0341 32.9367 93.5527 38.1517L90.534 39.79C89.6885 40.25 89.3978 41.2684 89.8888 42.0667C90.2185 42.6017 90.8123 42.9 91.4256 42.9C91.7269 42.9 92.0318 42.8284 92.3101 42.6767L95.3359 41.0334C98.3227 46.36 100.118 52.3634 100.386 58.7317H96.8851C95.9049 58.7317 95.1126 59.4767 95.1126 60.3984C95.1126 61.32 95.9049 62.065 96.8851 62.065H100.386C100.118 68.4334 98.3227 74.4367 95.3359 79.7634L92.3101 78.12C91.4628 77.66 90.378 77.93 89.8888 78.73C89.3995 79.5284 89.6902 80.5467 90.5375 81.0067L93.5562 82.645C90.0377 87.86 85.3262 92.29 79.7798 95.5984L78.0373 92.76C77.5463 91.96 76.4597 91.6884 75.616 92.15C74.7669 92.61 74.4762 93.63 74.9672 94.4267L76.715 97.2717C71.1296 100.042 64.8476 101.725 58.1809 102.013V98.7334C58.1809 97.8117 57.3886 97.0667 56.4083 97.0667C55.4281 97.0667 54.6357 97.8117 54.6357 98.7334V102.027C51.8049 101.935 48.9653 101.602 46.1699 100.998C45.2163 100.783 44.2644 101.353 44.0464 102.25C43.8266 103.147 44.4239 104.042 45.3776 104.247C48.9156 105.013 52.5299 105.4 56.1158 105.4C56.2027 105.4 56.286 105.395 56.3729 105.393C56.3853 105.393 56.3941 105.4 56.4048 105.4C56.419 105.4 56.4314 105.392 56.4455 105.392C64.9663 105.337 72.9607 103.173 79.8773 99.4367C79.9322 99.4134 79.9907 99.4017 80.0439 99.3717C80.0793 99.3517 80.0988 99.32 80.1325 99.2984C87.292 95.375 93.2744 89.7567 97.4559 83.03C97.4896 82.985 97.5321 82.95 97.5623 82.9C97.5835 82.865 97.5818 82.8284 97.5995 82.7934C101.648 76.1934 103.975 68.55 103.975 60.4C103.975 52.25 101.648 44.6067 97.6013 38.0067ZM97.479 19.1517L99.9854 21.5084L97.479 23.8667L94.9708 21.5084L97.479 19.1517ZM54.6322 15.435V10.4H48.4282C47.9407 10.4 47.5419 10.025 47.5419 9.56669C47.5419 9.10836 47.9407 8.73336 48.4282 8.73336H64.3814C64.8688 8.73336 65.2677 9.10836 65.2677 9.56669C65.2677 10.025 64.8688 10.4 64.3814 10.4H58.1774V15.435C57.5605 15.4117 56.972 15.4 56.4048 15.4C56.3551 15.4 56.2984 15.4034 56.2488 15.4034C56.2045 15.4034 56.1602 15.4 56.1158 15.4C55.8251 15.4 55.5344 15.4184 55.2437 15.4234C55.0381 15.4284 54.8449 15.4267 54.6322 15.435Z" fill="#FFD80D"/>
<path d="M40.4515 28.7333H31.5886C30.6084 28.7333 29.8161 29.4784 29.8161 30.4001C29.8161 31.3219 30.6084 32.0669 31.5886 32.0669H40.4515C41.4318 32.0669 42.2241 31.3219 42.2241 30.4001C42.2241 29.4784 41.4318 28.7333 40.4515 28.7333Z" fill="#FFD80D"/>
<path d="M40.4516 40.3999H22.7258C21.7455 40.3999 20.9532 41.145 20.9532 42.0667C20.9532 42.9885 21.7455 43.7336 22.7258 43.7336H40.4516C41.4318 43.7336 42.2241 42.9885 42.2241 42.0667C42.2241 41.145 41.4318 40.3999 40.4516 40.3999Z" fill="#FFD80D"/>
<path d="M40.4516 52.0665H13.8629C12.8827 52.0665 12.0903 52.8116 12.0903 53.7334C12.0903 54.6551 12.8827 55.4002 13.8629 55.4002H40.4516C41.4318 55.4002 42.2242 54.6551 42.2242 53.7334C42.2242 52.8116 41.4318 52.0665 40.4516 52.0665Z" fill="#FFD80D"/>
<path d="M40.4516 63.7334H6.77258C5.79234 63.7334 5 64.4785 5 65.4002C5 66.322 5.79234 67.0671 6.77258 67.0671H40.4516C41.4318 67.0671 42.2241 66.322 42.2241 65.4002C42.2241 64.4785 41.4318 63.7334 40.4516 63.7334Z" fill="#FFD80D"/>
<path d="M40.4516 75.4H17.408C16.4278 75.4 15.6355 76.1451 15.6355 77.0669C15.6355 77.9886 16.4278 78.7337 17.408 78.7337H40.4516C41.4318 78.7337 42.2241 77.9886 42.2241 77.0669C42.2241 76.1451 41.4318 75.4 40.4516 75.4Z" fill="#FFD80D"/>
<path d="M40.4516 87.0667H28.0435C27.0633 87.0667 26.271 87.8117 26.271 88.7335C26.271 89.6553 27.0633 90.4003 28.0435 90.4003H40.4516C41.4318 90.4003 42.2242 89.6553 42.2242 88.7335C42.2242 87.8117 41.4318 87.0667 40.4516 87.0667Z" fill="#FFD80D"/>
</svg>
