<svg width="110" height="111" viewBox="0 0 110 111" fill="none" xmlns="http://www.w3.org/2000/svg">
<path d="M97.9998 51.136L95.4101 41.3109C96.1181 41.1682 96.6494 40.5724 96.6494 39.8587V38.2745C96.6494 34.835 93.6992 32.0369 90.0732 32.0369H78.2779V28.7693C78.2779 27.0768 76.8263 25.7 75.0419 25.7H14.9164C13.132 25.7 11.6805 27.0768 11.6805 28.7693V55.7002C11.6805 56.5204 12.3815 57.1854 13.2463 57.1854C14.111 57.1854 14.8121 56.5206 14.8121 55.7002V28.7693C14.8121 28.7147 14.8588 28.6704 14.9164 28.6704H75.0417C75.0994 28.6704 75.146 28.7147 75.146 28.7693V55.7006C75.146 56.5207 75.847 57.1858 76.7119 57.1858C77.5765 57.1858 78.2777 56.5209 78.2777 55.7006V54.017H96.7482C96.7498 54.017 96.751 54.0173 96.7523 54.0173C96.7539 54.0173 96.7553 54.0172 96.7566 54.0172C99.0295 54.0186 100.959 55.4336 101.622 57.3835H96.7535C95.8889 57.3835 95.1877 58.0484 95.1877 58.8687V62.037C95.1877 64.603 97.3885 66.6905 100.094 66.6905H101.868V73.2251H97.7742C96.4293 69.5416 92.7377 66.8883 88.4027 66.8883C84.0677 66.8883 80.3759 69.5416 79.0312 73.2251H78.2773V62.0368C78.2773 61.2167 77.5763 60.5516 76.7115 60.5516C75.8468 60.5516 75.1456 61.2165 75.1456 62.0368V73.2247H42.6596C41.3147 69.5412 37.6231 66.888 33.2881 66.888C28.9532 66.888 25.2614 69.5412 23.9166 73.2247H14.9164C14.8588 73.2247 14.8121 73.1804 14.8121 73.1258V69.8584H21.5971C22.4618 69.8584 23.1629 69.1935 23.1629 68.3732C23.1629 67.5528 22.4619 66.888 21.5971 66.888H6.56582C5.70117 66.888 5 67.5528 5 68.3732C5 69.1935 5.70098 69.8584 6.56582 69.8584H11.6807V73.1258C11.6807 74.8183 13.1322 76.1951 14.9166 76.1951H23.3745C23.3741 76.2281 23.3717 76.2609 23.3717 76.294C23.3717 81.4805 27.8204 85.7 33.2881 85.7C38.7559 85.7 43.2046 81.4805 43.2046 76.294C43.2046 76.2607 43.2022 76.2281 43.2018 76.1951H78.489C78.4886 76.2281 78.4863 76.2609 78.4863 76.294C78.4863 81.4805 82.9349 85.7 88.4027 85.7C93.8705 85.7 98.3191 81.4805 98.3191 76.294C98.3191 76.2607 98.3168 76.2281 98.3164 76.1951H103.434C104.299 76.1951 105 75.5302 105 74.7099V58.8683C105 54.9572 101.958 51.7076 97.9998 51.136ZM78.2779 35.0071H90.0732C91.9726 35.0071 93.518 36.4729 93.518 38.2745V38.3734H78.2779V35.0071ZM78.2779 51.0467V41.3437H92.191L94.7484 51.0467H78.2779ZM33.2881 82.7301C29.5469 82.7301 26.5032 79.8432 26.5032 76.2944C26.5032 72.7456 29.5469 69.8587 33.2881 69.8587C37.0294 69.8587 40.0731 72.7456 40.0731 76.2944C40.0731 79.8432 37.0294 82.7301 33.2881 82.7301ZM88.4031 82.7301C84.6619 82.7301 81.6181 79.8432 81.6181 76.2944C81.6181 72.7456 84.6619 69.8587 88.4031 69.8587C92.1443 69.8587 95.1881 72.7456 95.1881 76.2944C95.1881 79.8432 92.1443 82.7301 88.4031 82.7301ZM101.869 63.72H100.094C99.1156 63.72 98.3195 62.9649 98.3195 62.0368V60.3535H101.869V63.72H101.869Z" fill="#FFD80D"/>
<path d="M33.2433 71.2249C31.4768 71.2249 30.0397 72.6018 30.0397 74.2945C30.0397 75.9872 31.4768 77.3642 33.2433 77.3642C35.0099 77.3642 36.4469 75.9872 36.4469 74.2945C36.4469 72.6018 35.0099 71.2249 33.2433 71.2249Z" fill="#FFD80D"/>
<path d="M87.8071 71.2249C86.0406 71.2249 84.6035 72.6018 84.6035 74.2945C84.6035 75.9872 86.0406 77.3642 87.8071 77.3642C89.5736 77.3642 91.0107 75.9872 91.0107 74.2945C91.0107 72.6018 89.5736 71.2249 87.8071 71.2249Z" fill="#FFD80D"/>
<path d="M69.6191 64.8885H46.4708C45.6148 64.8885 44.9207 65.5535 44.9207 66.3739C44.9207 67.1944 45.6147 67.8593 46.4708 67.8593H69.6191C70.4751 67.8593 71.1693 67.1944 71.1693 66.3739C71.1693 65.5535 70.4753 64.8885 69.6191 64.8885Z" fill="#FFD80D"/>
<path d="M29.9364 58.5516H10.095C9.23902 58.5516 8.54486 59.2166 8.54486 60.037C8.54486 60.8574 9.23883 61.5224 10.095 61.5224H29.9364C30.7924 61.5224 31.4866 60.8574 31.4866 60.037C31.4866 59.2166 30.7924 58.5516 29.9364 58.5516Z" fill="#FFD80D"/>
<path d="M59.1413 38.3921C58.5361 37.8123 57.5544 37.8123 56.9492 38.3923L43.1642 51.5995L35.993 44.7289C35.3876 44.1488 34.4061 44.1488 33.8009 44.7289C33.1955 45.3089 33.1955 46.2491 33.8009 46.8292L42.0682 54.75C42.3708 55.0401 42.7676 55.185 43.1642 55.185C43.5608 55.185 43.9577 55.0401 44.2601 54.75L59.1411 40.4926C59.7465 39.9124 59.7465 38.9722 59.1413 38.3921Z" fill="#FFD80D"/>
</svg>
