<svg width="110" height="111" viewBox="0 0 110 111" fill="none" xmlns="http://www.w3.org/2000/svg">
<path d="M103.387 105.7C104.277 105.7 105 104.979 105 104.087V97.6354C105 88.1806 97.5613 80.4532 88.2323 79.9435C90.3306 78.2677 91.9468 76.0209 92.8629 73.4419H93.7097C96.3774 73.4419 98.5484 71.2709 98.5484 68.6032C98.5484 65.9354 96.3774 63.7645 93.7097 63.7645H96.9355C97.8258 63.7645 98.5484 63.0435 98.5484 62.1516V55.6999C98.5484 54.8096 97.8258 54.087 96.9355 54.087H95.3226C95.3226 46.9983 90.721 40.9774 84.3532 38.8193C78.3081 28.3274 67.129 21.829 55 21.829C42.8548 21.829 31.6968 28.3241 25.65 38.8177C19.2806 40.9758 14.6774 46.9983 14.6774 54.087H13.0645C12.1742 54.087 11.4516 54.8096 11.4516 55.6999V62.1516C11.4516 63.0435 12.1742 63.7645 13.0645 63.7645H16.2903C13.6226 63.7645 11.4516 65.9354 11.4516 68.6032C11.4516 71.2709 13.6226 73.4419 16.2903 73.4419H17.1371C18.0532 76.0209 19.6694 78.2661 21.7677 79.9435C12.4387 80.4532 5 88.1806 5 97.6354V104.087C5 104.979 5.72258 105.7 6.6129 105.7H103.387ZM82.6323 83.1193L79.1935 88.2757L75.7548 83.1193H82.6323ZM71.879 83.1193L76.5823 90.1741L73.5355 90.9354L69.1548 83.2693C69.8032 83.1806 70.4581 83.1193 71.129 83.1193H71.879ZM86.5081 83.1193H87.2581C87.929 83.1193 88.5839 83.1806 89.2323 83.2693L84.8516 90.9354L81.8048 90.1741L86.5081 83.1193ZM79.1935 79.8935C72.9677 79.8935 67.9032 74.8274 67.9032 68.6032V63.7645H90.4839V68.6032C90.4839 74.8274 85.4193 79.8935 79.1935 79.8935ZM64.7726 70.2161H64.6774C63.7887 70.2161 63.0645 69.4935 63.0645 68.6032C63.0645 67.7128 63.7887 66.9903 64.6774 66.9903V68.6032C64.6774 69.1483 64.7129 69.6854 64.7726 70.2161ZM95.3226 68.6032C95.3226 69.4935 94.5984 70.2161 93.7097 70.2161H93.6145C93.6742 69.6854 93.7097 69.1483 93.7097 68.6032V66.9903C94.5984 66.9903 95.3226 67.7128 95.3226 68.6032ZM95.3226 60.5387H63.0645V57.3128H95.3226V60.5387ZM77.5806 54.087H66.2903C66.2903 47.5193 71.2258 42.0935 77.5806 41.2951V54.087ZM92.0968 54.087H80.8064V41.2951C87.1613 42.0935 92.0968 47.5193 92.0968 54.087ZM55 25.0548C65.0048 25.0548 74.2919 29.9451 80.0016 37.9983C79.7323 37.9854 79.4661 37.958 79.1935 37.958C70.3 37.958 63.0645 45.1935 63.0645 54.087H61.4516C60.5613 54.087 59.8387 54.8096 59.8387 55.6999V62.1516C59.8387 63.0435 60.5613 63.7645 61.4516 63.7645H64.6774C62.0097 63.7645 59.8387 65.9354 59.8387 68.6032C59.8387 71.2709 62.0097 73.4419 64.6774 73.4419H65.5242C66.4403 76.0209 68.0564 78.2661 70.1548 79.9435C63.4129 80.3128 57.671 84.4467 55 90.2887C52.3274 84.4483 46.5855 80.3128 39.8452 79.9435C41.9435 78.2677 43.5597 76.0209 44.4758 73.4419H45.3226C47.9903 73.4419 50.1613 71.2709 50.1613 68.6032C50.1613 65.9354 47.9903 63.7645 45.3226 63.7645H48.5484C49.4387 63.7645 50.1613 63.0435 50.1613 62.1516V55.6999C50.1613 54.8096 49.4387 54.087 48.5484 54.087H46.9355C46.9355 45.1935 39.7 37.958 30.8064 37.958C30.5323 37.958 30.2661 37.9854 29.9952 37.9983C35.7032 29.9403 44.9806 25.0548 55 25.0548ZM53.3871 102.474H46.9355V92.7967H43.7097V102.474H32.4194V93.2483L36.8661 94.3596C36.9968 94.3935 37.1274 94.4096 37.2581 94.4096C37.8274 94.4096 38.3661 94.1064 38.6581 93.5967L44.0823 84.1032C49.5161 86.2032 53.3871 91.4693 53.3871 97.6354V102.474ZM23.4919 83.1193L28.1952 90.1741L25.1484 90.9354L20.7677 83.2693C21.4161 83.1806 22.071 83.1193 22.7419 83.1193H23.4919ZM34.2452 83.1193L30.8064 88.2757L27.3677 83.1193H34.2452ZM38.871 83.1193C39.5419 83.1193 40.1968 83.1806 40.8452 83.2693L36.4645 90.9354L33.4177 90.1741L38.121 83.1193H38.871ZM45.3226 68.6032V66.9903C46.2113 66.9903 46.9355 67.7128 46.9355 68.6032C46.9355 69.4935 46.2113 70.2161 45.3226 70.2161H45.2274C45.2871 69.6854 45.3226 69.1483 45.3226 68.6032ZM32.4194 41.2951C38.7742 42.0935 43.7097 47.5193 43.7097 54.087H32.4194V41.2951ZM29.1935 41.2951V54.087H17.9032C17.9032 47.5193 22.8387 42.0935 29.1935 41.2951ZM14.6774 60.5387V57.3128H46.9355V60.5387H14.6774ZM16.2903 70.2161C15.4016 70.2161 14.6774 69.4935 14.6774 68.6032C14.6774 67.7128 15.4016 66.9903 16.2903 66.9903V68.6032C16.2903 69.1483 16.3258 69.6854 16.3855 70.2161H16.2903ZM19.5161 68.6032V63.7645H42.0968V68.6032C42.0968 74.8274 37.0323 79.8935 30.8064 79.8935C24.5806 79.8935 19.5161 74.8274 19.5161 68.6032ZM8.22581 97.6354C8.22581 91.4693 12.0968 86.2032 17.529 84.1032L22.9532 93.5967C23.2452 94.1064 23.7855 94.4096 24.3548 94.4096C24.4855 94.4096 24.6161 94.3935 24.7468 94.3612L29.1935 93.2483V102.474H17.9032V92.7967H14.6774V102.474H8.22581V97.6354ZM56.6129 97.6354C56.6129 91.4693 60.4839 86.2032 65.9161 84.1032L71.3403 93.5967C71.6323 94.1064 72.1726 94.4096 72.7419 94.4096C72.8726 94.4096 73.0032 94.3935 73.1339 94.3612L77.5806 93.2483V102.474H66.2903V92.7967H63.0645V102.474H56.6129V97.6354ZM101.774 102.474H95.3226V92.7967H92.0968V102.474H80.8064V93.2483L85.2532 94.3596C85.3839 94.3935 85.5145 94.4096 85.6452 94.4096C86.2145 94.4096 86.7532 94.1064 87.0452 93.5967L92.4693 84.1032C97.9032 86.2032 101.774 91.4693 101.774 97.6354V102.474Z" fill="#FFD80D"/>
<path d="M103.387 46.0225H97.4613C96.3661 41.1871 94.4742 36.6306 91.8258 32.4451L96.4629 27.808C97.0935 27.1774 97.0935 26.158 96.4629 25.5274L85.1726 14.2371C84.5419 13.6064 83.5226 13.6064 82.8919 14.2371L78.2548 18.8741C74.0694 16.2241 69.5129 14.3338 64.6774 13.2387V7.31285C64.6774 6.42253 63.9548 5.69995 63.0645 5.69995H46.9355C46.0452 5.69995 45.3226 6.42253 45.3226 7.31285V13.2387C40.4871 14.3338 35.9306 16.2258 31.7452 18.8741L27.1081 14.2371C26.4774 13.6064 25.4581 13.6064 24.8274 14.2371L13.5371 25.5274C12.9065 26.158 12.9065 27.1774 13.5371 27.808L18.1742 32.4451C15.5242 36.6306 13.6339 41.1871 12.5387 46.0225H6.6129C5.72258 46.0225 5 46.7451 5 47.6354V63.7645C5 64.6564 5.72258 65.3774 6.6129 65.3774H9.83871V62.1516H8.22581V49.2484H13.8468C14.6194 49.2484 15.2823 48.7016 15.429 47.9435C16.4677 42.6113 18.5355 37.629 21.5758 33.1354C22.0097 32.4951 21.9274 31.6371 21.3806 31.0903L16.9581 26.6677L25.9677 17.658L30.3919 22.0822C30.9371 22.6274 31.7935 22.7112 32.4371 22.2774C36.9306 19.2371 41.9129 17.1693 47.2452 16.1306C48.0016 15.9822 48.5484 15.3193 48.5484 14.5467V8.92576H61.4516V14.5467C61.4516 15.3193 61.9984 15.9822 62.7564 16.129C68.0887 17.1677 73.071 19.2354 77.5645 22.2758C78.2081 22.7096 79.0629 22.6258 79.6097 22.0806L84.0322 17.658L93.0419 26.6677L88.6177 31.0919C88.071 31.6387 87.9887 32.4967 88.4226 33.1371C91.4629 37.6306 93.5306 42.6129 94.5694 47.9451C94.7177 48.7016 95.3806 49.2484 96.1532 49.2484H101.774V62.1516H100.161V65.3774H103.387C104.277 65.3774 105 64.6564 105 63.7645V47.6354C105 46.7451 104.277 46.0225 103.387 46.0225Z" fill="#FFD80D"/>
</svg>
