<svg width="110" height="111" viewBox="0 0 110 111" fill="none" xmlns="http://www.w3.org/2000/svg">
<path d="M105 45.7226V10.2387C105 7.57099 102.829 5.40002 100.161 5.40002H38.871C36.2032 5.40002 34.0323 7.57099 34.0323 10.2387V18.3597C33.4726 18.3226 32.9419 18.3033 32.4194 18.3033C17.3 18.3033 5 30.6033 5 45.7226C5 58.6162 13.9565 69.4307 25.9677 72.3436V77.9807C25.9677 78.8468 26.2145 79.6484 26.6145 80.3532C25.2613 81.2113 24.3548 82.7145 24.3548 84.4323V97.3355C24.3548 101.782 27.9726 105.4 32.4194 105.4C36.8661 105.4 40.4839 101.782 40.4839 97.3355V84.4323C40.4839 82.7145 39.5774 81.2113 38.2242 80.3532C38.6242 79.6484 38.871 78.8468 38.871 77.9807V72.3436C45.4097 70.7533 51.0742 66.8145 54.8597 61.4097L56.0548 63.7323C55.471 64.8758 54.9742 66.0791 54.5726 67.3274L50.1613 68.7403V80.771L54.571 82.1839C54.9726 83.4339 55.4694 84.6371 56.0532 85.7791L53.9371 89.8903L62.4436 98.3968L66.5548 96.2807C67.6984 96.8645 68.9016 97.3613 70.15 97.7629L71.5661 102.174H83.5968L85.0097 97.7645C86.2581 97.3629 87.4629 96.8662 88.6048 96.2823L92.7161 98.3984L101.221 89.892L99.1065 85.7807C99.6903 84.6387 100.187 83.4339 100.589 82.1855L105 80.7694V68.7387L100.59 67.3258C100.189 66.0791 99.6919 64.8726 99.1081 63.7307L101.223 59.6194L92.7177 51.1129L88.6065 53.2291C87.4613 52.6436 86.2581 52.1484 85.0113 51.7468L84.629 50.5613H100.161C102.829 50.5613 105 48.3903 105 45.7226ZM38.871 50.5613H49.4613C47.3323 58.1403 40.4532 63.4645 32.4194 63.4645C22.6371 63.4645 14.6774 55.5049 14.6774 45.7226C14.6774 35.9403 22.6371 27.9807 32.4194 27.9807C32.9355 27.9807 33.4742 28.0162 34.0323 28.0726V45.7226C34.0323 48.3903 36.2032 50.5613 38.871 50.5613ZM37.2581 97.3355C37.2581 100.003 35.0871 102.174 32.4194 102.174C29.7516 102.174 27.5806 100.003 27.5806 97.3355V84.4323C27.5806 83.542 28.3032 82.8194 29.1935 82.8194H30.8065H34.0323H35.6452C36.5355 82.8194 37.2581 83.542 37.2581 84.4323V97.3355ZM35.6452 77.9807C35.6452 78.871 34.9226 79.5936 34.0323 79.5936H30.8065C29.9161 79.5936 29.1935 78.871 29.1935 77.9807V72.9355C30.2532 73.0597 31.3258 73.142 32.4194 73.142C33.5113 73.142 34.5839 73.0549 35.6452 72.9291V77.9807ZM32.4194 69.9162C19.079 69.9162 8.22581 59.0629 8.22581 45.7226C8.22581 32.3823 19.079 21.5291 32.4194 21.5291C32.9306 21.5291 33.4677 21.5549 34.0323 21.5984V24.8274C33.4806 24.7823 32.9435 24.7549 32.4194 24.7549C20.8581 24.7549 11.4516 34.1613 11.4516 45.7226C11.4516 57.2839 20.8581 66.6903 32.4194 66.6903C42.221 66.6903 50.5694 59.9823 52.7871 50.5613H56.0887C53.8258 61.7129 43.9645 69.9162 32.4194 69.9162ZM59.3581 50.5613H70.5306L70.1516 51.7452C68.9048 52.1468 67.7 52.642 66.5565 53.2274L62.4452 51.1113L57.9516 55.6049C58.5758 53.9952 59.0468 52.3097 59.3581 50.5613ZM82.4581 54.3613L83.2919 54.5968C84.8855 55.0468 86.4032 55.6726 87.8032 56.4565L88.5581 56.8791L92.0984 55.0581L97.2774 60.2371L95.4565 63.7758L95.879 64.5323C96.6629 65.9307 97.2887 67.45 97.7387 69.0436L97.9742 69.8774L101.774 71.092V78.4162L97.9742 79.6323L97.7387 80.4662C97.2871 82.0629 96.6613 83.5807 95.8806 84.9774L95.4565 85.7323L97.2774 89.2726L92.0984 94.4533L88.5597 92.6307L87.8032 93.0533C86.4048 93.8355 84.8871 94.4629 83.2919 94.9145L82.4581 95.15L81.2435 98.9484H73.9194L72.7032 95.1484L71.8694 94.9129C70.2726 94.4613 68.7548 93.8355 67.3581 93.0549L66.6032 92.6307L63.0629 94.4533L57.8823 89.2726L59.7048 85.7323L59.2806 84.9774C58.5 83.5823 57.8742 82.0645 57.421 80.4662L57.1855 79.6323L53.3871 78.4178V71.0936L57.1871 69.8774L57.4226 69.0436C57.8742 67.4468 58.5 65.9291 59.2806 64.5323L59.7048 63.7774L57.8823 60.2371L63.0629 55.0581L66.6032 56.8791L67.3581 56.4565C68.7581 55.6726 70.2758 55.0452 71.8694 54.5968L72.7032 54.3613L73.9177 50.5613H81.2419L82.4581 54.3613ZM71.5661 47.3355H38.871C37.9806 47.3355 37.2581 46.6113 37.2581 45.7226V10.2387C37.2581 9.35002 37.9806 8.62583 38.871 8.62583H100.161C101.052 8.62583 101.774 9.35002 101.774 10.2387V45.7226C101.774 46.6113 101.052 47.3355 100.161 47.3355H83.5952H71.5661Z" fill="#FFD80D"/>
<path d="M90.4839 11.8525C86.0371 11.8525 82.4193 15.4703 82.4193 19.9171C82.4193 20.8203 82.6032 21.6751 82.8774 22.4864L75.7064 26.6703C74.5371 25.4896 72.9177 24.7558 71.129 24.7558C69.5742 24.7558 68.1661 25.33 67.0516 26.2493L59.3758 20.6671C59.6661 19.9332 59.8387 19.1396 59.8387 18.3042C59.8387 14.7461 56.9451 11.8525 53.3871 11.8525C49.829 11.8525 46.9355 14.7461 46.9355 18.3042C46.9355 20.4638 48.0113 22.3687 49.6451 23.5396L45.45 34.4461C45.4064 34.4445 45.3661 34.4332 45.3226 34.4332C42.6548 34.4332 40.4839 36.6042 40.4839 39.2719C40.4839 41.9396 42.6548 44.1106 45.3226 44.1106C47.9903 44.1106 50.1613 41.9396 50.1613 39.2719C50.1613 37.8042 49.4919 36.5042 48.4564 35.6154L52.6629 24.6816C52.9032 24.7106 53.1387 24.7558 53.3871 24.7558C54.9419 24.7558 56.3484 24.1816 57.4645 23.2622L65.1403 28.8445C64.85 29.5783 64.6774 30.3719 64.6774 31.2074C64.6774 34.7654 67.571 37.659 71.129 37.659C74.6871 37.659 77.5806 34.7654 77.5806 31.2074C77.5806 30.6009 77.4693 30.0251 77.3129 29.4671L84.5016 25.2735C85.979 26.9219 88.1016 27.9816 90.4839 27.9816C94.9306 27.9816 98.5484 24.3638 98.5484 19.9171C98.5484 15.4703 94.9306 11.8525 90.4839 11.8525ZM45.3226 40.8848C44.4322 40.8848 43.7097 40.1606 43.7097 39.2719C43.7097 38.3832 44.4322 37.659 45.3226 37.659C46.2129 37.659 46.9355 38.3832 46.9355 39.2719C46.9355 40.1606 46.2129 40.8848 45.3226 40.8848ZM53.3871 21.53C51.6081 21.53 50.1613 20.0832 50.1613 18.3042C50.1613 16.5251 51.6081 15.0783 53.3871 15.0783C55.1661 15.0783 56.6129 16.5251 56.6129 18.3042C56.6129 20.0832 55.1661 21.53 53.3871 21.53ZM71.129 34.4332C69.35 34.4332 67.9032 32.9864 67.9032 31.2074C67.9032 29.4283 69.35 27.9816 71.129 27.9816C72.9081 27.9816 74.3548 29.4283 74.3548 31.2074C74.3548 32.9864 72.9081 34.4332 71.129 34.4332ZM90.4839 24.7558C87.8161 24.7558 85.6451 22.5848 85.6451 19.9171C85.6451 17.2493 87.8161 15.0783 90.4839 15.0783C93.1516 15.0783 95.3226 17.2493 95.3226 19.9171C95.3226 22.5848 93.1516 24.7558 90.4839 24.7558Z" fill="#FFD80D"/>
<path d="M82.4193 40.8838H85.6452V44.1099H82.4193V40.8838Z" fill="#FFD80D"/>
<path d="M88.871 40.8838H92.0968V44.1099H88.871V40.8838Z" fill="#FFD80D"/>
<path d="M95.3226 40.8838H98.5484V44.1099H95.3226V40.8838Z" fill="#FFD80D"/>
<path d="M82.4193 34.432H98.5484V37.6581H82.4193V34.432Z" fill="#FFD80D"/>
<path d="M21.129 45.7224H17.9032C17.9032 53.7256 24.4145 60.2385 32.4193 60.2385V57.0127C26.1951 57.0127 21.129 51.9482 21.129 45.7224Z" fill="#FFD80D"/>
<path d="M88.871 74.7549H85.6452C85.6452 79.2017 82.0274 82.8194 77.5807 82.8194V86.0452C83.8049 86.0452 88.871 80.9791 88.871 74.7549Z" fill="#FFD80D"/>
<path d="M59.8387 74.7548C59.8387 84.537 67.7984 92.4967 77.5806 92.4967C87.3629 92.4967 95.3226 84.537 95.3226 74.7548C95.3226 64.9725 87.3629 57.0128 77.5806 57.0128C67.7984 57.0128 59.8387 64.9725 59.8387 74.7548ZM77.5806 60.2386C85.5855 60.2386 92.0968 66.7499 92.0968 74.7548C92.0968 82.7596 85.5855 89.2709 77.5806 89.2709C69.5758 89.2709 63.0645 82.7596 63.0645 74.7548C63.0645 66.7499 69.5758 60.2386 77.5806 60.2386Z" fill="#FFD80D"/>
</svg>
