<svg width="110" height="111" viewBox="0 0 110 111" fill="none" xmlns="http://www.w3.org/2000/svg">
<path d="M98.8887 53.6696C92.1468 53.6696 85.8887 50.3293 82.1484 44.7317L80.8064 42.7236L79.4645 44.7317C75.7242 50.3293 69.4661 53.6696 62.7242 53.6696H56.6129V79.4712C56.6129 85.7077 59.4274 91.5692 64.1306 95.5032H30.8065V89.0672H51.7742V60.1055H17.9032V72.9774H8.22581V8.61799H79.1936V37.5797H82.4194V5.40002H5V75.2525L28.5258 98.7211H69.0887L80.8064 105.4L94.4355 97.6319C100.952 93.9183 105 86.9578 105 79.4712V53.6696H98.8887ZM27.5806 93.2281L10.5065 76.1953H27.5806V93.2281ZM21.129 72.9774V63.3235H48.5484V85.8493H30.8065V72.9774H21.129ZM101.774 79.4712C101.774 85.8074 98.3484 91.6947 92.8355 94.8387L80.8064 101.696L68.7774 94.8387C63.2645 91.6947 59.8387 85.8074 59.8387 79.4712V56.8875H62.7242C69.7887 56.8875 76.3952 53.7259 80.8064 48.331C85.2177 53.7259 91.8242 56.8875 98.8887 56.8875H101.774V79.4712Z" fill="#FFD80D"/>
<path d="M95.3227 69.7594V79.4712C95.3227 83.5034 93.142 87.2507 89.634 89.2507L91.234 92.0439C95.7453 89.4727 98.5485 84.6554 98.5485 79.4712V69.7594H95.3227Z" fill="#FFD80D"/>
<path d="M14.6774 11.8359V21.4898H72.7419V11.8359H14.6774ZM69.5161 18.2719H17.9032V15.0539H69.5161V18.2719Z" fill="#FFD80D"/>
<path d="M94.1823 60.5769L72.742 81.9651L67.4307 76.6667L65.15 78.9418L72.742 86.5153L96.4629 62.852L94.1823 60.5769Z" fill="#FFD80D"/>
<path d="M45.3225 66.5414H24.3548V69.7594H45.3225V66.5414Z" fill="#FFD80D"/>
<path d="M45.3226 72.9773H34.0323V76.1953H45.3226V72.9773Z" fill="#FFD80D"/>
<path d="M45.3226 79.4132H34.0323V82.6312H45.3226V79.4132Z" fill="#FFD80D"/>
<path d="M66.2903 27.9258H14.6774V31.1438H66.2903V27.9258Z" fill="#FFD80D"/>
<path d="M66.2903 34.3617H14.6774V37.5797H66.2903V34.3617Z" fill="#FFD80D"/>
<path d="M66.2903 40.7976H14.6774V44.0156H66.2903V40.7976Z" fill="#FFD80D"/>
<path d="M45.3226 47.2335H14.6774V50.4515H45.3226V47.2335Z" fill="#FFD80D"/>
<path d="M45.3226 53.6696H14.6774V56.8875H45.3226V53.6696Z" fill="#FFD80D"/>
<path d="M72.7419 27.9258H69.5161V31.1438H72.7419V27.9258Z" fill="#FFD80D"/>
<path d="M72.7419 34.3617H69.5161V37.5797H72.7419V34.3617Z" fill="#FFD80D"/>
<path d="M72.7419 40.7976H69.5161V44.0156H72.7419V40.7976Z" fill="#FFD80D"/>
<path d="M51.7743 47.2335H48.5485V50.4515H51.7743V47.2335Z" fill="#FFD80D"/>
<path d="M51.7743 53.6696H48.5485V56.8875H51.7743V53.6696Z" fill="#FFD80D"/>
</svg>
