<svg width="73" height="59" viewBox="0 0 73 59" fill="none" xmlns="http://www.w3.org/2000/svg">
<path d="M36.489 26.0298C36.489 27.0544 36.33 27.9731 36.012 28.7858C35.7294 29.5984 35.323 30.3228 34.793 30.9588C34.263 31.5948 33.6447 32.1601 32.938 32.6548C32.2314 33.1494 31.454 33.6088 30.606 34.0328C30.9947 34.1741 31.454 34.4038 31.984 34.7218C32.514 35.0044 33.0264 35.4108 33.521 35.9408C34.0157 36.4708 34.422 37.1598 34.74 38.0078C35.0934 38.8204 35.27 39.8274 35.27 41.0288C35.27 42.6188 34.9344 44.0851 34.263 45.4278C33.5917 46.7704 32.5847 47.9364 31.242 48.9258C29.9347 49.8798 28.3094 50.6394 26.366 51.2048C24.458 51.7348 22.2497 51.9998 19.741 51.9998H4.00003L11.155 18.3448H25.094C26.472 18.3448 27.8324 18.4508 29.175 18.6628C30.553 18.8394 31.772 19.2104 32.832 19.7758C33.9274 20.3411 34.8107 21.1361 35.482 22.1608C36.1534 23.1501 36.489 24.4398 36.489 26.0298ZM22.073 32.4428C22.8504 32.4428 23.504 32.2131 24.034 31.7538C24.5994 31.2944 25.0587 30.7291 25.412 30.0578C25.7654 29.3511 26.0304 28.6091 26.207 27.8318C26.3837 27.0191 26.472 26.2948 26.472 25.6588C26.472 24.6341 26.2247 23.7684 25.73 23.0618C25.2707 22.3198 24.5287 21.9488 23.504 21.9488H21.914L19.635 32.4428H22.073ZM18.257 48.6608C19.317 48.6608 20.2004 48.3604 20.907 47.7598C21.6137 47.1591 22.1967 46.4171 22.656 45.5338C23.1154 44.6504 23.4334 43.7318 23.61 42.7778C23.822 41.7884 23.928 40.9228 23.928 40.1808C23.928 38.9441 23.663 37.9724 23.133 37.2658C22.6384 36.5238 21.8257 36.1528 20.695 36.1528H18.734L16.137 48.6608H18.257ZM67.28 22.3728H58.747L52.44 51.9998H40.992L47.299 22.3728H38.872L39.826 18.3448H68.181L67.28 22.3728Z" fill="#AEAEAE"/>
</svg>
