<svg width="101" height="59" viewBox="0 0 101 59" fill="none" xmlns="http://www.w3.org/2000/svg">
<path d="M5.43945 23.4792V20.491H28.4009V23.4792H18.9526V51.9998H14.9097V23.4792H5.43945ZM35.7617 47.8909C32.7002 44.6829 31.1694 40.801 31.1694 36.2454C31.1694 31.6897 32.7002 27.8152 35.7617 24.6218C38.8232 21.4285 42.6904 19.8318 47.3633 19.8318C52.0508 19.8318 55.9985 21.4358 59.2065 24.6438C62.4146 27.8518 64.0186 31.719 64.0186 36.2454C64.0186 40.7717 62.4146 44.6462 59.2065 47.8689C55.9985 51.0769 52.0508 52.6809 47.3633 52.6809C42.6904 52.6809 38.8232 51.0842 35.7617 47.8909ZM38.6182 27.0168C36.3477 29.5364 35.2124 32.6125 35.2124 36.2454C35.2124 39.8782 36.3477 42.9543 38.6182 45.4739C40.9033 47.9934 43.8184 49.2532 47.3633 49.2532C50.9082 49.2532 53.8965 47.9861 56.3281 45.4519C58.7598 42.9177 59.9756 39.8489 59.9756 36.2454C59.9756 32.6418 58.7598 29.573 56.3281 27.0388C53.8965 24.5046 50.9082 23.2375 47.3633 23.2375C43.8184 23.2375 40.9033 24.4973 38.6182 27.0168ZM69.7314 51.9998V20.491H79.729C82.7612 20.491 85.332 21.4431 87.4414 23.3474C89.5508 25.2517 90.6055 27.6467 90.6055 30.5325C90.6055 32.6858 89.9976 34.5901 88.7817 36.2454C87.5806 37.9006 85.9692 39.0872 83.9478 39.8049L91.0669 51.9998H87.0239L80.3442 40.53H73.7744V51.9998H69.7314ZM73.7744 37.5637H79.729C81.6479 37.5637 83.2666 36.9045 84.585 35.5862C85.9033 34.2532 86.5625 32.5686 86.5625 30.5325C86.5625 28.4963 85.9033 26.8118 84.585 25.4788C83.2666 24.1458 81.6479 23.4792 79.729 23.4792H73.7744V37.5637Z" fill="#AEAEAE"/>
</svg>
