<svg width="105" height="59" viewBox="0 0 105 59" fill="none" xmlns="http://www.w3.org/2000/svg">
<path d="M4.78203 50.9998C4.4447 50.9998 4.27603 50.8771 4.27603 50.6318C4.27603 50.5704 4.33736 50.4171 4.46003 50.1718L14.442 35.0838C14.4727 34.9918 14.488 34.8691 14.488 34.7158L8.18603 19.6278C8.15536 19.5664 8.14003 19.4744 8.14003 19.3518C8.14003 18.9838 8.33936 18.7998 8.73803 18.7998H16.466C16.834 18.7998 17.0794 18.9684 17.202 19.3058L20.468 27.9538C20.5294 28.0764 20.5907 28.1378 20.652 28.1378C20.744 28.1378 20.8054 28.0764 20.836 27.9538L26.218 19.3058C26.4327 18.9684 26.724 18.7998 27.092 18.7998H34.774C35.1114 18.7998 35.28 18.9224 35.28 19.1678C35.28 19.3211 35.2187 19.4744 35.096 19.6278L25.206 34.7158C25.1447 34.8384 25.1294 34.9611 25.16 35.0838L31.37 50.1718C31.4007 50.2638 31.416 50.3711 31.416 50.4938C31.416 50.8311 31.2167 50.9998 30.818 50.9998H23.182C22.814 50.9998 22.5687 50.8311 22.446 50.4938L19.134 41.8918C19.1034 41.7691 19.042 41.7078 18.95 41.7078C18.8887 41.7078 18.8274 41.7691 18.766 41.8918L13.338 50.4938C13.1234 50.8311 12.832 50.9998 12.464 50.9998H4.78203ZM43.6369 25.4698C42.5329 25.4698 41.6283 25.1171 40.9229 24.4118C40.2483 23.7064 39.9109 22.8018 39.9109 21.6978C39.9109 20.2871 40.3709 19.1218 41.2909 18.2018C42.2416 17.2818 43.3763 16.8218 44.6949 16.8218C45.7989 16.8218 46.6883 17.1591 47.3629 17.8338C48.0683 18.5084 48.4209 19.3978 48.4209 20.5018C48.4209 21.8818 47.9456 23.0624 46.9949 24.0438C46.0749 24.9944 44.9556 25.4698 43.6369 25.4698ZM36.9209 50.9998C36.7063 50.9998 36.5376 50.9384 36.4149 50.8158C36.3229 50.6931 36.2923 50.5244 36.3229 50.3098L39.1289 27.7698C39.1596 27.5551 39.2363 27.3864 39.3589 27.2638C39.4816 27.1411 39.6503 27.0798 39.8649 27.0798H46.9029C47.1176 27.0798 47.2709 27.1411 47.3629 27.2638C47.4856 27.3864 47.5316 27.5551 47.5009 27.7698L44.7409 50.3098C44.7103 50.5244 44.6183 50.6931 44.4649 50.8158C44.3423 50.9384 44.1736 50.9998 43.9589 50.9998H36.9209ZM50.5412 50.9998C50.3266 50.9998 50.1579 50.9384 50.0352 50.8158C49.9432 50.6931 49.9126 50.5244 49.9432 50.3098L53.7612 19.4898C53.7919 19.2751 53.8686 19.1064 53.9912 18.9838C54.1139 18.8611 54.2826 18.7998 54.4972 18.7998H61.5352C61.7499 18.7998 61.9032 18.8611 61.9952 18.9838C62.1179 19.1064 62.1639 19.2751 62.1332 19.4898L58.3612 50.3098C58.3306 50.5244 58.2386 50.6931 58.0852 50.8158C57.9626 50.9384 57.7939 50.9998 57.5792 50.9998H50.5412ZM70.8776 25.4698C69.7736 25.4698 68.8689 25.1171 68.1636 24.4118C67.4889 23.7064 67.1516 22.8018 67.1516 21.6978C67.1516 20.2871 67.6116 19.1218 68.5316 18.2018C69.4822 17.2818 70.6169 16.8218 71.9356 16.8218C73.0396 16.8218 73.9289 17.1591 74.6036 17.8338C75.3089 18.5084 75.6616 19.3978 75.6616 20.5018C75.6616 21.8818 75.1862 23.0624 74.2356 24.0438C73.3156 24.9944 72.1962 25.4698 70.8776 25.4698ZM64.1616 50.9998C63.9469 50.9998 63.7782 50.9384 63.6556 50.8158C63.5636 50.6931 63.5329 50.5244 63.5636 50.3098L66.3696 27.7698C66.4002 27.5551 66.4769 27.3864 66.5996 27.2638C66.7222 27.1411 66.8909 27.0798 67.1056 27.0798H74.1436C74.3582 27.0798 74.5116 27.1411 74.6036 27.2638C74.7262 27.3864 74.7722 27.5551 74.7416 27.7698L71.9816 50.3098C71.9509 50.5244 71.8589 50.6931 71.7056 50.8158C71.5829 50.9384 71.4142 50.9998 71.1996 50.9998H64.1616ZM94.0199 26.7118C96.0745 26.7118 97.7459 27.3558 99.0339 28.6438C100.322 29.9011 100.966 31.6491 100.966 33.8878C100.966 34.1638 100.935 34.6391 100.874 35.3138L99.0339 50.3098C99.0032 50.5244 98.9112 50.6931 98.7579 50.8158C98.6352 50.9384 98.4665 50.9998 98.2519 50.9998H91.2139C90.9992 50.9998 90.8305 50.9384 90.7079 50.8158C90.6159 50.6931 90.5852 50.5244 90.6159 50.3098L92.2259 37.1998C92.2565 37.0771 92.2719 36.8931 92.2719 36.6478C92.2719 35.8811 92.0725 35.2678 91.6739 34.8078C91.3059 34.3478 90.7845 34.1178 90.1099 34.1178C89.3432 34.1178 88.6992 34.4091 88.1779 34.9918C87.6565 35.5438 87.3345 36.2798 87.2119 37.1998L85.6019 50.3098C85.5712 50.5244 85.4792 50.6931 85.3259 50.8158C85.2032 50.9384 85.0345 50.9998 84.8199 50.9998H77.7819C77.5672 50.9998 77.3985 50.9384 77.2759 50.8158C77.1839 50.6931 77.1532 50.5244 77.1839 50.3098L79.9899 27.7698C80.0205 27.5551 80.0972 27.3864 80.2199 27.2638C80.3425 27.1411 80.5112 27.0798 80.7259 27.0798H87.7639C87.9785 27.0798 88.1319 27.1411 88.2239 27.2638C88.3465 27.3864 88.3925 27.5551 88.3619 27.7698L88.1779 29.3338C88.1472 29.4871 88.1625 29.5791 88.2239 29.6098C88.2852 29.6404 88.3465 29.5944 88.4079 29.4718C89.7879 27.6318 91.6585 26.7118 94.0199 26.7118Z" fill="#AEAEAE"/>
</svg>
