<svg width="135" height="59" viewBox="0 0 135 59" fill="none" xmlns="http://www.w3.org/2000/svg">
<path d="M5.56003 52C5.24003 52 4.95203 51.888 4.69603 51.664C4.47203 51.408 4.36003 51.12 4.36003 50.8V19.6C4.36003 19.248 4.47203 18.96 4.69603 18.736C4.95203 18.512 5.24003 18.4 5.56003 18.4H18.616C22.808 18.4 26.072 19.36 28.408 21.28C30.776 23.168 31.96 25.856 31.96 29.344C31.96 31.584 31.432 33.488 30.376 35.056C29.32 36.624 27.864 37.824 26.008 38.656L32.584 50.464C32.68 50.656 32.728 50.832 32.728 50.992C32.728 51.248 32.616 51.488 32.392 51.712C32.2 51.904 31.976 52 31.72 52H25.336C24.408 52 23.752 51.568 23.368 50.704L17.896 40.144H13V50.8C13 51.152 12.872 51.44 12.616 51.664C12.392 51.888 12.104 52 11.752 52H5.56003ZM18.52 33.328C19.992 33.328 21.112 32.976 21.88 32.272C22.648 31.536 23.032 30.528 23.032 29.248C23.032 27.968 22.648 26.96 21.88 26.224C21.144 25.456 20.024 25.072 18.52 25.072H13V33.328H18.52ZM48.4994 52.48C44.5314 52.48 41.4754 51.536 39.3314 49.648C37.1874 47.76 36.0194 45.104 35.8274 41.68C35.7954 41.264 35.7794 40.544 35.7794 39.52C35.7794 38.496 35.7954 37.776 35.8274 37.36C36.0194 33.968 37.2194 31.328 39.4274 29.44C41.6354 27.52 44.6594 26.56 48.4994 26.56C52.3714 26.56 55.4114 27.52 57.6194 29.44C59.8274 31.328 61.0274 33.968 61.2194 37.36C61.2514 37.776 61.2674 38.496 61.2674 39.52C61.2674 40.544 61.2514 41.264 61.2194 41.68C61.0274 45.104 59.8594 47.76 57.7154 49.648C55.5714 51.536 52.4994 52.48 48.4994 52.48ZM48.4994 46.624C49.9074 46.624 50.9474 46.208 51.6194 45.376C52.2914 44.512 52.6754 43.2 52.7714 41.44C52.8034 41.12 52.8194 40.48 52.8194 39.52C52.8194 38.56 52.8034 37.92 52.7714 37.6C52.6754 35.872 52.2754 34.576 51.5714 33.712C50.8994 32.848 49.8754 32.416 48.4994 32.416C45.8434 32.416 44.4354 34.144 44.2754 37.6L44.2274 39.52L44.2754 41.44C44.3394 43.2 44.7074 44.512 45.3794 45.376C46.0834 46.208 47.1234 46.624 48.4994 46.624ZM77.5072 52.48C73.8912 52.48 70.9632 51.52 68.7232 49.6C66.4832 47.648 65.2832 44.944 65.1232 41.488L65.0752 39.568L65.1232 37.6C65.2512 34.144 66.4352 31.44 68.6752 29.488C70.9472 27.536 73.8912 26.56 77.5072 26.56C80.2272 26.56 82.5152 27.056 84.3712 28.048C86.2592 29.008 87.6512 30.176 88.5472 31.552C89.4752 32.896 89.9712 34.128 90.0352 35.248C90.0672 35.568 89.9552 35.856 89.6992 36.112C89.4752 36.336 89.1872 36.448 88.8352 36.448H82.7392C82.3872 36.448 82.1152 36.368 81.9232 36.208C81.7312 36.048 81.5552 35.808 81.3952 35.488C81.0112 34.496 80.5152 33.792 79.9072 33.376C79.3312 32.96 78.5792 32.752 77.6512 32.752C75.0272 32.752 73.6672 34.448 73.5712 37.84L73.5232 39.664L73.5712 41.248C73.6352 42.976 74.0032 44.256 74.6752 45.088C75.3792 45.888 76.3712 46.288 77.6512 46.288C78.6432 46.288 79.4272 46.08 80.0032 45.664C80.5792 45.248 81.0432 44.544 81.3952 43.552C81.5552 43.232 81.7312 42.992 81.9232 42.832C82.1152 42.672 82.3872 42.592 82.7392 42.592H88.8352C89.1552 42.592 89.4272 42.704 89.6512 42.928C89.9072 43.12 90.0352 43.376 90.0352 43.696C90.0352 44.72 89.5872 45.92 88.6912 47.296C87.8272 48.672 86.4512 49.888 84.5632 50.944C82.6752 51.968 80.3232 52.48 77.5072 52.48ZM95.5477 52C95.2277 52 94.9397 51.888 94.6837 51.664C94.4597 51.408 94.3477 51.12 94.3477 50.8V19.12C94.3477 18.768 94.4597 18.48 94.6837 18.256C94.9397 18.032 95.2277 17.92 95.5477 17.92H101.212C101.564 17.92 101.852 18.032 102.076 18.256C102.3 18.48 102.412 18.768 102.412 19.12V50.8C102.412 51.152 102.3 51.44 102.076 51.664C101.852 51.888 101.564 52 101.212 52H95.5477ZM115.57 52.48C113.874 52.48 112.322 52.16 110.914 51.52C109.538 50.848 108.45 49.952 107.65 48.832C106.882 47.68 106.498 46.416 106.498 45.04C106.498 42.832 107.394 41.056 109.186 39.712C111.01 38.368 113.506 37.44 116.674 36.928L122.674 36.016V35.344C122.674 34.128 122.418 33.232 121.906 32.656C121.394 32.08 120.53 31.792 119.314 31.792C118.578 31.792 117.97 31.92 117.49 32.176C117.01 32.432 116.514 32.784 116.002 33.232C115.554 33.616 115.218 33.872 114.994 34C114.898 34.256 114.722 34.384 114.466 34.384H109.234C108.914 34.384 108.642 34.288 108.418 34.096C108.226 33.872 108.146 33.616 108.178 33.328C108.21 32.464 108.626 31.504 109.426 30.448C110.258 29.392 111.506 28.48 113.17 27.712C114.866 26.944 116.946 26.56 119.41 26.56C123.346 26.56 126.258 27.44 128.146 29.2C130.034 30.928 130.978 33.264 130.978 36.208V50.8C130.978 51.12 130.866 51.408 130.642 51.664C130.418 51.888 130.13 52 129.778 52H124.21C123.89 52 123.602 51.888 123.346 51.664C123.122 51.408 123.01 51.12 123.01 50.8V49.12C122.306 50.112 121.314 50.928 120.034 51.568C118.786 52.176 117.298 52.48 115.57 52.48ZM117.826 47.008C119.298 47.008 120.482 46.528 121.378 45.568C122.306 44.608 122.77 43.2 122.77 41.344V40.672L118.69 41.392C115.81 41.904 114.37 42.912 114.37 44.416C114.37 45.216 114.706 45.856 115.378 46.336C116.05 46.784 116.866 47.008 117.826 47.008Z" fill="#AEAEAE"/>
</svg>
