<svg width="285" height="59" viewBox="0 0 285 59" fill="none" xmlns="http://www.w3.org/2000/svg">
<path d="M45.85 44.688C45.85 45.6387 45.5893 46.4667 45.068 47.172C44.5467 47.8773 43.826 48.23 42.906 48.23C42.078 48.23 41.2653 47.9233 40.468 47.31L10.614 24.172V48H3.944V17.364C3.944 16.3827 4.20467 15.5547 4.726 14.88C5.24733 14.1747 5.98333 13.822 6.934 13.822C7.73133 13.822 8.52867 14.1287 9.326 14.742L39.18 37.88V14.006H45.85V44.688ZM93.5998 40.456C93.5998 43.2773 91.6985 45.3473 87.8958 46.666C85.1665 47.5553 82.0691 48 78.6038 48H66.6898C63.4085 48 60.3418 47.5093 57.4898 46.528C53.6258 45.2093 51.6938 43.1853 51.6938 40.456V21.596C51.6938 18.6827 53.5798 16.5973 57.3518 15.34C59.9585 14.4507 63.0711 14.006 66.6898 14.006H78.6038C88.6011 14.006 93.5998 16.536 93.5998 21.596V40.456ZM86.9298 23.344C86.9298 21.5653 84.2618 20.676 78.9258 20.676H66.3678C61.1545 20.676 58.5478 21.5653 58.5478 23.344V38.754C58.5478 40.4713 61.1545 41.33 66.3678 41.33H78.9258C84.2618 41.33 86.9298 40.4713 86.9298 38.754V23.344ZM141.263 40.456C141.263 43.216 139.3 45.2707 135.375 46.62C132.615 47.54 129.502 48 126.037 48H99.357V13.96H126.267C129.794 13.96 132.876 14.42 135.513 15.34C139.346 16.6893 141.263 18.7593 141.263 21.55V26.472C141.263 28.772 140.021 30.2593 137.537 30.934C138.61 31.118 139.5 31.6087 140.205 32.406C140.91 33.1727 141.263 34.0927 141.263 35.166V40.456ZM134.409 23.16C134.409 22.2707 133.29 21.596 131.051 21.136C129.426 20.7987 127.831 20.63 126.267 20.63H106.027V27.53H131.327C131.94 27.53 132.569 27.4073 133.213 27.162C134.01 26.886 134.409 26.472 134.409 25.92V23.16ZM134.409 36.224C134.409 34.8747 132.492 34.2 128.659 34.2H106.027V41.33H126.037C131.618 41.33 134.409 40.502 134.409 38.846V36.224ZM145.317 48V14.006H151.987V41.33H175.677V48H145.317ZM180.411 48V14.006H187.081V48H180.411ZM199.547 20.676V24.678H226.549V31.348H199.547V48H192.877V14.006H234.783V20.676H199.547ZM262.789 20.676V48H256.119V20.676H238.501V14.006H280.407V20.676H262.789Z" fill="#AEAEAE"/>
</svg>
