<svg width="195" height="59" viewBox="0 0 195 59" fill="none" xmlns="http://www.w3.org/2000/svg">
<path d="M4.22656 25.5469L4.95312 14.5547H26.7031V15.7969L10.5078 46.8047L19.4375 46.9453C19.4688 46.9453 19.5 46.9453 19.5312 46.9453C20.4375 46.9297 21.2656 46.7188 22.0156 46.3125C22.7812 45.875 23.4141 45.3203 23.9141 44.6484C24.4297 43.9609 24.875 43.1016 25.25 42.0703C25.6406 41.0234 25.9375 40 26.1406 39C26.3594 37.9844 26.5469 36.8438 26.7031 35.5781H27.7578L27.0312 48H4.29688V46.7109L21.3359 15.7031L13.4375 15.8438C10.9688 15.8906 9.11719 16.6953 7.88281 18.2578C6.64844 19.8047 5.78125 22.2344 5.28125 25.5469H4.22656ZM29.7031 48V46.9453L32.5391 46.7109L43.625 13.5938H44.6797L56.1406 46.7109L59.2344 46.9453V48H46.6953V46.9453L49.8594 46.7109L47.0938 38.2969H36.5938L33.875 46.7109L37.0391 46.9453V48H29.7031ZM37.0156 36.8906L46.5781 36.7031L41.8906 22.3125H41.7969L37.0156 36.8906ZM60.5703 48V46.9453L64.1797 46.7109V15.8438L60.5703 15.6094V14.5547H73.7891V15.6094L70.1797 15.8438V30.0938H70.2266L83.5156 15.8438L80.4922 15.6094V14.5547H88.0859V15.6094L85.3438 15.8438L74.4453 27.3516L89.3281 46.7109L91.8594 46.9453V48H78.4766V46.9453L81.5 46.7109L70.2266 31.3125H70.1797V46.7109L73.7891 46.9453V48H60.5703ZM92.9609 48V46.9453L96.5703 46.7109V15.8438L92.9609 15.6094V14.5547H105.453C107.188 14.5547 108.75 14.7031 110.141 15C111.547 15.2969 112.797 15.7656 113.891 16.4062C115 17.0469 115.852 17.9141 116.445 19.0078C117.055 20.0859 117.359 21.3672 117.359 22.8516C117.359 25.5234 116.461 27.6094 114.664 29.1094C112.867 30.5938 110.438 31.5547 107.375 31.9922V32.0391C108.688 32.0547 109.82 32.2656 110.773 32.6719C111.742 33.0781 112.508 33.6016 113.07 34.2422C113.648 34.8672 114.195 35.6797 114.711 36.6797C115.055 37.3672 115.539 38.4219 116.164 39.8438C116.805 41.25 117.438 42.5 118.062 43.5938C118.562 44.4844 119.086 45.1719 119.633 45.6562C120.18 46.1406 120.641 46.4375 121.016 46.5469C121.391 46.6562 121.82 46.7109 122.305 46.7109V48H118.414C117.227 48 116.289 47.9297 115.602 47.7891C114.914 47.6328 114.227 47.2734 113.539 46.7109C112.867 46.1484 112.266 45.375 111.734 44.3906C111.203 43.3906 110.297 41.3125 109.016 38.1562C108.828 37.6875 108.555 37.0859 108.195 36.3516C107.852 35.6016 107.547 35.0391 107.281 34.6641C107.031 34.2734 106.727 33.8672 106.367 33.4453C106.023 33.0234 105.664 32.7266 105.289 32.5547C104.93 32.3672 104.547 32.2734 104.141 32.2734C103.453 32.2734 102.93 32.2812 102.57 32.2969V46.7109L106.18 46.9453V48H92.9609ZM102.57 30.9609C102.742 30.9766 103.062 30.9844 103.531 30.9844C106.312 30.9844 108.266 30.3125 109.391 28.9688C110.531 27.6094 111.102 25.5859 111.102 22.8984C111.102 21.5547 110.938 20.4141 110.609 19.4766C110.297 18.5391 109.844 17.8125 109.25 17.2969C108.656 16.7812 108 16.4141 107.281 16.1953C106.562 15.9766 105.742 15.8672 104.82 15.8672C104.211 15.8672 103.461 15.9297 102.57 16.0547V30.9609ZM123.195 48V46.9453L126.805 46.7109V15.8438L123.195 15.6094V14.5547H146.281L146.516 24.0938H145.531C145.344 23.0312 145.141 22.1328 144.922 21.3984C144.719 20.6484 144.422 19.8984 144.031 19.1484C143.641 18.3984 143.18 17.8047 142.648 17.3672C142.133 16.9141 141.461 16.5469 140.633 16.2656C139.82 15.9844 138.875 15.8438 137.797 15.8438C136.469 15.8438 134.805 15.9219 132.805 16.0781V30C133.273 30.0469 134.125 30.0703 135.359 30.0703C137 30.0703 138.172 29.6719 138.875 28.875C139.578 28.0625 139.93 26.5938 139.93 24.4688H141.219V37.0547H139.93C139.93 34.9297 139.57 33.4531 138.852 32.625C138.148 31.7812 136.984 31.3594 135.359 31.3594C134.156 31.3594 133.305 31.3828 132.805 31.4297V46.4766C134.805 46.6328 136.789 46.7109 138.758 46.7109C139.68 46.7109 140.492 46.6406 141.195 46.5C141.898 46.3438 142.508 46.0938 143.023 45.75C143.539 45.4062 143.977 45.0234 144.336 44.6016C144.695 44.1641 145.008 43.6094 145.273 42.9375C145.555 42.2656 145.781 41.5938 145.953 40.9219C146.125 40.25 146.305 39.4219 146.492 38.4375H147.5L147.242 48H123.195ZM151.555 48V46.9453L155.164 46.7109V15.8438L151.555 15.6094V14.5547H161.586L171.359 39.4922H171.406L180.594 14.5547H190.203V15.6094L186.594 15.8438V46.7109L190.203 46.9453V48H176.984V46.9453L180.594 46.7109L180.641 18.0469H180.594L169.461 48.4688H168.594L156.219 16.9453H156.172L156.523 46.7109L160.062 46.9453V48H151.555Z" fill="#AEAEAE"/>
</svg>
