<svg width="124" height="59" viewBox="0 0 124 59" fill="none" xmlns="http://www.w3.org/2000/svg">
<path d="M32.4396 36.2784H59.0959V39.8002H49.3998V52H42.1349V39.8002H32.4389V36.2784H32.4396ZM76.2373 36.2644H83.503V48.0244C83.503 48.3176 83.6424 48.4611 83.9228 48.4611H97.0265V51.9853H77.6396C76.7279 51.9853 76.2366 51.4733 76.2366 50.5246V36.2652L76.2373 36.2644ZM62.3046 36.2652H69.5703V51.986H62.3053V36.266L62.3046 36.2652ZM4.01792 37.7383C4.01792 36.7865 4.50549 36.2799 5.41948 36.2799L28.9141 36.266V39.7877L11.7048 39.8033C11.4215 39.8033 11.2844 39.9507 11.2844 40.2431V42.035C11.2844 42.3298 11.423 42.4725 11.7056 42.4725H27.9241C28.841 42.4725 29.3271 42.9814 29.3271 43.934V50.5339C29.3271 51.4841 28.8403 52 27.9256 52H4.00003V48.4743H21.6409C21.922 48.4743 22.0621 48.33 22.0621 48.0399V46.2449C22.0621 45.9517 21.922 45.8043 21.6409 45.8043H5.42618C4.51666 45.8043 4.02017 45.2946 4.02017 44.3459V37.7367L4.01792 37.7383ZM99.2108 36.2784H106.477V48.0384C106.477 48.33 106.615 48.4751 106.896 48.4751H120V52H100.612C99.7014 52 99.2086 51.488 99.2086 50.5377V36.2784" fill="#AEAEAE"/>
<path d="M44.554 18H87.4751L79.3565 30.0703H36.4355L44.554 18Z" fill="#AEAEAE"/>
</svg>
