<svg width="226" height="59" viewBox="0 0 226 59" fill="none" xmlns="http://www.w3.org/2000/svg">
<g clip-path="url(#clip0)">
<path d="M39.344 13.4C40.08 13.4 40.448 13.752 40.448 14.456V19.016C40.448 19.72 40.08 20.072 39.344 20.072H18.368C17.12 20.072 16.08 20.184 15.248 20.408C14.448 20.6 13.792 20.952 13.28 21.464C12.8 21.944 12.464 22.616 12.272 23.48C12.08 24.312 11.984 25.352 11.984 26.6V27.08H39.104C39.808 27.08 40.16 27.432 40.16 28.136V31.928C40.16 32.632 39.808 32.984 39.104 32.984H11.984V33.8C11.984 35.048 12.08 36.104 12.272 36.968C12.464 37.8 12.8 38.472 13.28 38.984C13.792 39.464 14.448 39.816 15.248 40.04C16.08 40.232 17.12 40.328 18.368 40.328H39.344C40.08 40.328 40.448 40.68 40.448 41.384V45.944C40.448 46.648 40.08 47 39.344 47H18.224C15.792 47 13.728 46.776 12.032 46.328C10.336 45.88 8.944 45.16 7.856 44.168C6.8 43.144 6.016 41.832 5.504 40.232C5.024 38.6 4.784 36.632 4.784 34.328V26.072C4.784 23.768 5.024 21.816 5.504 20.216C6.016 18.616 6.8 17.32 7.856 16.328C8.944 15.304 10.336 14.568 12.032 14.12C13.728 13.64 15.792 13.4 18.224 13.4H39.344ZM80.6533 13.4C81.3573 13.4 81.7093 13.752 81.7093 14.456V19.16C81.7093 19.896 81.3573 20.264 80.6533 20.264H59.2933C58.0453 20.264 57.0053 20.376 56.1733 20.6C55.3733 20.792 54.7333 21.144 54.2533 21.656C53.7733 22.136 53.4213 22.792 53.1973 23.624C53.0053 24.456 52.9093 25.512 52.9093 26.792V33.608C52.9093 34.888 53.0053 35.96 53.1973 36.824C53.4213 37.656 53.7733 38.328 54.2533 38.84C54.7333 39.32 55.3733 39.672 56.1733 39.896C57.0053 40.088 58.0453 40.184 59.2933 40.184H80.6533C81.3573 40.184 81.7093 40.536 81.7093 41.24V45.944C81.7093 46.648 81.3573 47 80.6533 47H59.0053C56.5733 47 54.5093 46.776 52.8133 46.328C51.1173 45.88 49.7253 45.16 48.6373 44.168C47.5813 43.144 46.7973 41.832 46.2853 40.232C45.8053 38.6 45.5653 36.632 45.5653 34.328V26.072C45.5653 23.768 45.8053 21.816 46.2853 20.216C46.7973 18.616 47.5813 17.32 48.6373 16.328C49.7253 15.304 51.1173 14.568 52.8133 14.12C54.5093 13.64 56.5733 13.4 59.0053 13.4H80.6533ZM114.712 13.4C117.144 13.4 119.208 13.64 120.904 14.12C122.632 14.568 124.024 15.304 125.08 16.328C126.168 17.32 126.952 18.616 127.432 20.216C127.912 21.816 128.152 23.768 128.152 26.072V34.328C128.152 36.632 127.912 38.6 127.432 40.232C126.952 41.832 126.168 43.144 125.08 44.168C124.024 45.16 122.632 45.88 120.904 46.328C119.208 46.776 117.144 47 114.712 47H99.8803C97.4483 47 95.3843 46.776 93.6883 46.328C91.9923 45.88 90.6003 45.16 89.5123 44.168C88.4563 43.144 87.6723 41.832 87.1603 40.232C86.6803 38.6 86.4403 36.632 86.4403 34.328V26.072C86.4403 23.768 86.6803 21.816 87.1603 20.216C87.6723 18.616 88.4563 17.32 89.5123 16.328C90.6003 15.304 91.9923 14.568 93.6883 14.12C95.3843 13.64 97.4483 13.4 99.8803 13.4H114.712ZM93.7843 33.8C93.7843 35.048 93.8803 36.104 94.0723 36.968C94.2963 37.8 94.6483 38.472 95.1283 38.984C95.6083 39.464 96.2483 39.816 97.0483 40.04C97.8803 40.232 98.9203 40.328 100.168 40.328H114.424C115.672 40.328 116.696 40.232 117.496 40.04C118.328 39.816 118.984 39.464 119.464 38.984C119.944 38.472 120.28 37.8 120.472 36.968C120.696 36.104 120.808 35.048 120.808 33.8V26.6C120.808 25.352 120.696 24.312 120.472 23.48C120.28 22.616 119.944 21.944 119.464 21.464C118.984 20.952 118.328 20.6 117.496 20.408C116.696 20.184 115.672 20.072 114.424 20.072H100.168C98.9203 20.072 97.8803 20.184 97.0483 20.408C96.2483 20.6 95.6083 20.952 95.1283 21.464C94.6483 21.944 94.2963 22.616 94.0723 23.48C93.8803 24.312 93.7843 25.352 93.7843 26.6V33.8ZM140.313 13.4C141.017 13.4 141.369 13.752 141.369 14.456V33.608C141.369 34.888 141.465 35.96 141.657 36.824C141.881 37.656 142.233 38.328 142.713 38.84C143.193 39.32 143.833 39.672 144.633 39.896C145.465 40.088 146.505 40.184 147.753 40.184H167.193C167.897 40.184 168.249 40.536 168.249 41.24V45.944C168.249 46.648 167.897 47 167.193 47H147.465C145.033 47 142.969 46.776 141.273 46.328C139.577 45.88 138.185 45.16 137.097 44.168C136.041 43.144 135.257 41.832 134.745 40.232C134.265 38.6 134.025 36.632 134.025 34.328V14.456C134.025 13.752 134.393 13.4 135.129 13.4H140.313ZM178.847 13.4C179.551 13.4 179.903 13.752 179.903 14.456V45.944C179.903 46.648 179.551 47 178.847 47H173.663C172.927 47 172.559 46.648 172.559 45.944V14.456C172.559 13.752 172.927 13.4 173.663 13.4H178.847ZM220.469 13.4C221.205 13.4 221.573 13.752 221.573 14.456V19.016C221.573 19.72 221.205 20.072 220.469 20.072H199.637C198.389 20.072 197.349 20.184 196.517 20.408C195.717 20.6 195.077 20.952 194.597 21.464C194.117 21.944 193.765 22.616 193.541 23.48C193.349 24.312 193.253 25.352 193.253 26.6V27.56H220.229C220.933 27.56 221.285 27.912 221.285 28.616V32.408C221.285 33.112 220.933 33.464 220.229 33.464H193.253V45.944C193.253 46.648 192.901 47 192.197 47H187.013C186.277 47 185.909 46.648 185.909 45.944V26.072C185.909 23.768 186.149 21.816 186.629 20.216C187.141 18.616 187.925 17.32 188.981 16.328C190.069 15.304 191.461 14.568 193.157 14.12C194.853 13.64 196.917 13.4 199.349 13.4H220.469ZM41.696 71.4C42.432 71.4 42.8 71.752 42.8 72.456V77.16C42.8 77.896 42.432 78.264 41.696 78.264H26.624V103.944C26.624 104.648 26.272 105 25.568 105H20.336C19.632 105 19.28 104.648 19.28 103.944V78.264H4.208C3.472 78.264 3.104 77.896 3.104 77.16V72.456C3.104 71.752 3.472 71.4 4.208 71.4H41.696Z" fill="#AEAEAE"/>
</g>
<defs>
<clipPath id="clip0">
<rect width="226" height="59" fill="white"/>
</clipPath>
</defs>
</svg>
