<svg width="131" height="59" viewBox="0 0 131 59" fill="none" xmlns="http://www.w3.org/2000/svg">
<path d="M21.7598 29.8203C24.1973 33.2904 26.1777 36.3711 27.7012 39.0625H27.8535C27.6504 34.6445 27.5488 31.4284 27.5488 29.4141V14.0273H33.7695V48H27.2441L16.1738 32.3594C14.2272 29.651 12.2129 26.5111 10.1309 22.9395H9.97852C10.1816 27.1035 10.2832 30.3281 10.2832 32.6133V48H4.0625V14.0273H10.5879L21.7598 29.8203ZM41.8945 48V14.0273H48.1152V48H41.8945ZM70.332 48.6348C68.5547 48.6348 66.9551 48.457 65.5332 48.1016C64.1113 47.763 62.8587 47.2721 61.7754 46.6289C60.6921 45.9688 59.7695 45.1732 59.0078 44.2422C58.2461 43.2943 57.6367 42.2279 57.1797 41.043C56.8073 40.0951 56.5365 39.0456 56.3672 37.8945C56.2148 36.7435 56.1387 35.457 56.1387 34.0352V14.0273H62.3594V33.4766C62.3594 35.8802 62.6471 37.7591 63.2227 39.1133C63.8659 40.6198 64.8053 41.7116 66.041 42.3887C67.2767 43.0488 68.7324 43.3789 70.4082 43.3789C72.084 43.3789 73.5397 43.0488 74.7754 42.3887C76.0111 41.7116 76.9505 40.6198 77.5938 39.1133C78.1693 37.7591 78.457 35.8802 78.457 33.4766V14.0273H84.6777V34.0352C84.6777 35.457 84.5931 36.7435 84.4238 37.8945C84.2715 39.0456 84.0091 40.0951 83.6367 41.043C83.1797 42.2279 82.5618 43.2943 81.7832 44.2422C81.0215 45.1732 80.082 45.9688 78.9648 46.6289C77.8646 47.2721 76.5951 47.763 75.1562 48.1016C73.7174 48.457 72.1094 48.6348 70.332 48.6348ZM98.8965 14.0273V42.7949H114.791V48H92.6758V14.0273H98.8965ZM120.656 48V14.0273H126.877V48H120.656Z" fill="#AEAEAE"/>
</svg>
