<svg width="280" height="350" viewBox="0 0 280 350" fill="none" xmlns="http://www.w3.org/2000/svg">
<g clip-path="url(#clip0)">
<path d="M206.571 181.865C218.021 169.302 225.948 153.944 229.551 137.344L226.624 136.716C223.145 152.796 215.477 167.676 204.393 179.851L206.571 181.865Z" fill="#383838"/>
<path d="M144.284 210.15C141.147 210.459 137.949 210.619 134.802 210.619C121.532 210.61 108.41 207.824 96.285 202.441L95.0561 205.173C110.586 212.097 127.66 214.848 144.584 213.152L144.284 210.15Z" fill="#383838"/>
<path d="M64.632 179.233C60.3051 174.406 56.485 169.149 53.2317 163.544L50.634 165.03C53.9781 170.822 57.9087 176.256 62.3639 181.247C69.171 188.888 77.1503 195.402 86.0037 200.546L87.5124 197.963C78.9407 192.967 71.2178 186.645 64.632 179.233V179.233Z" fill="#383838"/>
<path d="M134.732 23.0789C148.052 23.0922 161.221 25.906 173.379 31.3369L174.608 28.6142C162.065 23.0037 148.477 20.098 134.732 20.0869C131.525 20.0869 128.288 20.2465 125.1 20.5557L125.4 23.5477C128.487 23.2285 131.625 23.0789 134.732 23.0789Z" fill="#383838"/>
<path d="M153.996 208.654L154.605 211.586C171.2 208.117 186.593 200.362 199.247 189.096L199.367 188.997L197.369 186.762L197.259 186.862C184.996 197.779 170.078 205.293 153.996 208.654V208.654Z" fill="#383838"/>
<path d="M115.678 25.0138L115.069 22.0916C98.4172 25.5388 82.9686 33.3024 70.2771 44.6016L70.0473 44.801L72.0456 47.0351L72.2155 46.8555C84.5306 35.892 99.5208 28.3588 115.678 25.0138V25.0138Z" fill="#383838"/>
<path d="M218.87 249.246C218.334 249.736 217.982 250.394 217.871 251.111L187.897 250.184L187.897 251.181L217.871 252.108C217.988 252.833 218.354 253.494 218.906 253.978C219.458 254.463 220.161 254.741 220.896 254.764C221.631 254.788 222.351 254.556 222.933 254.108C223.515 253.659 223.922 253.023 224.086 252.308L254.24 253.235L254.24 252.238L224.086 251.311C224.03 250.728 223.814 250.173 223.46 249.706C223.107 249.24 222.632 248.88 222.086 248.667C221.54 248.454 220.946 248.396 220.37 248.5C219.793 248.604 219.257 248.866 218.82 249.256L218.87 249.246ZM219.749 252.168C219.806 252.298 219.88 252.418 219.969 252.527C220.209 252.796 220.546 252.958 220.906 252.979C221.265 252.999 221.619 252.876 221.888 252.637C222.013 252.525 222.115 252.39 222.187 252.238L223.057 252.238C222.948 252.622 222.733 252.968 222.437 253.235C222.004 253.62 221.437 253.817 220.859 253.784C220.571 253.769 220.29 253.697 220.03 253.572C219.771 253.447 219.54 253.271 219.35 253.056C219.121 252.788 218.957 252.47 218.87 252.128L219.749 252.168ZM222.607 250.174C222.878 250.496 223.045 250.892 223.087 251.311L222.227 251.311C222.177 251.115 222.081 250.934 221.948 250.782C221.708 250.513 221.371 250.351 221.011 250.331C220.651 250.31 220.298 250.433 220.029 250.672C219.863 250.824 219.739 251.017 219.67 251.231L218.81 251.231C218.921 250.727 219.209 250.28 219.621 249.969C220.033 249.658 220.543 249.504 221.058 249.535C221.346 249.531 221.632 249.585 221.899 249.695C222.165 249.805 222.406 249.968 222.607 250.174V250.174Z" fill="#383838"/>
<path d="M158.142 348.232L130.616 316.736C130.733 316.568 130.802 316.372 130.816 316.169C130.83 315.965 130.789 315.761 130.696 315.579L163.178 286.656C163.339 286.681 163.504 286.671 163.661 286.626C163.818 286.581 163.963 286.503 164.087 286.397C164.311 286.196 164.448 285.915 164.466 285.614C164.485 285.314 164.385 285.018 164.187 284.791C164.098 284.698 163.993 284.62 163.877 284.562L164.996 259.858C165.754 259.786 166.46 259.444 166.985 258.895C167.51 258.345 167.819 257.624 167.854 256.866C167.901 256.026 167.613 255.201 167.055 254.572C166.589 254.052 165.963 253.701 165.276 253.574L166.445 227.643C172.003 226.059 177.434 224.059 182.691 221.659L181.392 222.856L182.072 223.594L185.669 220.393C195.137 215.738 203.927 209.82 211.796 202.8C213.435 201.334 215.024 199.808 216.562 198.302L234.077 217.879C234.047 218.044 234.055 218.212 234.1 218.373C234.145 218.534 234.226 218.682 234.337 218.807C234.436 218.918 234.556 219.008 234.69 219.073C234.824 219.138 234.969 219.175 235.118 219.184C235.266 219.192 235.415 219.171 235.555 219.122C235.696 219.073 235.825 218.996 235.936 218.897C236.059 218.787 236.156 218.651 236.22 218.5C236.284 218.348 236.313 218.184 236.305 218.019L251.442 204.435C252.027 204.812 252.719 204.986 253.412 204.931C254.105 204.876 254.76 204.594 255.277 204.13C255.795 203.666 256.144 203.045 256.273 202.363C256.401 201.681 256.301 200.976 255.989 200.356L271.046 186.802C271.282 186.895 271.542 186.905 271.784 186.832C272.027 186.759 272.238 186.607 272.383 186.4C272.529 186.192 272.6 185.942 272.586 185.69C272.571 185.437 272.472 185.197 272.305 185.007C272.147 184.834 271.936 184.718 271.705 184.678L274.703 135.978L273.703 135.918L270.706 184.937C270.554 185.078 270.445 185.258 270.39 185.457C270.335 185.656 270.337 185.866 270.396 186.064L255.409 199.508C254.977 199.074 254.428 198.774 253.829 198.645C253.23 198.515 252.606 198.561 252.033 198.777C251.459 198.993 250.961 199.37 250.597 199.863C250.234 200.355 250.021 200.942 249.984 201.553L249.984 201.743C249.987 202.47 250.241 203.174 250.703 203.737L235.776 217.131C235.612 217.018 235.42 216.951 235.221 216.939C235.022 216.926 234.823 216.969 234.647 217.062L217.262 197.584C233.425 181.149 244.313 160.278 248.533 137.635C252.753 114.993 250.113 91.6094 240.951 70.4724L257.757 55.5123L257.427 55.1433L240.732 69.9937C235.863 58.9187 229.274 48.6797 221.208 39.6546C215.369 33.1124 208.81 27.2477 201.655 22.1712L216.342 9.10599L216.003 8.73697L201.235 21.9218C183.884 9.78256 163.527 2.63124 142.383 1.24752C121.24 -0.136202 100.122 4.30078 81.331 14.0747C62.5404 23.8487 46.7985 38.5845 35.8215 56.6756C24.8446 74.7667 19.054 95.5187 19.081 116.669C19.0813 122.768 19.5623 128.857 20.5198 134.881C20.2405 135.009 19.9813 135.177 19.7504 135.379C19.4363 135.654 19.1807 135.989 18.9988 136.364C18.8168 136.739 18.7123 137.147 18.6913 137.564L18.6913 137.753C18.6924 138.359 18.8694 138.951 19.2009 139.459L3.34444 153.561C3.18311 153.535 3.01794 153.544 2.86075 153.589C2.70357 153.634 2.55825 153.713 2.43521 153.82C2.22624 154.01 2.09597 154.27 2.07007 154.551C2.04418 154.832 2.12454 155.112 2.29532 155.336L0.726679 177.657L1.72582 177.727L3.27449 155.785C3.46289 155.78 3.64688 155.727 3.80846 155.63C3.97003 155.533 4.10365 155.396 4.19628 155.233C4.28891 155.069 4.33739 154.884 4.33694 154.696C4.33648 154.507 4.28714 154.323 4.19372 154.159L19.8803 140.197C20.3882 140.614 21.0128 140.865 21.6688 140.915C24.9949 156.273 31.4204 170.794 40.5533 183.592C49.6862 196.39 61.3352 207.197 74.7897 215.353C88.2442 223.51 103.222 228.845 118.81 231.033C134.398 233.222 150.269 232.218 165.456 228.082L164.297 253.664C163.555 253.757 162.87 254.108 162.362 254.655C161.854 255.202 161.556 255.911 161.519 256.656L161.519 256.836C161.513 257.56 161.759 258.264 162.214 258.827C162.67 259.391 163.307 259.78 164.017 259.927L162.898 284.651C162.789 284.696 162.688 284.756 162.598 284.831C162.411 284.997 162.286 285.222 162.244 285.469C162.202 285.716 162.246 285.969 162.369 286.187L129.876 315.11C129.715 315.083 129.55 315.093 129.392 315.137C129.235 315.182 129.09 315.262 128.967 315.37C128.856 315.469 128.765 315.59 128.7 315.724C128.635 315.859 128.597 316.005 128.589 316.154C128.58 316.303 128.602 316.452 128.651 316.593C128.701 316.734 128.777 316.864 128.877 316.975C128.986 317.094 129.119 317.187 129.267 317.249C129.416 317.311 129.576 317.34 129.736 317.334L157.413 349L158.142 348.232ZM250.973 201.623C250.997 201.208 251.141 200.808 251.386 200.472C251.631 200.136 251.967 199.877 252.355 199.726C252.743 199.575 253.167 199.538 253.575 199.619C253.984 199.701 254.36 199.898 254.66 200.187L254.04 200.745C253.8 200.498 253.473 200.354 253.129 200.341C252.784 200.329 252.448 200.45 252.19 200.679C251.933 200.907 251.773 201.227 251.746 201.57C251.718 201.913 251.824 202.253 252.042 202.52L251.412 203.079C251.094 202.659 250.938 202.138 250.973 201.613L250.973 201.623ZM252.222 203.717L252.941 203.069C253.139 203.108 253.343 203.1 253.537 203.046C253.731 202.992 253.91 202.894 254.06 202.76C254.211 202.624 254.328 202.455 254.402 202.266C254.477 202.078 254.507 201.875 254.49 201.673L255.209 201.024C255.356 201.43 255.377 201.87 255.27 202.288C255.163 202.706 254.933 203.082 254.61 203.368C254.288 203.651 253.891 203.834 253.466 203.894C253.042 203.954 252.61 203.889 252.222 203.707L252.222 203.717ZM210.467 201.314C204.596 206.535 198.205 211.144 191.394 215.067L212.745 195.25C212.917 195.35 213.112 195.402 213.31 195.402C213.508 195.402 213.703 195.35 213.874 195.25L215.233 196.766C213.695 198.342 212.096 199.848 210.467 201.304L210.467 201.314ZM19.6905 137.544C19.7048 137.259 19.7758 136.98 19.8993 136.723C20.0228 136.466 20.1964 136.237 20.4098 136.048V136.048C20.4997 135.969 20.5968 135.899 20.6996 135.838L20.8595 136.786C20.6976 136.965 20.5872 137.185 20.5397 137.422C20.4922 137.659 20.5095 137.904 20.5897 138.132L19.9502 138.701C19.7589 138.346 19.669 137.946 19.6905 137.544V137.544ZM22.6879 135.659C22.8381 135.721 22.982 135.798 23.1175 135.888L22.7778 136.187L22.6879 135.659ZM23.777 136.656C23.9485 136.961 24.0412 137.304 24.0467 137.653C24.046 137.951 23.9844 138.245 23.8659 138.517C23.7473 138.79 23.5743 139.036 23.3573 139.239L23.1375 138.102C23.2427 137.809 23.2427 137.488 23.1375 137.195L23.777 136.656ZM20.6197 139.468L21.2491 138.91L21.429 139.818C21.1366 139.752 20.861 139.626 20.6197 139.449L20.6197 139.468ZM128.238 229.907C103.373 228.482 79.6658 218.947 60.7576 202.767C41.8494 186.587 28.7869 164.656 23.5771 140.346C23.7244 140.266 23.8618 140.169 23.9868 140.057C24.5486 139.555 24.9126 138.869 25.0134 138.124C25.1141 137.378 24.9449 136.62 24.5363 135.988L38.0847 123.94C38.8665 135.007 41.5713 145.853 46.0779 155.994L48.8156 154.788C43.518 142.854 40.7947 129.941 40.8224 116.889V116.889C40.8223 113.527 41.0024 110.168 41.3619 106.825L38.3645 106.506C37.9933 109.955 37.8065 113.42 37.805 116.889V116.889C37.805 118.824 37.8649 120.738 37.9748 122.653L23.8469 135.22C23.4566 134.892 22.9889 134.669 22.4881 134.572C20.0257 119.152 20.7534 103.393 24.6262 88.265L41.7116 89.741C41.0455 91.9751 40.4694 94.2324 39.9831 96.513L42.9206 97.1413C43.4302 94.7277 44.0596 92.3541 44.759 90.0003L50.0745 90.4591C50.0952 91.1977 50.3786 91.9047 50.8738 92.4538C51.1513 92.7649 51.4875 93.0184 51.8631 93.1998C52.2387 93.3812 52.6465 93.4869 53.0631 93.511C53.4797 93.5351 53.8969 93.477 54.291 93.3401C54.6851 93.2032 55.0484 92.9902 55.36 92.7131C55.8687 92.2671 56.2192 91.6689 56.3591 91.0077L65.4214 91.7856L65.5113 90.7882L56.4091 90.0103C56.3494 89.3438 56.0761 88.7143 55.6297 88.2151C55.0679 87.5883 54.2797 87.2098 53.4384 87.1631C52.5971 87.1163 51.7716 87.405 51.1436 87.9658C50.6731 88.362 50.3263 88.8847 50.1444 89.4718L45.0188 89.0329C49.0418 76.0339 55.8619 64.0693 65.0017 53.9764L62.7836 51.9817C53.2242 62.5553 46.1271 75.1094 42.0014 88.7437L24.906 87.2776C29.6131 69.6655 38.4977 53.443 50.8092 39.9806C63.1207 26.5182 78.4974 16.2114 95.6403 9.931C112.783 3.65059 131.189 1.58105 149.302 3.89722C167.415 6.2134 184.703 12.8472 199.707 23.2383L186.488 34.987C185.549 34.3986 184.6 33.8101 183.63 33.2516L182.122 35.8846C182.801 36.2835 183.48 36.7024 184.12 37.1213L176.277 44.1027C175.857 43.6355 175.309 43.3023 174.701 43.1453C174.092 42.9882 173.451 43.0141 172.857 43.2198C172.264 43.4255 171.744 43.8018 171.364 44.3014C170.984 44.8009 170.76 45.4015 170.721 46.0276L170.721 46.2171C170.717 46.995 171.006 47.7461 171.531 48.3215L149.15 68.1985L149.48 68.5675L171.92 48.6207C172.505 49.0958 173.239 49.3474 173.993 49.3304C174.746 49.3134 175.468 49.0289 176.031 48.5279C176.593 48.0269 176.957 47.3423 177.059 46.5971C177.161 45.8518 176.993 45.0947 176.586 44.4617L184.58 37.3507C197.712 45.5712 208.619 56.8871 216.342 70.3029L218.94 68.7969C211.14 55.2104 200.172 43.7017 186.968 35.2463L200.106 23.5375C207.289 28.5865 213.87 34.439 219.72 40.981C227.788 50.0127 234.355 60.2756 239.173 71.38L225.724 83.3481C225.045 81.503 224.316 79.6779 223.516 77.8727L220.769 79.0795C221.538 80.8049 222.237 82.5502 222.887 84.3155C222.22 83.9413 221.44 83.8204 220.692 83.9753C219.943 84.1302 219.275 84.5503 218.812 85.1581C218.35 85.7659 218.123 86.5203 218.174 87.2821C218.225 88.0438 218.55 88.7613 219.09 89.3022C219.43 89.688 219.863 89.9799 220.349 90.15L207.5 122.653L207.97 122.833L220.829 90.2297C221.312 90.3297 221.812 90.3159 222.289 90.1896C222.765 90.0632 223.206 89.8277 223.576 89.5017C223.894 89.2239 224.153 88.8846 224.336 88.5043C227.25 97.6638 228.726 107.218 228.712 116.829C228.71 120.241 228.523 123.65 228.152 127.042L231.15 127.361C231.533 123.863 231.726 120.347 231.729 116.829V116.829C231.742 105.585 229.781 94.425 225.934 83.8567L239.403 71.8886C248.216 92.5918 250.69 115.436 246.513 137.541C242.336 159.646 231.695 180.021 215.933 196.098L214.464 194.462C214.487 194.303 214.474 194.142 214.428 193.988C214.381 193.835 214.301 193.694 214.194 193.574C214.045 193.381 213.837 193.242 213.601 193.178C213.365 193.114 213.114 193.129 212.888 193.221C212.661 193.312 212.471 193.475 212.346 193.685C212.221 193.895 212.168 194.14 212.196 194.382L187.737 217.082C169.45 226.7 148.871 231.13 128.238 229.887L128.238 229.907ZM52.3026 89.2823C52.2054 89.3783 52.1244 89.4895 52.0628 89.6114L51.1736 89.5316C51.3012 89.2066 51.4991 88.9138 51.7531 88.6739C52.0396 88.4153 52.3901 88.2378 52.7684 88.1598C53.1467 88.0818 53.539 88.1061 53.9047 88.2301C54.2704 88.3542 54.5963 88.5735 54.8487 88.8655C55.101 89.1574 55.2706 89.5113 55.34 89.8906L54.4707 89.8109C54.4148 89.6567 54.33 89.5146 54.221 89.392C53.9812 89.1367 53.6519 88.9838 53.3018 88.9652C52.9518 88.9466 52.6081 89.0638 52.3426 89.2922L52.3026 89.2823ZM54.111 91.2769C54.2624 91.138 54.3818 90.9678 54.4607 90.7783L55.31 90.8481C55.1936 91.2357 54.9682 91.5819 54.6606 91.8454C54.3621 92.116 53.9939 92.2982 53.5974 92.3714C53.2008 92.4447 52.7917 92.406 52.416 92.26C52.0403 92.1139 51.7128 91.8661 51.4703 91.5444C51.2279 91.2228 51.0802 90.84 51.0437 90.4392L51.8929 90.519C51.9392 90.744 52.0424 90.9534 52.1927 91.1273C52.3054 91.2726 52.4465 91.3935 52.6075 91.4827C52.7685 91.5719 52.9459 91.6275 53.129 91.6461C53.3121 91.6648 53.4972 91.6461 53.6729 91.5912C53.8485 91.5363 54.0112 91.4464 54.151 91.3268L54.111 91.2769ZM174.838 47.1745C175.043 46.9952 175.188 46.7579 175.254 46.4941C175.32 46.2304 175.304 45.9528 175.208 45.6984L175.847 45.13C176.014 45.4367 176.107 45.7783 176.117 46.1273C176.119 46.527 176.01 46.9195 175.804 47.2617C175.597 47.6039 175.299 47.8825 174.944 48.067C174.589 48.2515 174.19 48.3347 173.79 48.3074C173.391 48.2802 173.006 48.1436 172.68 47.9125L173.319 47.3441C173.56 47.4711 173.834 47.5228 174.105 47.4926C174.375 47.4623 174.631 47.3515 174.838 47.1745V47.1745ZM174.948 45.2596C174.697 45.0457 174.376 44.9305 174.046 44.9353C173.716 44.9401 173.399 45.0647 173.154 45.2858C172.909 45.5069 172.754 45.8094 172.716 46.1368C172.678 46.4642 172.761 46.7941 172.949 47.0648V47.0648L172.34 47.6133C172.15 47.3999 172.003 47.1512 171.909 46.8812C171.815 46.6113 171.775 46.3255 171.792 46.0402C171.809 45.7549 171.882 45.4757 172.006 45.2185C172.131 44.9614 172.306 44.7313 172.52 44.5415V44.5415C172.955 44.1611 173.521 43.9644 174.098 43.993C174.674 44.0299 175.213 44.2914 175.597 44.7211L174.948 45.2596ZM222.477 86.2304C222.226 86.0165 221.905 85.9012 221.575 85.9061C221.245 85.9109 220.928 86.0355 220.683 86.2566C220.439 86.4777 220.283 86.7802 220.245 87.1076C220.208 87.435 220.291 87.7649 220.479 88.0356C220.639 88.2018 220.838 88.3253 221.058 88.3946L220.759 89.1726C220.42 89.0481 220.116 88.8466 219.869 88.5841C219.485 88.1521 219.287 87.5855 219.32 87.0083C219.353 86.4378 219.61 85.903 220.034 85.5189C220.458 85.1348 221.016 84.9319 221.588 84.9538C222.164 84.9907 222.702 85.2522 223.087 85.6819V85.6819L222.477 86.2304ZM223.376 86.1007C223.546 86.4066 223.638 86.7488 223.646 87.0981L223.646 87.2277C223.603 87.795 223.337 88.3223 222.907 88.6956C222.477 89.0689 221.917 89.2582 221.348 89.2224C221.305 89.228 221.261 89.228 221.218 89.2224L221.538 88.4146C221.75 88.4075 221.958 88.3501 222.144 88.2469C222.33 88.1438 222.488 87.998 222.606 87.8216C222.725 87.6452 222.799 87.4432 222.823 87.2324C222.848 87.0216 222.822 86.8081 222.747 86.6094L223.376 86.1007ZM163.048 258.182C162.857 257.969 162.711 257.72 162.617 257.45C162.523 257.18 162.483 256.894 162.5 256.609C162.517 256.324 162.589 256.044 162.714 255.787C162.839 255.53 163.014 255.3 163.228 255.11C163.512 254.861 163.856 254.689 164.227 254.612L164.227 255.469C164.074 255.529 163.933 255.613 163.807 255.719C163.538 255.96 163.375 256.298 163.354 256.658C163.334 257.019 163.457 257.373 163.697 257.643C163.816 257.772 163.959 257.877 164.117 257.953L164.117 258.81C163.707 258.71 163.335 258.492 163.048 258.182V258.182ZM165.046 258.032C165.233 257.973 165.406 257.879 165.556 257.753C165.825 257.512 165.988 257.174 166.009 256.813C166.029 256.453 165.906 256.098 165.666 255.828C165.527 255.675 165.352 255.558 165.156 255.489L165.156 254.632C165.575 254.734 165.952 254.964 166.235 255.29C166.427 255.503 166.575 255.752 166.669 256.022C166.763 256.293 166.803 256.58 166.785 256.866C166.77 257.151 166.697 257.43 166.572 257.687C166.447 257.944 166.271 258.174 166.055 258.362C165.746 258.63 165.37 258.81 164.966 258.88L165.046 258.032Z" fill="#383838"/>
<path d="M120.274 177.098L120.584 175.582L123.582 176.141C125.507 176.518 127.452 176.791 129.407 176.959L132.224 177.168L132.224 178.913C132.44 180.989 132.807 183.045 133.323 185.067L134.422 189.495L138.918 189.276C141.496 189.136 143.465 188.867 143.515 188.617C144.127 185.14 144.434 181.616 144.434 178.086L144.184 176.49L146.972 175.931C148.887 175.54 150.781 175.051 152.647 174.465C153.627 174.131 154.629 173.862 155.644 173.657C155.714 173.727 156.014 174.475 156.364 175.313C157.144 176.913 158.085 178.43 159.171 179.841C160.39 181.467 161.559 183.092 161.799 183.441C162.139 183.97 162.468 183.93 164.237 183.172C165.356 182.703 167.234 181.786 168.383 181.177L170.491 180.05L169.263 175.622C168.751 173.614 168.056 171.658 167.184 169.778L166.355 168.381L168.953 166.586C170.392 165.589 172.13 164.332 172.77 163.764C173.409 163.195 174.418 162.397 174.918 161.988L175.847 161.25L177.166 162.677C178.662 164.083 180.343 165.281 182.162 166.237L185.808 168.352L188.906 164.961L191.993 161.6L189.555 158.388C188.321 156.723 186.936 155.174 185.419 153.76L183.77 152.334L185.549 149.582C186.548 148.105 187.807 145.891 188.406 144.685C189.006 143.478 189.585 142.411 189.645 142.341C190.256 142.405 190.847 142.592 191.384 142.889C193.328 143.56 195.337 144.024 197.378 144.276L201.815 144.974L202.454 143.278C203.803 139.838 204.712 136.457 204.452 136.177C201.506 134.269 198.377 132.658 195.11 131.37L193.592 131.051L194.151 128.059C194.533 126.138 194.806 124.196 194.971 122.244L195.18 119.432L196.929 119.432C199.013 119.197 201.076 118.81 203.104 118.275L207.55 117.178L207.33 112.69C207.19 110.117 206.92 108.162 206.671 108.102C203.183 107.498 199.649 107.195 196.11 107.195L194.501 107.444L193.951 104.661C193.558 102.749 193.068 100.859 192.483 98.9964C192.145 98.0195 191.878 97.0195 191.683 96.0044C192.219 95.7311 192.769 95.488 193.332 95.2763C194.938 94.498 196.462 93.559 197.878 92.4738C199.507 91.257 201.135 90.0801 201.485 89.8408C202.005 89.5017 201.975 89.1726 201.215 87.4172C200.746 86.2902 199.826 84.4252 199.217 83.2683L198.108 81.2038L193.672 82.4305C191.658 82.9382 189.698 83.6362 187.817 84.515L186.418 85.3328L184.629 82.7597C183.757 81.4418 182.816 80.1702 181.812 78.9498C181.242 78.2517 180.433 77.3042 180.033 76.8055L179.294 75.878L180.723 74.5515C182.133 73.0587 183.333 71.3811 184.29 69.5648L186.418 65.9345L183.051 62.8627L179.654 59.761L176.336 62.3142C174.664 63.5452 173.103 64.9201 171.67 66.4232L170.372 67.9791L167.644 66.2237C166.165 65.2264 163.947 63.9697 162.738 63.3713C161.529 62.7729 160.46 62.2045 160.39 62.1346C160.47 61.5227 160.663 60.9309 160.96 60.3893C161.616 58.4449 162.078 56.4404 162.338 54.4052L163.038 49.987L161.349 49.3387C157.892 48.0023 154.515 47.0947 154.235 47.4039C152.303 50.3302 150.673 53.4446 149.37 56.6991L149.06 58.2151L146.062 57.6566C144.135 57.2701 142.187 56.9971 140.227 56.8388L137.42 56.6293L137.42 54.884C137.204 52.8088 136.837 50.7521 136.321 48.7304L135.162 44.2822L130.666 44.5016C128.088 44.6413 126.119 44.9105 126.069 45.1599C125.46 48.6377 125.149 52.1612 125.14 55.6918L125.4 57.2876L122.612 57.8461C120.697 58.2375 118.803 58.7268 116.937 59.3122C115.958 59.6502 114.956 59.9201 113.94 60.12C113.87 60.0502 113.57 59.3022 113.22 58.4644C112.44 56.8644 111.499 55.3473 110.413 53.9365C109.194 52.3108 108.025 50.6852 107.785 50.3361C107.445 49.8075 107.106 49.8474 105.347 50.6054C104.228 51.0741 102.35 51.9917 101.191 52.6L99.0925 53.727L100.321 58.1552C100.833 60.1631 101.528 62.1195 102.4 63.9997L103.229 65.3959L100.631 67.1912C99.1924 68.1885 97.4739 69.4252 96.8045 70.0136C96.1351 70.6021 95.1959 71.36 94.7163 71.7889L93.807 72.5469L92.4482 71.1307C90.9446 69.7299 89.2653 68.5298 87.4525 67.5602L83.8056 65.4458L80.6783 68.7271C78.3003 71.2304 77.6209 72.0682 77.7907 72.3474C79.7557 75.1809 81.9692 77.8343 84.4051 80.2763L85.8439 81.4631L84.0854 84.1859C83.0862 85.6619 81.8273 87.876 81.2278 89.0828C80.6283 90.2896 80.0488 91.3567 79.9889 91.4266C79.3615 91.3561 78.7557 91.1557 78.2104 90.8381C76.2634 90.1819 74.2549 89.7241 72.2155 89.4718L67.7993 88.7437L67.1598 90.4292C65.811 93.87 64.9018 97.251 65.2115 97.5303C68.1436 99.4469 71.2597 101.067 74.5135 102.367L76.0323 102.687L75.4727 105.679C75.0996 107.601 74.8261 109.542 74.6534 111.493L74.4436 114.306L72.6951 114.306C70.6128 114.525 68.5491 114.895 66.5204 115.413L62.0842 116.51L62.304 120.998C62.4439 123.571 62.7136 125.536 62.9634 125.585C66.4444 126.191 69.9709 126.498 73.5044 126.503L75.113 126.244L75.6626 129.026C76.0547 130.938 76.5449 132.829 77.1313 134.691C77.4637 135.67 77.7307 136.669 77.9306 137.683C77.3952 137.957 76.8448 138.2 76.282 138.411C74.6756 139.19 73.1525 140.129 71.7359 141.214C70.1073 142.431 68.4787 143.607 68.129 143.847C67.6094 144.186 67.6394 144.515 68.3988 146.27C68.8684 147.397 69.7876 149.262 70.3971 150.419L71.5261 152.524L75.9123 151.287C77.9234 150.775 79.8832 150.081 81.7673 149.213L83.2161 148.335L85.0146 150.968C86.0137 152.384 87.2427 154.119 87.8322 154.788L89.5906 156.902L90.34 157.81L88.9212 159.166C87.5206 160.667 86.3216 162.343 85.3543 164.153L83.2261 167.783L86.6232 170.885L89.9903 173.957L93.1976 171.583C94.8686 170.35 96.4237 168.968 97.8436 167.454L99.2724 165.798L102 167.554C103.479 168.551 105.697 169.808 106.906 170.406C108.115 171.004 109.184 171.573 109.254 171.643C109.176 172.246 108.99 172.831 108.704 173.368C108.029 175.308 107.56 177.314 107.305 179.352L106.606 183.77L108.295 184.419C111.752 185.765 115.129 186.663 115.409 186.354C117.335 183.438 118.965 180.337 120.274 177.098ZM176.227 137.963C173.752 142.841 170.414 147.234 166.375 150.928C164.776 152.384 162.678 154.119 161.719 154.788C156.092 158.698 149.684 161.345 142.935 162.547L141.007 136.387C141.253 136.32 141.503 136.24 141.756 136.147C145.767 134.755 149.238 132.138 151.678 128.667L151.608 128.877L176.227 137.963ZM178.285 100.532C181.784 109.817 182.221 119.975 179.534 129.525L155.005 120.838C155.766 117.114 155.469 113.252 154.145 109.688L176.127 95.5556C176.951 97.1697 177.679 98.8315 178.305 100.532L178.285 100.532ZM148.76 72.6067C157.588 75.3677 165.381 80.7116 171.131 87.9458L149.39 102.407C146.06 99.1157 141.694 97.0724 137.03 96.6227L135.162 70.4924C139.781 70.5199 144.371 71.2325 148.78 72.6067L148.76 72.6067ZM92.4082 97.7696C94.9954 92.0161 98.7635 86.8686 103.469 82.6599C109.844 76.9155 117.663 73.0065 126.089 71.3501L128.367 97.6001C125.808 98.4734 123.45 99.8503 121.433 101.649C119.805 103.078 118.421 104.762 117.337 106.636L92.4082 97.7696ZM89.6106 106.038L114.659 115.273C114.522 116.768 114.555 118.274 114.759 119.761C115.047 121.804 115.643 123.791 116.528 125.655L95.066 141.004C88.7665 130.498 86.8168 117.955 89.6306 106.038L89.6106 106.038ZM113.091 157.959C108.29 155.381 103.963 152.008 100.292 147.986L122.173 132.786C124.989 135.039 128.348 136.515 131.914 137.065L134.183 163.275C126.838 163.175 119.621 161.354 113.111 157.959L113.091 157.959Z" fill="#3D3D3D"/>
<path d="M69.218 210.17C66.1606 213.781 63.303 218.338 63.7527 218.837C65.2788 220.438 67.0328 221.806 68.9582 222.896C69.6028 223.178 70.213 223.533 70.7767 223.953C70.7767 224.103 68.7184 229.379 68.6685 229.429C68.6185 229.479 67.8092 229.189 66.81 228.87C64.8118 228.272 59.816 228.122 59.6562 228.661C58.7753 232.435 58.3163 236.295 58.2873 240.17L58.2873 241.566L60.7652 242.125C62.2374 242.471 63.7509 242.608 65.2614 242.534L67.3196 242.404L67.7792 245.396L68.1989 248.388L66.3704 248.807C64.1642 249.45 62.0832 250.462 60.2157 251.799C59.886 252.088 60.5154 254.193 61.9742 257.674C62.9733 259.957 65.1315 263.957 65.4112 263.957C65.5311 263.957 66.6602 263.618 67.9191 263.219C69.3115 262.8 70.637 262.186 71.8557 261.394L73.5543 260.287L75.4327 262.501C76.1159 263.231 76.7437 264.011 77.3111 264.834C76.8941 265.358 76.4364 265.849 75.9422 266.301C74.4435 267.787 71.7858 272.015 72.1055 272.374C72.2154 272.494 73.1047 273.292 74.1738 274.17C77.7007 277.211 82.4267 280.154 82.9463 279.705C84.5459 278.184 85.9127 276.437 87.0028 274.519C87.2852 273.875 87.6405 273.266 88.0619 272.703C88.2018 272.703 93.4972 274.758 93.5372 274.808C93.5772 274.858 93.3074 275.666 92.9877 276.663C92.3882 278.658 92.2483 283.644 92.7778 283.804C96.5585 284.71 100.43 285.185 104.318 285.22L105.707 285.22L106.266 282.747C106.615 281.278 106.749 279.766 106.666 278.259L106.546 276.204L109.544 275.765L112.541 275.316L112.981 277.162C113.615 279.361 114.629 281.434 115.978 283.285C116.288 283.634 118.476 282.986 121.763 281.59C124.191 280.592 128.178 278.398 128.178 278.119C128.178 278.009 127.838 276.872 127.428 275.616C127.012 274.204 126.393 272.86 125.59 271.626L124.481 269.971L126.709 268.116C127.447 267.444 128.228 266.821 129.047 266.251C129.574 266.664 130.066 267.121 130.516 267.617C131.594 268.669 132.815 269.565 134.142 270.28C134.887 270.782 135.688 271.194 136.53 271.507C136.59 271.457 137.24 270.719 137.959 269.931C141.027 266.42 144.424 261.164 143.954 260.636C142.428 259.035 140.674 257.667 138.749 256.576C138.105 256.299 137.498 255.944 136.94 255.519C136.94 255.37 138.988 250.094 139.038 250.054C139.088 250.014 139.898 250.283 140.897 250.602C142.895 251.201 147.891 251.35 148.051 250.812C148.936 247.038 149.395 243.178 149.419 239.302L149.419 237.906L146.852 237.348C145.38 237 143.866 236.866 142.355 236.949L140.297 237.068L139.858 234.076L139.408 231.084L141.256 230.656C143.462 230.02 145.541 229.007 147.401 227.664C147.731 227.374 147.101 225.27 145.643 221.789C144.644 219.505 142.485 215.506 142.206 215.506C142.086 215.506 140.957 215.845 139.698 216.244C138.3 216.667 136.971 217.288 135.751 218.089L134.093 219.186L132.234 216.962C131.561 216.225 130.937 215.446 130.366 214.628C130.774 214.1 131.229 213.61 131.725 213.162C133.223 211.676 135.881 207.447 135.561 207.088C135.451 206.969 134.562 206.181 133.493 205.293C129.966 202.251 125.25 199.309 124.731 199.758C123.125 201.276 121.754 203.024 120.664 204.944C120.382 205.588 120.026 206.197 119.605 206.759C119.465 206.759 114.17 204.705 114.13 204.655C114.09 204.605 114.359 203.797 114.679 202.8C115.279 200.805 115.419 195.818 114.889 195.659C111.11 194.77 107.242 194.311 103.359 194.292L101.96 194.292L101.4 196.766C101.052 198.235 100.917 199.747 101.001 201.254L101.131 203.308L98.1333 203.767L95.1358 204.186L94.7162 202.351C94.0638 200.158 93.0509 198.089 91.7188 196.227C91.409 195.878 89.2209 196.527 85.9337 197.923C83.5058 198.92 79.5292 201.114 79.5292 201.394C79.5292 201.503 79.8589 202.64 80.2685 203.897C80.689 205.291 81.3082 206.618 82.107 207.836L83.216 209.492L80.9879 211.347C80.25 212.019 79.469 212.642 78.6499 213.212C78.1239 212.801 77.6326 212.347 77.1812 211.856C76.0998 210.794 74.8758 209.888 73.5443 209.163C70.9965 207.667 71.4061 207.577 69.218 210.17ZM92.2583 219.455C95.3276 217.727 98.7476 216.711 102.264 216.484C105.781 216.256 109.303 216.821 112.571 218.139C115.916 219.421 118.88 221.532 121.184 224.273C122.155 225.331 123.041 226.465 123.831 227.664C125.687 230.773 126.798 234.268 127.079 237.877C127.36 241.485 126.802 245.11 125.45 248.468C124.171 251.811 122.055 254.77 119.305 257.065C118.248 258.034 117.115 258.917 115.918 259.708C111.864 262.099 107.188 263.231 102.486 262.959C97.7851 262.688 93.2714 261.025 89.5206 258.182C87.3495 256.303 85.4318 254.151 83.8155 251.779C81.4073 247.727 80.2694 243.048 80.5483 238.345C80.8485 232.89 83.0546 227.713 86.783 223.714C88.4551 222.105 90.2939 220.677 92.2683 219.455L92.2583 219.455Z" fill="#3D3D3D"/>
<path d="M218.401 103.903C216.912 105.499 216.552 105.898 216.492 106.008C216.432 106.117 218.82 109.698 220.949 112.351L221.808 113.438L221.118 114.435C220.739 115.009 220.396 115.605 220.089 116.221C219.407 117.64 218.8 119.095 218.271 120.579L218.051 121.217C218.051 121.217 215.983 121.327 213.515 121.437C211.047 121.546 208.949 121.646 208.889 121.656C208.619 121.756 208.219 124.648 208.13 126.962C208.04 129.276 208.189 132.108 208.389 132.138C209.139 132.288 211.896 132.737 214.224 133.135C215.783 133.365 217.132 133.574 217.222 133.604C217.312 133.634 217.422 133.963 217.502 134.462C217.771 135.942 218.196 137.39 218.77 138.78L219.55 140.556C219.665 140.853 219.805 141.14 219.969 141.413C220.049 141.503 219.969 141.673 219.54 142.092C216.672 145.163 213.975 148.175 213.975 148.335C213.975 148.804 216.652 152.155 218.331 153.77C219.154 154.614 220.058 155.375 221.029 156.044C221.088 156.044 223.666 154.179 227.643 151.267L228.312 150.768L228.652 151.058C228.91 151.253 229.184 151.427 229.471 151.576C229.731 151.696 230.47 152.105 231.05 152.474C232.411 153.242 233.856 153.851 235.356 154.289C235.613 154.329 235.859 154.425 236.076 154.568C236.076 154.648 236.166 156.005 236.216 157.56C236.355 161.979 236.445 163.425 236.605 163.475C238.268 163.847 239.959 164.083 241.661 164.183C243.929 164.322 247.176 164.183 247.156 164.003C247.136 163.824 247.336 162.607 247.576 161.061L248.205 156.852C248.305 156.084 248.405 155.356 248.435 155.227C248.465 155.097 248.675 154.967 249.844 154.708C251.576 154.324 253.254 153.728 254.84 152.933C255.259 152.714 255.689 152.518 256.129 152.344C257.027 152.967 257.864 153.675 258.626 154.459C260.954 156.583 262.823 158.239 263.023 158.358C263.222 158.478 265.78 156.443 267.809 154.548C268.963 153.558 270.005 152.444 270.916 151.227C270.916 151.227 269.797 149.641 268.418 147.796C267.039 145.951 265.84 144.296 265.74 144.126C265.51 143.787 265.501 143.807 266.53 142.131C267.449 140.605 268.19 138.979 268.738 137.284C268.813 136.903 268.955 136.539 269.157 136.207C269.217 136.207 270.067 136.147 271.036 136.127C273.481 136.131 275.924 135.978 278.35 135.669C278.602 134.802 278.772 133.914 278.859 133.016C279.047 130.413 279.047 127.8 278.859 125.197C278.859 125.197 276.931 124.877 274.643 124.538C272.355 124.199 270.306 123.91 270.097 123.88L269.727 123.82L269.387 122.484C268.943 120.721 268.324 119.007 267.539 117.367L267.009 116.37L268.368 114.914L271.545 111.613L273.314 109.688L273.174 109.429C272.428 108.292 271.607 107.205 270.716 106.177C269.047 104.233 266.42 101.709 266.05 101.709C265.96 101.709 264.292 102.916 262.323 104.372C260.355 105.828 258.706 107.015 258.656 107.025C258.443 106.936 258.247 106.812 258.077 106.656C256.38 105.505 254.548 104.567 252.622 103.864L251.233 103.365L251.233 102.727L251.063 98.2684C250.963 96.164 250.893 94.3888 250.873 94.279C249.748 93.8992 248.573 93.6875 247.386 93.6507C245.058 93.4014 240.312 93.4712 240.252 93.7704C240.032 94.8675 239.363 98.9366 239.163 100.393L238.853 102.477C238.853 102.647 238.364 102.806 236.325 103.345C235.093 103.64 233.889 104.044 232.729 104.552C232.286 104.745 231.858 104.972 231.45 105.23C231.25 105.409 231.27 105.439 229.232 103.544C227.733 102.138 224.376 99.1361 224.316 99.1361C223.525 99.59 222.779 100.118 222.088 100.712C220.796 101.701 219.565 102.767 218.401 103.903V103.903ZM236.995 117.397C239.181 116.082 241.723 115.479 244.269 115.672C246.793 115.751 249.233 116.596 251.263 118.096C253.398 119.645 255.012 121.804 255.893 124.288C256.774 126.771 256.881 129.463 256.198 132.008C255.631 134.305 254.401 136.386 252.661 137.993C251.161 139.533 249.268 140.637 247.186 141.184C244.491 141.957 241.615 141.824 239.003 140.805C236.993 140.082 235.216 138.831 233.858 137.185C231.93 135.123 230.788 132.451 230.63 129.635C230.454 127.941 230.629 126.229 231.145 124.606C231.661 122.983 232.506 121.483 233.628 120.2C234.67 119.174 235.796 118.236 236.995 117.397V117.397Z" fill="#3D3D3D"/>
<path d="M234.627 122.065C233.471 123.702 232.77 125.615 232.594 127.611C232.419 129.606 232.775 131.612 233.628 133.425C234.056 134.341 234.66 135.164 235.406 135.848C236.27 137.022 237.423 137.953 238.753 138.551C240.83 139.489 243.121 139.854 245.388 139.608C246.624 139.422 247.824 139.045 248.944 138.491C250.468 137.589 251.801 136.4 252.871 134.991C253.671 133.822 254.222 132.501 254.49 131.111C254.948 129.162 254.867 127.125 254.255 125.219C253.642 123.313 252.521 121.609 251.013 120.29C249.167 118.547 246.739 117.551 244.199 117.497C242.315 117.415 240.439 117.791 238.733 118.594C237.154 119.477 235.76 120.656 234.627 122.065V122.065ZM239.513 121.397C240.598 120.782 241.806 120.412 243.05 120.312C244.295 120.212 245.546 120.385 246.716 120.818C247.229 121.044 247.721 121.314 248.185 121.626C248.887 122.104 249.502 122.698 250.004 123.382C250.606 123.996 251.084 124.721 251.412 125.516C251.899 126.799 252.078 128.179 251.934 129.544C251.79 130.909 251.327 132.221 250.583 133.375C249.786 134.389 248.827 135.265 247.746 135.968C246.341 136.679 244.771 136.999 243.199 136.896C242.559 136.865 241.923 136.771 241.301 136.616C239.173 135.962 237.389 134.497 236.336 132.538C235.283 130.58 235.046 128.286 235.676 126.154C236.001 125.203 236.473 124.308 237.075 123.501C237.783 122.688 238.604 121.98 239.513 121.397V121.397Z" fill="#3D3D3D"/>
<path d="M25.1357 148.914C25.7152 150.479 26.4745 152.394 27.3038 154.409L28.2131 156.633L27.4737 157.301C25.8712 158.77 24.4491 160.424 23.2373 162.228C23.0501 162.546 22.8397 162.849 22.6079 163.136C22.6079 163.136 22.1183 163.026 21.5488 162.896C19.6104 162.437 13.7754 161.181 13.7454 161.211C13.4271 161.77 13.1403 162.346 12.8861 162.936L12.4865 163.933C12.3366 164.273 12.0868 164.931 11.927 165.459L11.3275 167.324C10.9954 168.422 10.7417 169.542 10.5681 170.675L10.5182 171.174L12.6564 172.102L16.7728 173.867L18.7711 174.715L18.7212 175.602C18.6073 177.913 18.7886 180.229 19.2607 182.494C19.3225 182.67 19.3497 182.856 19.3406 183.043C19.3406 183.043 18.3415 183.691 17.1225 184.429C14.7945 185.855 11.6972 187.84 11.7072 187.89C11.7172 187.939 12.4265 189.964 12.7663 190.802C13.7861 192.9 14.9652 194.917 16.2932 196.836L16.533 197.175L20.6895 195.599L24.8559 194.023L25.3855 194.592C26.2929 195.573 27.2678 196.489 28.303 197.334L29.5119 198.252C29.8017 198.471 30.3013 198.82 30.641 199.04C30.8818 199.179 31.1122 199.336 31.3304 199.509C31.2588 200.22 31.1285 200.923 30.9407 201.613C30.6809 202.73 30.2513 204.675 29.9416 205.941C29.492 207.996 29.462 208.255 29.6019 208.355C31.4576 209.251 33.3862 209.989 35.3669 210.559C36.446 210.868 38.5242 211.357 39.0338 211.427L39.4035 211.477L40.0329 210.031C40.6424 208.604 42.6807 203.967 42.9105 203.488L43.0104 203.239L44.5191 203.239C46.166 203.303 47.8143 203.159 49.4249 202.81C50.7238 202.58 51.1634 202.531 51.2334 202.63L52.5323 204.625C53.7113 206.49 55.8894 209.811 56.0293 209.961C56.1692 210.11 56.2191 209.961 56.369 209.961C58.288 209.26 60.1488 208.41 61.9342 207.418C63.1272 206.811 64.264 206.1 65.3313 205.293C65.3313 205.074 63.333 199.868 62.4538 197.713L62.0741 196.826L62.9933 195.998C64.4838 194.707 65.7646 193.193 66.7901 191.51C67.3496 190.632 67.4795 190.513 67.5994 190.513C67.7193 190.513 69.6876 190.971 72.0556 191.51C74.4236 192.049 76.3719 192.507 76.3919 192.507C76.8779 191.536 77.305 190.537 77.6708 189.515C78.0631 188.512 78.3967 187.486 78.6699 186.443C79.0085 185.2 79.2753 183.938 79.4692 182.664C79.4692 182.464 79.4692 182.424 77.6608 181.666C76.6616 181.207 74.7932 180.4 73.5243 179.841L71.2163 178.844L71.2163 177.437C71.2703 175.571 71.0924 173.705 70.6868 171.882C70.6082 171.605 70.5514 171.321 70.5169 171.035C70.5169 171.035 71.1563 170.586 71.9157 170.107C75.8323 167.644 78.0904 166.197 78.1404 166.118C77.589 164.403 76.9007 162.736 76.0821 161.131C75.9591 160.916 75.8523 160.693 75.7624 160.463C75.7025 160.283 74.1338 157.74 73.6942 157.112L73.4744 156.793L73.0647 156.932C72.5352 157.092 69.1281 158.398 66.83 159.316L64.9816 160.044L64.1324 159.096C63.3301 158.171 62.4326 157.332 61.4546 156.593C60.8052 156.084 59.3364 155.047 58.8968 154.768C58.8069 154.718 58.8968 154.219 59.2066 152.773C59.6861 150.649 60.6753 145.892 60.6453 145.792C59.7988 145.275 58.8974 144.853 57.9576 144.535C55.9517 143.739 53.8692 143.151 51.7429 142.78L50.7438 142.6L50.2442 143.677C49.5648 145.173 48.4957 147.607 47.7763 149.342L47.1768 150.789L45.6681 150.789C44.1805 150.735 42.6911 150.828 41.2219 151.068C40.6624 151.187 39.4734 151.357 39.2236 151.367C38.778 150.792 38.3644 150.192 37.9847 149.572C34.7874 144.585 34.2379 143.767 34.2079 143.767C34.178 143.767 33.5985 143.987 32.909 144.246C31.7347 144.652 30.5925 145.146 29.492 145.722C29.3107 145.843 29.1163 145.944 28.9125 146.021C27.557 146.709 26.2426 147.475 24.9758 148.315C24.9458 148.295 24.9758 148.445 25.1357 148.914ZM38.2844 165.868C40.3082 164.643 42.6131 163.956 44.9787 163.874C48.1949 163.872 51.2975 165.061 53.6859 167.211C56.0743 169.361 57.5786 172.319 57.9077 175.513C58.0882 178.85 57.0636 182.141 55.0201 184.788C54.2008 185.724 53.2678 186.555 52.2425 187.261C50.6486 188.273 48.88 188.98 47.027 189.346C45.2732 189.595 43.4872 189.496 41.7723 189.052C40.0573 188.609 38.4474 187.831 37.0355 186.763C36.0026 185.897 35.0978 184.89 34.3478 183.771C33.2782 182.176 32.5895 180.358 32.3349 178.456C32.0802 176.554 32.2664 174.619 32.8791 172.8C33.7893 169.901 35.7107 167.424 38.2944 165.818L38.2844 165.868Z" fill="#3D3D3D"/>
</g>
<defs>
<clipPath id="clip0">
<rect width="350" height="280" fill="white" transform="translate(280) rotate(90)"/>
</clipPath>
</defs>
</svg>
